{
.appVersion = "1286";
classes = (
{
automatic = 1;
code = "A Aacute Abreve Acircumflex Adieresis Agrave Amacron Aogonek Aring Atilde AE B C Cacute Ccaron Ccedilla Cdotaccent D Eth Dcaron Dcroat E Eacute Ecaron Ecircumflex Edieresis Edotaccent Egrave Emacron Eogonek F G Gbreve Gcommaaccent Gdotaccent H Hbar I IJ Iacute Icircumflex Idieresis Idotaccent Igrave Imacron Iogonek J K Kcommaaccent L Lacute Lcaron Lcommaaccent Ldot Lslash M N Nacute Ncaron Ncommaaccent Eng Ntilde O Oacute Ocircumflex Odieresis Ograve Ohungarumlaut Omacron Oslash Otilde OE P Thorn Q R Racute Rcaron Rcommaaccent S Sacute Scaron Scedilla Scommaaccent T Tbar Tcaron Tcedilla Tcommaaccent U Uacute Ucircumflex Udieresis Ugrave Uhungarumlaut Umacron Uogonek Uring V W Wacute Wcircumflex Wdieresis Wgrave X Y Yacute Ycircumflex Ydieresis Ygrave Z Zacute Zcaron Zdotaccent Delta Omega";
name = Uppercase;
}
);
copyright = "Copyright © 2019 by Lucas Descroix. All rights reserved.";
date = "2019-06-14 10:20:10 +0000";
designer = "Lucas Descroix";
designerURL = www.lucasdescroix.fr;
familyName = Syne;
featurePrefixes = (
{
automatic = 1;
code = "languagesystem DFLT dflt;\012\012languagesystem latn dflt;\012languagesystem latn AZE;\012languagesystem latn CRT;\012languagesystem latn KAZ;\012languagesystem latn TAT;\012languagesystem latn TRK;\012languagesystem latn ROM;\012languagesystem latn MOL;\012languagesystem latn CAT;\012";
name = Languagesystems;
}
);
features = (
{
automatic = 1;
code = "feature locl;\012feature sups;\012feature numr;\012feature dnom;\012feature frac;\012feature ordn;\012feature lnum;\012feature pnum;\012feature tnum;\012feature onum;\012feature case;\012feature salt;\012feature ss01;\012feature ss02;\012feature ss03;\012";
name = aalt;
},
{
automatic = 1;

glyphs = (
{
glyphname = A;
lastChange = "2020-07-29 06:28:48 +0000";
layers = (
{
anchors = (
{
name = bottom;
position = "{310, 0}";
},
{
name = ogonek;
position = "{566, 10}";
},
{
name = top;
position = "{310, 650}";
}
);
layerId = "BC735296-CD3A-4FA4-9AA9-EE2D747BC69E";
paths = (
{
closed = 1;
nodes = (
"464 170 LINE",
"464 245 LINE",
"152 245 LINE",
"152 170 LINE"
);
},
{
closed = 1;
nodes = (
"104 0 LINE",
"321.493 587.763 LINE",
"296.507 587.763 LINE",
"514 0 LINE",
"600 0 LINE",
"351 650 LINE",
"267 650 LINE",
"20 0 LINE"
);
}
);
width = 620;
},
{
anchors = (
{
name = bottom;
position = "{580, 0}";
},
{
name = ogonek;
position = "{1017, 0}";
},
{
name = top;
position = "{578, 600}";
}
);
layerId = "38E161BF-7670-40F4-B2BA-C78FC8454263";
paths = (
{
closed = 1;
nodes = (
"918 97.25 LINE",
"918 247.25 LINE",
"234 247.25 LINE",
"234 97.25 LINE"
);
},
{
closed = 1;
nodes = (
"285 0 LINE",
"653.416 572.937 LINE",
"503.584 572.937 LINE",
"875 0 LINE",
"1150 0 LINE",
"717 640 LINE",
"439 640 LINE",
"10 0 LINE"
);
}
);
width = 1160;
},
{
anchors = (
{
name = bottom;
position = "{394.375, 0}";
},
{
name = ogonek;
position = "{706.938, 6.875}";
},
{
name = top;
position = "{393.75, 634.375}";
}
);
layerId = "3FBA4204-9B78-4099-9F7B-502DDE19710D";
paths = (
{
closed = 1;
nodes = (
"605.875 140.984 LINE",
"605.875 251.984 LINE",
"177.625 251.984 LINE",
"177.625 140.984 LINE"
);
},
{
closed = 1;
nodes = (
"160.562 0 LINE",
"425.219 583.13 LINE",
"361.219 583.13 LINE",
"626.812 0 LINE",
"771.875 0 LINE",
"465.375 646.875 LINE",
"320.75 646.875 LINE",
"16.875 0 LINE"
);
}
);
width = 788.75;
}
);
leftKerningGroup = A;
rightKerningGroup = A;
unicode = 0041;
},
{
glyphname = AE;
lastChange = "2020-07-29 06:28:48 +0000";
layers = (
{
anchors = (
{
name = bottom;
position = "{455, 0}";
},
{
name = top;
position = "{455, 680}";
}
);
components = (
{
name = E;
transform = "{1, 0, 0, 1, 320, 0}";
}
);
layerId = "BC735296-CD3A-4FA4-9AA9-EE2D747BC69E";
paths = (
{
closed = 1;
nodes = (
"434 175.566 LINE",
"434 251 LINE",
"162 251 LINE",
"162 175.566 LINE"
);
},
{
closed = 1;
nodes = (
"20 0 LINE",
"104 0 LINE",
"454 650 LINE",
"376 650 LINE"
);
}
);
width = 921;
},
{
anchors = (
{
name = bottom;
position = "{981.26, 0}";
},
{
name = top;
position = "{981.26, 680}";
}
);
background = {
anchors = (
{
name = bottom;
position = "{1116.26, 0}";
},
{
name = ogonek;
position = "{1628.26, 10}";
},
{
name = top;
position = "{1116.26, 650}";
}
);
components = (
{
name = A;
transform = "{1, 0, 0, 1, 37.96, 0}";
}
);
};
components = (
{
name = E;
transform = "{1, 0, 0, 1, 541.26, 0}";
}
);
layerId = "38E161BF-7670-40F4-B2BA-C78FC8454263";
paths = (
{
closed = 1;
nodes = (
"827.997 137 LINE",
"827.997 287 LINE",
"233.997 287 LINE",
"233.997 137 LINE"
);
},
{
closed = 1;
nodes = (
"9.997 0 LINE",
"281.997 0 LINE",
"711.997 640 LINE",
"453.997 640 LINE"
);
}
);
width = 1681.26;
},
{
anchors = (
{
name = bottom;
position = "{619.456, 0}";
},
{
name = top;
position = "{619.456, 680}";
}
);
components = (
{
alignment = -1;
name = E;
transform = "{1, 0, 0, 1, 389.144, 0}";
}
);
layerId = "3FBA4204-9B78-4099-9F7B-502DDE19710D";
paths = (
{
closed = 1;
nodes = (
"557.124 163.514 LINE",
"557.124 262.25 LINE",
"184.499 262.25 LINE",
"184.499 163.514 LINE"
);
},
{
closed = 1;
nodes = (
"16.874 0 LINE",
"159.624 0 LINE",
"534.624 646.875 LINE",
"400.374 646.875 LINE"
);
}
);
width = 1158.58125;
}
);
leftKerningGroup = A;
leftMetricsKey = A;
rightMetricsKey = E;
unicode = 00C6;
},
{
glyphname = B;
lastChange = "2020-07-29 06:28:48 +0000";
layers = (
{
anchors = (
{
name = bottom;
position = "{312, 0}";
},
{
name = top;
position = "{312, 680}";
}
);
background = {
components = (
{
name = R;
transform = "{1, 0, 0, 1, -0.208, 0}";
}
);
};
components = (
{
name = "fut-v";
transform = "{1, 0, 0, 1, 22, 0}";
}
);
layerId = "BC735296-CD3A-4FA4-9AA9-EE2D747BC69E";
paths = (
{
closed = 1;
nodes = (
"412.639 575 OFFCURVE",
"471 545.478 OFFCURVE",
"471 473 CURVE SMOOTH",
"471 399 OFFCURVE",
"416 359 OFFCURVE",
"326 359 CURVE",
"326 322 LINE",
"456 322 OFFCURVE",
"550 353 OFFCURVE",
"550 476 CURVE SMOOTH",
"550 585.328 OFFCURVE",
"470.184 650 OFFCURVE",
"336 650 CURVE",
"336 575 LINE"
);
},
{
closed = 1;
nodes = (
"132 575 LINE",
"336 575 LINE",
"336 650 LINE",
"132 650 LINE"
);
},
{
closed = 1;
nodes = (
"132 284 LINE",
"326 284 LINE",
"326 359 LINE",
"132 359 LINE"
);
},
{
closed = 1;
nodes = (
"406 284 OFFCURVE",
"491 268 OFFCURVE",
"491 181 CURVE SMOOTH",
"491 107 OFFCURVE",
"436 75 OFFCURVE",
"346 75 CURVE",
"346 0 LINE",
"476 0 OFFCURVE",
"571 57 OFFCURVE",
"571 181 CURVE SMOOTH",
"571 321 OFFCURVE",
"446 332 OFFCURVE",
"326 332 CURVE",
"326 284 LINE"
);
},
{
closed = 1;
nodes = (
"142 0 LINE",
"366 0 LINE",
"366 75 LINE",
"142 75 LINE"
);
}
);
width = 616;
},
{
anchors = (
{
name = bottom;
position = "{522, 0}";
},
{
name = top;
position = "{522, 680}";
}
);
background = {
components = (
{
name = E;
}
);
};
components = (
{
name = "fut-v";
transform = "{1, 0, 0, 1, 42, 0}";
}
);
layerId = "38E161BF-7670-40F4-B2BA-C78FC8454263";
paths = (
{
closed = 1;
nodes = (
"778.139 452 OFFCURVE",
"808 440 OFFCURVE",
"808 410 CURVE SMOOTH",
"808 380 OFFCURVE",
"778.139 368 OFFCURVE",
"708 368 CURVE",
"620 316 LINE",
"900 316 OFFCURVE",
"1078 325.5 OFFCURVE",
"1078 469.5 CURVE SMOOTH",
"1078 594.828 OFFCURVE",
"958.368 640 OFFCURVE",
"700 640 CURVE",
"708 452 LINE"
);
},
{
closed = 1;
nodes = (
"162 452 LINE",
"708 452 LINE",
"700 640 LINE",
"162 640 LINE"
);
},
{
closed = 1;
nodes = (
"162 272 LINE",
"750 272 LINE",
"708 368 LINE",
"162 368 LINE"
);
},
{
closed = 1;
nodes = (
"820 272 OFFCURVE",
"850 259.992 OFFCURVE",
"850 229.992 CURVE SMOOTH",
"850 199.992 OFFCURVE",
"820 188 OFFCURVE",
"750 188 CURVE",
"750 0 LINE",
"970 0 OFFCURVE",
"1110 57 OFFCURVE",
"1110 181 CURVE SMOOTH",
"1110 346 OFFCURVE",
"880 324 OFFCURVE",
"620 324 CURVE",
"750 272 LINE"
);
},
{
closed = 1;
nodes = (
"182 0 LINE",
"750 0 LINE",
"750 188 LINE",
"182 188 LINE"
);
}
);
width = 1140;
},
{
anchors = (
{
name = bottom;
position = "{377.625, 0}";
},
{
name = top;
position = "{377.625, 680}";
}
);
components = (
{
alignment = -1;
name = "fut-v";
transform = "{1, 0, 0, 1, 28.25, 0}";
}
);
layerId = "3FBA4204-9B78-4099-9F7B-502DDE19710D";
paths = (
{
closed = 1;
nodes = (
"526.858 536.562 OFFCURVE",
"576.312 514.516 OFFCURVE",
"576.312 455.312 CURVE SMOOTH",
"576.312 395.062 OFFCURVE",
"529.168 372.812 OFFCURVE",
"445.375 372.812 CURVE",
"417.875 320.125 LINE",
"594.75 320.125 OFFCURVE",
"715 344.406 OFFCURVE",
"715 473.969 CURVE SMOOTH",
"715 588.297 OFFCURVE",
"622.742 646.875 OFFCURVE",
"449.75 646.875 CURVE",
"452.25 536.562 LINE"
);
},
{
closed = 1;
nodes = (
"141.375 536.562 LINE",
"452.25 536.562 LINE",
"449.75 646.875 LINE",
"141.375 646.875 LINE"
);
},
{
closed = 1;
nodes = (
"141.375 266.25 LINE",
"458.5 266.25 LINE",
"445.375 372.812 LINE",
"141.375 372.812 LINE"
);
},
{
closed = 1;
nodes = (
"535.375 266.25 OFFCURVE",
"603.188 262.498 OFFCURVE",
"603.188 196.31 CURVE SMOOTH",
"603.188 136.06 OFFCURVE",
"556 110.312 OFFCURVE",
"472.25 110.312 CURVE",
"472.25 0 LINE",
"630.375 0 OFFCURVE",
"739.438 57 OFFCURVE",
"739.438 181 CURVE SMOOTH",
"739.438 328.812 OFFCURVE",
"581.625 329.5 OFFCURVE",
"417.875 329.5 CURVE",
"458.5 266.25 LINE"
);
},
{
closed = 1;
nodes = (
"154.5 0 LINE",
"486 0 LINE",
"486 110.312 LINE",
"154.5 110.312 LINE"
);
}
);
width = 779.75;
}
);
leftMetricsKey = H;
unicode = 0042;
},
{
glyphname = C;
lastChange = "2020-07-29 06:28:48 +0000";
layers = (
{
anchors = (
{
name = bottom;
position = "{359, 0}";
},
{
name = center;
position = "{370, 340}";
},
{
name = ogonek;
position = "{596, 0}";
},
{
name = top;
position = "{359, 650}";
},
{
name = topleft;
position = "{20, 680}";
},
{
name = topright;
position = "{720, 680}";
}
);
background = {
components = (
{
name = G;
}
);
paths = (
{
closed = 1;
nodes = (
"679.714 231.8 OFFCURVE",
"682.865 246.189 OFFCURVE",
"685.194 261.076 CURVE",
"603.909 261.076 LINE",
"600.838 245.846 OFFCURVE",
"596.66 231.461 OFFCURVE",
"591.501 217.94 CURVE",
"675.793 217.94 LINE"
);
}
);
};
layerId = "BC735296-CD3A-4FA4-9AA9-EE2D747BC69E";
paths = (
{
closed = 1;
nodes = (
"565.239 217.48 LINE",
"537.37 118.912 OFFCURVE",
"457.416 65 OFFCURVE",
"364 65 CURVE SMOOTH",
"241 65 OFFCURVE",
"130 157 OFFCURVE",
"130 325 CURVE SMOOTH",
"130 492 OFFCURVE",
"241 585 OFFCURVE",
"364 585 CURVE SMOOTH",
"457.632 585 OFFCURVE",
"537.788 530.267 OFFCURVE",
"565.501 431.417 CURVE",
"639.793 431.417 LINE",
"619.627 573.418 OFFCURVE",
"508.71 660 OFFCURVE",
"364 660 CURVE SMOOTH",
"186 660 OFFCURVE",
"50 529 OFFCURVE",
"50 325 CURVE SMOOTH",
"50 121 OFFCURVE",
"186 -10 OFFCURVE",
"364 -10 CURVE SMOOTH",
"508.336 -10 OFFCURVE",
"619 76.135 OFFCURVE",
"639.48 217.48 CURVE"
);
}
);
width = 689.8;
},
{
anchors = (
{
name = bottom;
position = "{683, 0}";
},
{
name = center;
position = "{715, 340}";
},
{
name = ogonek;
position = "{1167, 0}";
},
{
name = top;
position = "{663, 610}";
},
{
name = topleft;
position = "{15, 680}";
},
{
name = topright;
position = "{1415, 680}";
}
);
layerId = "38E161BF-7670-40F4-B2BA-C78FC8454263";
paths = (
{
closed = 1;
nodes = (
"995.478 267.48 LINE",
"969.74 213.912 OFFCURVE",
"899.832 170 OFFCURVE",
"683 170 CURVE SMOOTH",
"427 170 OFFCURVE",
"321 212 OFFCURVE",
"321 315 CURVE SMOOTH",
"321 427 OFFCURVE",
"427 470 OFFCURVE",
"683 470 CURVE SMOOTH",
"900.264 470 OFFCURVE",
"970.576 425.267 OFFCURVE",
"996.002 361.417 CURVE",
"1255.586 361.417 LINE",
"1245.254 553.418 OFFCURVE",
"1062.42 660 OFFCURVE",
"683 660 CURVE SMOOTH",
"297 660 OFFCURVE",
"60 579 OFFCURVE",
"60 315 CURVE SMOOTH",
"60 51 OFFCURVE",
"297 -20 OFFCURVE",
"683 -20 CURVE SMOOTH",
"1061.672 -20 OFFCURVE",
"1244 76.135 OFFCURVE",
"1254.96 267.48 CURVE"
);
}
);
width = 1315.6;
},
{
anchors = (
{
name = bottom;
position = "{463.375, 0}";
},
{
name = center;
position = "{477.812, 340}";
},
{
name = ogonek;
position = "{774.438, 0}";
},
{
name = top;
position = "{454, 637.5}";
},
{
name = topleft;
position = "{18.438, 680}";
},
{
name = topright;
position = "{937.188, 680}";
}
);
layerId = "3FBA4204-9B78-4099-9F7B-502DDE19710D";
paths = (
{
closed = 1;
nodes = (
"699.689 233.105 LINE",
"672.486 152.162 OFFCURVE",
"595.671 101.375 OFFCURVE",
"463.688 101.375 CURVE SMOOTH",
"299.125 101.375 OFFCURVE",
"189.688 177.75 OFFCURVE",
"189.688 321.875 CURVE SMOOTH",
"189.688 468 OFFCURVE",
"299.125 545.375 OFFCURVE",
"463.688 545.375 CURVE SMOOTH",
"595.955 545.375 OFFCURVE",
"673.034 493.767 OFFCURVE",
"700.033 409.542 CURVE",
"832.228 409.542 LINE",
"815.135 567.168 OFFCURVE",
"681.744 660 OFFCURVE",
"463.688 660 CURVE SMOOTH",
"220.688 660 OFFCURVE",
"53.125 544.625 OFFCURVE",
"53.125 321.875 CURVE SMOOTH",
"53.125 99.125 OFFCURVE",
"220.688 -13.125 OFFCURVE",
"463.688 -13.125 CURVE SMOOTH",
"681.254 -13.125 OFFCURVE",
"814.312 76.135 OFFCURVE",
"831.818 233.105 CURVE"
);
}
);
width = 885.3625;
}
);
leftKerningGroup = O;
leftMetricsKey = O;
rightKerningGroup = O;
rightMetricsKey = O;
unicode = 0043;
},
{
glyphname = D;
lastChange = "2020-07-29 06:28:48 +0000";
layers = (
{
anchors = (
{
name = bottom;
position = "{345, 0}";
},
{
name = center;
position = "{345, 340}";
},
{
name = top;
position = "{325, 680}";
}
);
background = {
components = (
{
name = O;
transform = "{1, 0, 0, 1, -37, 0}";
}
);
};
components = (
{
name = "fut-v";
transform = "{1, 0, 0, 1, 22, 0}";
}
);
layerId = "BC735296-CD3A-4FA4-9AA9-EE2D747BC69E";
paths = (
{
closed = 1;
nodes = (
"501 575 OFFCURVE",
"558 451 OFFCURVE",
"558 328 CURVE SMOOTH",
"558 205 OFFCURVE",
"501 75 OFFCURVE",
"291 75 CURVE",
"291 0 LINE",
"541 0 OFFCURVE",
"638 155 OFFCURVE",
"638 328 CURVE SMOOTH",
"638 501 OFFCURVE",
"551 650 OFFCURVE",
"291 650 CURVE",
"291 575 LINE"
);
},
{
closed = 1;
nodes = (
"132 575 LINE",
"291 575 LINE",
"291 650 LINE",
"132 650 LINE"
);
},
{
closed = 1;
nodes = (
"142 0 LINE",
"291 0 LINE",
"291 75 LINE",
"142 75 LINE"
);
}
);
width = 688;
},
{
anchors = (
{
name = bottom;
position = "{658, 0}";
},
{
name = center;
position = "{229.103, 330}";
},
{
name = top;
position = "{598, 600}";
}
);
background = {
components = (
{
name = O;
transform = "{1, 0, 0, 1, -29, 0}";
}
);
};
components = (
{
name = "fut-v";
transform = "{1, 0, 0, 1, 42, 0}";
}
);
layerId = "38E161BF-7670-40F4-B2BA-C78FC8454263";
paths = (
{
closed = 1;
nodes = (
"930 440 OFFCURVE",
"982 400 OFFCURVE",
"982 320 CURVE SMOOTH",
"982 240 OFFCURVE",
"930 200 OFFCURVE",
"780 200 CURVE",
"790 0 LINE",
"1130 0 OFFCURVE",
"1242 152 OFFCURVE",
"1242 320 CURVE SMOOTH",
"1242 488 OFFCURVE",
"1150 640 OFFCURVE",
"790 640 CURVE",
"780 440 LINE"
);
},
{
closed = 1;
nodes = (
"232 440 LINE",
"780 440 LINE",
"790 640 LINE",
"232 640 LINE"
);
},
{
closed = 1;
nodes = (
"252 0 LINE",
"790 0 LINE",
"780 200 LINE",
"252 200 LINE"
);
}
);
width = 1302;
},
{
anchors = (
{
name = bottom;
position = "{442.812, 0}";
},
{
name = center;
position = "{308.782, 336.875}";
},
{
name = top;
position = "{410.312, 655}";
}
);
components = (
{
alignment = -1;
name = "fut-v";
transform = "{1, 0, 0, 1, 28.25, 0}";
}
);
layerId = "3FBA4204-9B78-4099-9F7B-502DDE19710D";
paths = (
{
closed = 1;
nodes = (
"635.062 532.812 OFFCURVE",
"690.5 435.062 OFFCURVE",
"690.5 325.5 CURVE SMOOTH",
"690.5 215.938 OFFCURVE",
"635.062 114.062 OFFCURVE",
"443.812 114.062 CURVE",
"446.938 0 LINE",
"725.062 0 OFFCURVE",
"826.062 154.062 OFFCURVE",
"826.062 325.5 CURVE SMOOTH",
"826.062 496.938 OFFCURVE",
"738.188 646.875 OFFCURVE",
"446.938 646.875 CURVE",
"443.812 532.812 LINE"
);
},
{
closed = 1;
nodes = (
"163.25 532.812 LINE",
"443.812 532.812 LINE",
"446.938 646.875 LINE",
"163.25 646.875 LINE"
);
},
{
closed = 1;
nodes = (
"176.375 0 LINE",
"446.938 0 LINE",
"443.812 114.062 LINE",
"176.375 114.062 LINE"
);
}
);
width = 879.1875;
}
);
leftMetricsKey = H;
rightKerningGroup = O;
rightMetricsKey = O;
unicode = 0044;
},
{
glyphname = E;
lastChange = "2020-07-29 06:28:48 +0000";
layers = (
{
anchors = (
{
name = bottom;
position = "{311, 0}";
},
{
name = ogonek;
position = "{491, 0}";
},
{
name = top;
position = "{311, 650}";
},
{
name = topleft;
position = "{20, 680}";
}
);
background = {
components = (
{
name = N;
transform = "{1, 0, 0, 1, 2, 0}";
}
);
};
components = (
{
name = "fut-v";
transform = "{1, 0, 0, 1, 22, 0}";
}
);
layerId = "BC735296-CD3A-4FA4-9AA9-EE2D747BC69E";
paths = (
{
closed = 1;
nodes = (
"153 575 LINE",
"540 575 LINE",
"540 650 LINE",
"153 650 LINE"
);
},
{
closed = 1;
nodes = (
"153 286 LINE",
"471 286 LINE",
"471 361 LINE",
"153 361 LINE"
);
},
{
closed = 1;
nodes = (
"153 0 LINE",
"541 0 LINE",
"541 75 LINE",
"153 75 LINE"
);
}
);
width = 601;
},
{
anchors = (
{
name = bottom;
position = "{620, 0}";
},
{
name = ogonek;
position = "{980, 0}";
},
{
name = top;
position = "{595, 600}";
},
{
name = topleft;
position = "{38, 680}";
}
);
background = {
components = (
{
name = N;
}
);
};
components = (
{
name = "fut-v";
transform = "{1, 0, 0, 1, 42, 0}";
}
);
layerId = "38E161BF-7670-40F4-B2BA-C78FC8454263";
paths = (
{
closed = 1;
nodes = (
"304 450 LINE",
"1078 450 LINE",
"1078 640 LINE",
"304 640 LINE"
);
},
{
closed = 1;
nodes = (
"304 270 LINE",
"940 270 LINE",
"940 370 LINE",
"304 370 LINE"
);
},
{
closed = 1;
nodes = (
"304 0 LINE",
"1080 0 LINE",
"1080 190 LINE",
"304 190 LINE"
);
}
);
width = 1140;
},
{
anchors = (
{
name = bottom;
position = "{407.562, 0}";
},
{
name = ogonek;
position = "{643.812, 0}";
},
{
name = top;
position = "{396.625, 634.375}";
},
{
name = topleft;
position = "{25.625, 680}";
}
);
components = (
{
alignment = -1;
name = "fut-v";
transform = "{1, 0, 0, 1, 28.25, 0}";
}
);
layerId = "3FBA4204-9B78-4099-9F7B-502DDE19710D";
paths = (
{
closed = 1;
nodes = (
"200.188 535.938 LINE",
"708.125 535.938 LINE",
"708.125 646.875 LINE",
"200.188 646.875 LINE"
);
},
{
closed = 1;
nodes = (
"200.188 269.906 LINE",
"617.562 269.906 LINE",
"617.562 374.906 LINE",
"200.188 374.906 LINE"
);
},
{
closed = 1;
nodes = (
"200.188 0 LINE",
"709.438 0 LINE",
"709.438 110.938 LINE",
"200.188 110.938 LINE"
);
}
);
width = 769.4375;
}
);
leftMetricsKey = H;
rightKerningGroup = E;
unicode = 0045;
},
{
glyphname = F;
lastChange = "2020-07-29 06:28:48 +0000";
layers = (
{
anchors = (
{
name = bottom;
position = "{301, 0}";
},
{
name = top;
position = "{301, 680}";
}
);
components = (
{
name = "fut-v";
transform = "{1, 0, 0, 1, 22, 0}";
}
);
layerId = "BC735296-CD3A-4FA4-9AA9-EE2D747BC69E";
paths = (
{
closed = 1;
nodes = (
"153 575 LINE",
"540 575 LINE",
"540 650 LINE",
"153 650 LINE"
);
},
{
closed = 1;
nodes = (
"153 286 LINE",
"471 286 LINE",
"471 361 LINE",
"153 361 LINE"
);
}
);
width = 565;
},
{
anchors = (
{
name = bottom;
position = "{600, 0}";
},
{
name = top;
position = "{600, 680}";
}
);
background = {
components = (
{
name = E;
transform = "{1, 0, 0, 1, -2, 0}";
}
);
};
components = (
{
name = "fut-v";
transform = "{1, 0, 0, 1, 42, 0}";
}
);
layerId = "38E161BF-7670-40F4-B2BA-C78FC8454263";
paths = (
{
closed = 1;
nodes = (
"304 450 LINE",
"1078 450 LINE",
"1078 640 LINE",
"304 640 LINE"
);
},
{
closed = 1;
nodes = (
"304 195 LINE",
"940 195 LINE",
"940 365 LINE",
"304 365 LINE"
);
}
);
width = 1128;
},
{
anchors = (
{
name = bottom;
position = "{394.438, 0}";
},
{
name = top;
position = "{394.438, 680}";
}
);
components = (
{
alignment = -1;
name = "fut-v";
transform = "{1, 0, 0, 1, 28.25, 0}";
}
);
layerId = "3FBA4204-9B78-4099-9F7B-502DDE19710D";
paths = (
{
closed = 1;
nodes = (
"200.188 535.938 LINE",
"708.125 535.938 LINE",
"708.125 646.875 LINE",
"200.188 646.875 LINE"
);
},
{
closed = 1;
nodes = (
"200.188 257.562 LINE",
"617.562 257.562 LINE",
"617.562 362.25 LINE",
"200.188 362.25 LINE"
);
}
);
width = 740.9375;
}
);
leftMetricsKey = H;
rightKerningGroup = F;
unicode = 0046;
},
{
glyphname = G;
lastChange = "2020-07-29 06:28:48 +0000";
layers = (
{
anchors = (
{
name = bottom;
position = "{365, 0}";
},
{
name = center;
position = "{370, 340}";
},
{
name = ogonek;
position = "{666, 10}";
},
{
name = top;
position = "{365, 650}";
},
{
name = topleft;
position = "{20, 680}";
},
{
name = topright;
position = "{720, 680}";
}
);
background = {
components = (
{
name = C;
}
);
};
layerId = "BC735296-CD3A-4FA4-9AA9-EE2D747BC69E";
paths = (
{
closed = 1;
nodes = (
"550.239 247.48 LINE",
"532.314 128.57 OFFCURVE",
"464.33 65 OFFCURVE",
"356 65 CURVE SMOOTH",
"215.282 65 OFFCURVE",
"130 167.961 OFFCURVE",
"130 320 CURVE SMOOTH",
"130 471.833 OFFCURVE",
"226.291 585 OFFCURVE",
"364 585 CURVE SMOOTH",
"462.89 585 OFFCURVE",
"539.071 525.692 OFFCURVE",
"565.501 431.417 CURVE",
"633.793 431.417 LINE",
"620.03 569.38 OFFCURVE",
"513.073 660 OFFCURVE",
"364 660 CURVE SMOOTH",
"178.681 660 OFFCURVE",
"50 517.713 OFFCURVE",
"50 320 CURVE SMOOTH",
"50 123.608 OFFCURVE",
"166.609 -10 OFFCURVE",
"356 -10 CURVE SMOOTH",
"485.084 -10 OFFCURVE",
"578.416 74.701 OFFCURVE",
"599.48 247.48 CURVE"
);
},
{
closed = 1;
nodes = (
"599.15 311.441 OFFCURVE",
"583.15 105.66 OFFCURVE",
"583.15 0 CURVE",
"661.15 0 LINE",
"661.15 311.441 LINE",
"599.15 311.441 LINE"
);
},
{
closed = 1;
nodes = (
"373.709 311.441 LINE",
"373.709 236.441 LINE",
"661.15 236.441 LINE",
"661.15 311.441 LINE"
);
}
);
width = 721.15;
},
{
anchors = (
{
name = bottom;
position = "{651.22, 0}";
},
{
name = center;
position = "{699.22, 340}";
},
{
name = ogonek;
position = "{1291.22, 10}";
},
{
name = top;
position = "{651.22, 610}";
},
{
name = topleft;
position = "{-0.78, 680}";
},
{
name = topright;
position = "{1399.22, 680}";
}
);
background = {
anchors = (
{
name = bottom;
position = "{692.999, 0}";
},
{
name = center;
position = "{714.999, 340}";
},
{
name = ogonek;
position = "{1166.999, 0}";
},
{
name = top;
position = "{692.999, 650}";
},
{
name = topleft;
position = "{14.999, 680}";
},
{
name = topright;
position = "{1414.999, 680}";
}
);
};
layerId = "38E161BF-7670-40F4-B2BA-C78FC8454263";
paths = (
{
closed = 1;
nodes = (
"1085.477 237.48 LINE",
"1017.68 202.956 OFFCURVE",
"909.831 170 OFFCURVE",
"702.999 170 CURVE SMOOTH",
"426.999 170 OFFCURVE",
"320.999 217 OFFCURVE",
"320.999 315 CURVE SMOOTH",
"320.999 427 OFFCURVE",
"426.999 470 OFFCURVE",
"682.999 470 CURVE SMOOTH",
"900.263 470 OFFCURVE",
"970.575 425.267 OFFCURVE",
"996.001 381.417 CURVE",
"1255.585 381.417 LINE",
"1245.253 553.418 OFFCURVE",
"1052.419 660 OFFCURVE",
"682.999 660 CURVE SMOOTH",
"306.999 660 OFFCURVE",
"59.999 579 OFFCURVE",
"59.999 315 CURVE SMOOTH",
"59.999 51 OFFCURVE",
"306.999 -20 OFFCURVE",
"652.999 -20 CURVE SMOOTH",
"961.671 -20 OFFCURVE",
"1133.999 116.135 OFFCURVE",
"1144.959 297.48 CURVE"
);
},
{
closed = 1;
nodes = (
"1165.52 331.441 OFFCURVE",
"1073.52 105.66 OFFCURVE",
"1073.52 0 CURVE",
"1269.52 0 LINE",
"1269.52 331.441 LINE",
"1165.52 331.441 LINE"
);
},
{
closed = 1;
nodes = (
"736.638 331.441 LINE",
"736.638 226.441 LINE",
"1269.52 226.441 LINE",
"1269.52 331.441 LINE"
);
}
);
width = 1339.52;
},
{
anchors = (
{
name = bottom;
position = "{454.444, 0}";
},
{
name = center;
position = "{472.881, 340}";
},
{
name = ogonek;
position = "{861.381, 10}";
},
{
name = top;
position = "{454.444, 637.5}";
},
{
name = topleft;
position = "{13.506, 680}";
},
{
name = topright;
position = "{932.256, 680}";
}
);
layerId = "3FBA4204-9B78-4099-9F7B-502DDE19710D";
paths = (
{
closed = 1;
nodes = (
"717.501 241.23 LINE",
"687.277 161.584 OFFCURVE",
"593.549 101.75 OFFCURVE",
"454.437 101.75 CURVE SMOOTH",
"271.444 101.75 OFFCURVE",
"189.687 184.286 OFFCURVE",
"189.687 318.438 CURVE SMOOTH",
"189.687 455.135 OFFCURVE",
"289.012 545 OFFCURVE",
"463.687 545 CURVE SMOOTH",
"599.569 545 OFFCURVE",
"673.916 491.622 OFFCURVE",
"700.032 412.667 CURVE",
"828.103 412.667 LINE",
"815.412 564.392 OFFCURVE",
"681.619 660 OFFCURVE",
"463.687 660 CURVE SMOOTH",
"218.78 660 OFFCURVE",
"53.125 536.865 OFFCURVE",
"53.125 318.438 CURVE SMOOTH",
"53.125 100.918 OFFCURVE",
"210.481 -13.125 OFFCURVE",
"448.812 -13.125 CURVE SMOOTH",
"634.017 -13.125 OFFCURVE",
"752.036 87.649 OFFCURVE",
"769.942 259.98 CURVE"
);
},
{
closed = 1;
nodes = (
"776.141 314.566 OFFCURVE",
"736.391 105.66 OFFCURVE",
"736.391 0 CURVE",
"851.266 0 LINE",
"851.266 314.566 LINE",
"776.141 314.566 LINE"
);
},
{
closed = 1;
nodes = (
"465.249 314.566 LINE",
"465.249 230.191 LINE",
"851.266 230.191 LINE",
"851.266 314.566 LINE"
);
}
);
width = 914.39062;
},
{
anchors = (
{
name = bottom;
position = "{681.22, 0}";
},
{
name = center;
position = "{699.22, 340}";
},
{
name = ogonek;
position = "{1291.22, 10}";
},
{
name = top;
position = "{681.22, 610}";
},
{
name = topleft;
position = "{-0.78, 680}";
},
{
name = topright;
position = "{1399.22, 680}";
}
);
associatedMasterId = "38E161BF-7670-40F4-B2BA-C78FC8454263";
background = {
anchors = (
{
name = bottom;
position = "{692.999, 0}";
},
{
name = center;
position = "{714.999, 340}";
},
{
name = ogonek;
position = "{1166.999, 0}";
},
{
name = top;
position = "{692.999, 650}";
},
{
name = topleft;
position = "{14.999, 680}";
},
{
name = topright;
position = "{1414.999, 680}";
}
);
};
layerId = "229EADEE-E18A-44C0-AFD8-237568DBE0E6";
name = "Apr 25 19, 15:29";
paths = (
{
closed = 1;
nodes = (
"1085.477 227.48 LINE",
"1017.68 202.956 OFFCURVE",
"909.831 175 OFFCURVE",
"702.999 175 CURVE SMOOTH",
"426.999 175 OFFCURVE",
"320.999 217 OFFCURVE",
"320.999 315 CURVE SMOOTH",
"320.999 412 OFFCURVE",
"426.999 455 OFFCURVE",
"682.999 455 CURVE SMOOTH",
"900.263 455 OFFCURVE",
"970.575 410.267 OFFCURVE",
"996.001 371.417 CURVE",
"1255.585 371.417 LINE",
"1245.253 553.418 OFFCURVE",
"1052.419 660 OFFCURVE",
"682.999 660 CURVE SMOOTH",
"306.999 660 OFFCURVE",
"59.999 579 OFFCURVE",
"59.999 315 CURVE SMOOTH",
"59.999 51 OFFCURVE",
"306.999 -20 OFFCURVE",
"652.999 -20 CURVE SMOOTH",
"961.671 -20 OFFCURVE",
"1133.999 116.135 OFFCURVE",
"1144.959 287.48 CURVE"
);
},
{
closed = 1;
nodes = (
"1165.52 321.441 OFFCURVE",
"1073.52 105.66 OFFCURVE",
"1073.52 0 CURVE",
"1269.52 0 LINE",
"1269.52 321.441 LINE",
"1165.52 321.441 LINE"
);
},
{
closed = 1;
nodes = (
"846.638 321.441 LINE",
"846.638 216.441 LINE",
"1269.52 216.441 LINE",
"1269.52 321.441 LINE"
);
}
);
width = 1339.52;
}
);
leftKerningGroup = O;
leftMetricsKey = O;
rightMetricsKey = "=O+10";
unicode = 0047;
},
{
glyphname = H;
lastChange = "2020-07-29 06:28:48 +0000";
layers = (
{
anchors = (
{
name = bottom;
position = "{360, 0}";
},
{
name = center;
position = "{360, 340}";
},
{
name = top;
position = "{360, 680}";
},
{
name = topleft;
position = "{20, 680}";
}
);
background = {
components = (
{
name = N;
transform = "{1, 0, 0, 1, 2, 0}";
}
);
};
components = (
{
name = "fut-v";
transform = "{1, 0, 0, 1, 502, 0}";
},
{
name = "fut-v";
transform = "{1, 0, 0, 1, 22, 0}";
}
);
layerId = "BC735296-CD3A-4FA4-9AA9-EE2D747BC69E";
paths = (
{
closed = 1;
nodes = (
"153 287 LINE",
"605 287 LINE",
"605 362 LINE",
"153 362 LINE"
);
}
);
width = 720;
},
{
anchors = (
{
name = bottom;
position = "{698, 0}";
},
{
name = center;
position = "{698, 340}";
},
{
name = top;
position = "{698, 680}";
},
{
name = topleft;
position = "{18, 680}";
}
);
background = {
components = (
{
name = N;
transform = "{1, 0, 0, 1, -20, 0}";
}
);
};
components = (
{
name = "fut-v";
transform = "{1, 0, 0, 1, 932, 0}";
},
{
name = "fut-v";
transform = "{1, 0, 0, 1, 42, 0}";
}
);
layerId = "38E161BF-7670-40F4-B2BA-C78FC8454263";
paths = (
{
closed = 1;
nodes = (
"284 229 LINE",
"1188 229 LINE",
"1188 419 LINE",
"284 419 LINE"
);
}
);
width = 1280;
},
{
anchors = (
{
name = bottom;
position = "{465.625, 0}";
},
{
name = center;
position = "{465.625, 340}";
},
{
name = top;
position = "{465.625, 680}";
},
{
name = topleft;
position = "{19.375, 680}";
}
);
components = (
{
alignment = -1;
name = "fut-v";
transform = "{1, 0, 0, 1, 636.375, 0}";
},
{
alignment = -1;
name = "fut-v";
transform = "{1, 0, 0, 1, 28.25, 0}";
}
);
layerId = "3FBA4204-9B78-4099-9F7B-502DDE19710D";
paths = (
{
closed = 1;
nodes = (
"193.938 268.875 LINE",
"787.188 268.875 LINE",
"787.188 379.812 LINE",
"193.938 379.812 LINE"
);
}
);
width = 895;
}
);
unicode = 0048;
},
{
glyphname = Hbar;
lastChange = "2020-07-29 06:28:48 +0000";
layers = (
{
components = (
{
name = H;
}
);
layerId = "BC735296-CD3A-4FA4-9AA9-EE2D747BC69E";
paths = (
{
closed = 1;
nodes = (
"40 432 LINE",
"680 432 LINE",
"680 507 LINE",
"40 507 LINE"
);
}
);
width = 720;
},
{
components = (
{
name = H;
transform = "{1, 0, 0, 1, 1, 0}";
}
);
layerId = "38E161BF-7670-40F4-B2BA-C78FC8454263";
paths = (
{
closed = 1;
nodes = (
"30 460 LINE",
"1250.318 460 LINE",
"1250.318 535 LINE",
"30 535 LINE"
);
}
);
width = 1280.32;
},
{
components = (
{
alignment = -1;
name = H;
transform = "{1, 0, 0, 1, 0.312, 0}";
}
);
layerId = "3FBA4204-9B78-4099-9F7B-502DDE19710D";
paths = (
{
closed = 1;
nodes = (
"36.875 460.75 LINE",
"858.224 460.75 LINE",
"858.224 535.75 LINE",
"36.875 535.75 LINE"
);
}
);
width = 895.1;
}
);
leftMetricsKey = "=H-40";
rightMetricsKey = "=H-40";
unicode = 0126;
},
{
glyphname = IJ;
lastChange = "2020-07-29 06:28:48 +0000";
layers = (
{
anchors = (
{
name = bottom;
position = "{138, 0}";
},
{
name = ogonek;
position = "{266, 10}";
},
{
name = top;
position = "{138, 680}";
},
{
name = topleft;
position = "{-2, 680}";
}
);
components = (
{
name = J;
transform = "{1, 0, 0, 1, 77.686, 0}";
}
);
layerId = "BC735296-CD3A-4FA4-9AA9-EE2D747BC69E";
paths = (
{
closed = 1;
nodes = (
"100 263.195 LINE",
"180 263.195 LINE",
"180 650 LINE",
"100 650 LINE"
);
}
);
width = 614.79;
},
{
anchors = (
{
name = bottom;
position = "{113.98, 0}";
},
{
name = ogonek;
position = "{241.98, 10}";
},
{
name = top;
position = "{113.98, 680}";
},
{
name = topleft;
position = "{-26.02, 680}";
}
);
components = (
{
name = J;
transform = "{1, 0, 0, 1, 53.666, 0}";
}
);
layerId = "38E161BF-7670-40F4-B2BA-C78FC8454263";
paths = (
{
closed = 1;
nodes = (
"85.98 344.195 LINE",
"325.98 344.195 LINE",
"325.98 640 LINE",
"85.98 640 LINE"
);
}
);
width = 1057.87;
},
{
anchors = (
{
name = bottom;
position = "{130.184, 0}";
},
{
name = ogonek;
position = "{258.184, 10}";
},
{
name = top;
position = "{130.184, 680}";
},
{
name = topleft;
position = "{-9.816, 680}";
}
);
components = (
{
alignment = -1;
name = J;
transform = "{1, 0, 0, 1, 69.87, 0}";
}
);
layerId = "3FBA4204-9B78-4099-9F7B-502DDE19710D";
paths = (
{
closed = 1;
nodes = (
"95.309 288.507 LINE",
"225.309 288.507 LINE",
"225.309 646.875 LINE",
"95.309 646.875 LINE"
);
}
);
width = 752.9425;
}
);
leftMetricsKey = I;
rightMetricsKey = J;
unicode = 0132;
},
{
glyphname = J;
lastChange = "2020-07-29 06:28:48 +0000";
layers = (
{
anchors = (
{
name = bottom;
position = "{263.1, 0}";
},
{
name = top;
position = "{263.1, 680}";
}
);
background = {
anchors = (
{
name = bottom;
position = "{215.771, -10}";
},
{
name = center;
position = "{215.771, 250}";
},
{
name = ogonek;
position = "{128.771, 10}";
},
{
name = top;
position = "{220.771, 510}";
},
{
name = topright;
position = "{-48.229, 500}";
}
);
};
layerId = "BC735296-CD3A-4FA4-9AA9-EE2D747BC69E";
paths = (
{
closed = 1;
nodes = (
"377.1 219 LINE",
"457.1 219 LINE",
"457.1 650 LINE",
"377.1 650 LINE"
);
},
{
closed = 1;
nodes = (
"29.897 63.682 OFFCURVE",
"121.112 -10 OFFCURVE",
"242.1 -10 CURVE SMOOTH",
"381.1 -10 OFFCURVE",
"457.1 88 OFFCURVE",
"457.1 219 CURVE",
"377.1 219 LINE",
"377.1 129 OFFCURVE",
"335.1 65 OFFCURVE",
"242.1 65 CURVE SMOOTH",
"166.461 65 OFFCURVE",
"110.165 107.027 OFFCURVE",
"97.381 188.229 CURVE",
"23.954 188.229 LINE"
);
}
);
width = 537.1;
},
{
anchors = (
{
name = bottom;
position = "{526.2, 0}";
},
{
name = top;
position = "{526.2, 680}";
}
);
background = {
components = (
{
name = U;
transform = "{1, 0, 0, 1, -52.932, 0}";
}
);
};
layerId = "38E161BF-7670-40F4-B2BA-C78FC8454263";
paths = (
{
closed = 1;
nodes = (
"684.2 329 LINE",
"934.2 299 LINE",
"934.2 640 LINE",
"684.2 640 LINE"
);
},
{
closed = 1;
nodes = (
"33.221 63.682 OFFCURVE",
"262.224 -10 OFFCURVE",
"484.2 -10 CURVE SMOOTH",
"802.2 -10 OFFCURVE",
"934.2 148 OFFCURVE",
"934.2 299 CURVE",
"684.2 329 LINE",
"684.2 242 OFFCURVE",
"650.2 180 OFFCURVE",
"484.2 180 CURVE SMOOTH",
"352.922 180 OFFCURVE",
"289.556 210.789 OFFCURVE",
"271.335 294.229 CURVE",
"31.335 294.229 LINE"
);
}
);
width = 1004.2;
},
{
anchors = (
{
name = bottom;
position = "{345.319, 0}";
},
{
name = top;
position = "{345.319, 680}";
}
);
layerId = "3FBA4204-9B78-4099-9F7B-502DDE19710D";
paths = (
{
closed = 1;
nodes = (
"473.069 253.375 LINE",
"606.194 244 LINE",
"606.194 646.875 LINE",
"473.069 646.875 LINE"
);
},
{
closed = 1;
nodes = (
"30.936 63.682 OFFCURVE",
"172.084 -10 OFFCURVE",
"317.756 -10 CURVE SMOOTH",
"505.819 -10 OFFCURVE",
"606.194 106.75 OFFCURVE",
"606.194 244 CURVE",
"473.069 253.375 LINE",
"473.069 169.375 OFFCURVE",
"426.694 105.375 OFFCURVE",
"317.756 105.375 CURVE SMOOTH",
"231.605 105.375 OFFCURVE",
"166.225 144.515 OFFCURVE",
"151.742 221.354 CURVE",
"26.261 221.354 LINE"
);
}
);
width = 683.06875;
}
);
leftKerningGroup = J;
rightMetricsKey = H;
unicode = 004A;
},
{
glyphname = K;
lastChange = "2020-07-29 06:28:48 +0000";
layers = (
{
anchors = (
{
name = bottom;
position = "{308, 0}";
},
{
name = top;
position = "{308, 680}";
}
);
components = (
{
name = "fut-v";
transform = "{1, 0, 0, 1, 22, 0}";
}
);
layerId = "BC735296-CD3A-4FA4-9AA9-EE2D747BC69E";
paths = (
{
closed = 1;
nodes = (
"569 650 LINE",
"461 650 LINE",
"159.851 339.855 LINE",
"502 0 LINE",
"611 0 LINE",
"235.28 368.279 LINE",
"234.703 315.67 LINE"
);
}
);
width = 631;
},
{
anchors = (
{
name = bottom;
position = "{514, 0}";
},
{
name = top;
position = "{554, 680}";
}
);
components = (
{
name = "fut-v";
transform = "{1, 0, 0, 1, 42, 0}";
}
);
layerId = "38E161BF-7670-40F4-B2BA-C78FC8454263";
paths = (
{
closed = 1;
nodes = (
"1126 640 LINE",
"770 640 LINE",
"317.702 339.855 LINE",
"808 0 LINE",
"1180 0 LINE",
"602.56 371.279 LINE",
"603.406 314.67 LINE"
);
}
);
width = 1215;
},
{
anchors = (
{
name = bottom;
position = "{384.875, 0}";
},
{
name = top;
position = "{384.875, 680}";
}
);
components = (
{
alignment = -1;
name = "fut-v";
transform = "{1, 0, 0, 1, 28.25, 0}";
}
);
layerId = "3FBA4204-9B78-4099-9F7B-502DDE19710D";
paths = (
{
closed = 1;
nodes = (
"743.062 646.875 LINE",
"554.438 646.875 LINE",
"209.179 339.855 LINE",
"596.562 0 LINE",
"788.812 0 LINE",
"353.18 371.279 LINE",
"353.735 314.67 LINE"
);
}
);
width = 813.5;
}
);
leftKerningGroup = I;
leftMetricsKey = H;
rightKerningGroup = K;
unicode = 004B;
},
{
glyphname = L;
lastChange = "2020-07-29 06:28:48 +0000";
layers = (
{
anchors = (
{
name = bottom;
position = "{330, 0}";
},
{
name = center;
position = "{280, 340}";
},
{
name = top;
position = "{119.457, 650}";
},
{
name = topright;
position = "{540, 680}";
}
);
components = (
{
name = "fut-v";
transform = "{1, 0, 0, 1, 22, 0}";
}
);
layerId = "BC735296-CD3A-4FA4-9AA9-EE2D747BC69E";
paths = (
{
closed = 1;
nodes = (
"153 -0.408 LINE",
"520 -0.408 LINE",
"520 74.592 LINE",
"153 74.592 LINE"
);
}
);
width = 570;
},
{
anchors = (
{
name = bottom;
position = "{522.8, 0}";
},
{
name = center;
position = "{422.8, 340}";
},
{
name = top;
position = "{195.997, 600}";
},
{
name = topright;
position = "{942.8, 680}";
}
);
background = {
components = (
{
name = E;
transform = "{1, 0, 0, 1, -2, 0}";
}
);
};
components = (
{
name = "fut-v";
transform = "{1, 0, 0, 1, 41.999, 0}";
}
);
layerId = "38E161BF-7670-40F4-B2BA-C78FC8454263";
paths = (
{
closed = 1;
nodes = (
"168.8 -0.408 LINE",
"902.8 -0.408 LINE",
"902.8 189.592 LINE",
"168.8 189.592 LINE"
);
}
);
width = 942.8;
},
{
anchors = (
{
name = bottom;
position = "{390.25, 0}";
},
{
name = center;
position = "{324.625, 340}";
},
{
name = top;
position = "{143.376, 634.375}";
},
{
name = topright;
position = "{665.875, 680}";
}
);
components = (
{
alignment = -1;
name = "fut-v";
transform = "{1, 0, 0, 1, 28.25, 0}";
}
);
layerId = "3FBA4204-9B78-4099-9F7B-502DDE19710D";
paths = (
{
closed = 1;
nodes = (
"157.938 -0.408 LINE",
"639.625 -0.408 LINE",
"639.625 110.529 LINE",
"157.938 110.529 LINE"
);
}
);
width = 686.5;
}
);
leftMetricsKey = H;
rightKerningGroup = L;
unicode = 004C;
},
{
glyphname = M;
lastChange = "2020-07-29 06:28:48 +0000";
layers = (
{
anchors = (
{
name = bottom;
position = "{440, 0}";
},
{
name = top;
position = "{440, 680}";
}
);
layerId = "BC735296-CD3A-4FA4-9AA9-EE2D747BC69E";
paths = (
{
closed = 1;
nodes = (
"400 0 LINE",
"479 0 LINE",
"160 650 LINE",
"94 604 LINE"
);
},
{
closed = 1;
nodes = (
"720 650 LINE",
"400 0 LINE",
"480 0 LINE",
"785 604 LINE"
);
},
{
closed = 1;
nodes = (
"720 0 LINE",
"800 0 LINE",
"800 650 LINE",
"720 650 LINE"
);
},
{
closed = 1;
nodes = (
"80 0 LINE",
"160 0 LINE",
"160 650 LINE",
"80 650 LINE"
);
}
);
width = 880;
},
{
anchors = (
{
name = bottom;
position = "{790, 0}";
},
{
name = top;
position = "{790, 640}";
}
);
layerId = "38E161BF-7670-40F4-B2BA-C78FC8454263";
paths = (
{
closed = 1;
nodes = (
"640 0 LINE",
"938 0 LINE",
"320 640 LINE",
"98 554 LINE"
);
},
{
closed = 1;
nodes = (
"1260 640 LINE",
"640 0 LINE",
"940 0 LINE",
"1480 554 LINE"
);
},
{
closed = 1;
nodes = (
"1260 0 LINE",
"1510 0 LINE",
"1510 640 LINE",
"1260 640 LINE"
);
},
{
closed = 1;
nodes = (
"70 0 LINE",
"320 0 LINE",
"320 640 LINE",
"70 640 LINE"
);
}
);
width = 1580;
},
{
anchors = (
{
name = bottom;
position = "{549.375, 0}";
},
{
name = top;
position = "{549.375, 667.5}";
}
);
layerId = "3FBA4204-9B78-4099-9F7B-502DDE19710D";
paths = (
{
closed = 1;
nodes = (
"475 0 LINE",
"622.438 0 LINE",
"210 646.875 LINE",
"95.25 588.375 LINE"
);
},
{
closed = 1;
nodes = (
"888.75 646.875 LINE",
"475 0 LINE",
"623.75 0 LINE",
"1002.188 588.375 LINE"
);
},
{
closed = 1;
nodes = (
"888.75 0 LINE",
"1021.875 0 LINE",
"1021.875 646.875 LINE",
"888.75 646.875 LINE"
);
},
{
closed = 1;
nodes = (
"76.875 0 LINE",
"210 0 LINE",
"210 646.875 LINE",
"76.875 646.875 LINE"
);
}
);
width = 1098.75;
}
);
leftKerningGroup = M;
leftMetricsKey = H;
rightKerningGroup = M;
rightMetricsKey = H;
unicode = 004D;
},
{
glyphname = N;
lastChange = "2020-07-29 06:28:48 +0000";
layers = (
{
anchors = (
{
name = bottom;
position = "{367, 0}";
},
{
name = top;
position = "{367, 650}";
}
);
background = {
components = (
{
name = H;
}
);
};
layerId = "BC735296-CD3A-4FA4-9AA9-EE2D747BC69E";
paths = (
{
closed = 1;
nodes = (
"560 0 LINE",
"619 46 LINE",
"160 650 LINE",
"100 604 LINE"
);
},
{
closed = 1;
nodes = (
"560 0 LINE",
"640 0 LINE",
"640 650 LINE",
"560 650 LINE"
);
},
{
closed = 1;
nodes = (
"80 0 LINE",
"160 0 LINE",
"160 650 LINE",
"80 650 LINE"
);
}
);
width = 720;
},
{
anchors = (
{
name = bottom;
position = "{649, 0}";
},
{
name = top;
position = "{649, 600}";
}
);
background = {
components = (
{
name = H;
transform = "{1, 0, 0, 1, -2.102, 0}";
}
);
};
layerId = "38E161BF-7670-40F4-B2BA-C78FC8454263";
paths = (
{
closed = 1;
nodes = (
"980 0 LINE",
"1174 137 LINE",
"320 640 LINE",
"126 494 LINE"
);
},
{
closed = 1;
nodes = (
"980 0 LINE",
"1230 0 LINE",
"1230 640 LINE",
"980 640 LINE"
);
},
{
closed = 1;
nodes = (
"70 0 LINE",
"320 0 LINE",
"320 640 LINE",
"70 640 LINE"
);
}
);
width = 1300;
},
{
anchors = (
{
name = bottom;
position = "{459.812, 0}";
},
{
name = top;
position = "{456.688, 634.375}";
}
);
layerId = "3FBA4204-9B78-4099-9F7B-502DDE19710D";
paths = (
{
closed = 1;
nodes = (
"691.25 0 LINE",
"792.438 74.438 LINE",
"210 646.875 LINE",
"108.125 569.625 LINE"
);
},
{
closed = 1;
nodes = (
"691.25 0 LINE",
"824.375 0 LINE",
"824.375 646.875 LINE",
"691.25 646.875 LINE"
);
},
{
closed = 1;
nodes = (
"76.875 0 LINE",
"210 0 LINE",
"210 646.875 LINE",
"76.875 646.875 LINE"
);
}
);
width = 901.25;
}
);
leftMetricsKey = H;
rightMetricsKey = H;
unicode = 004E;
},
{
glyphname = Eng;
lastChange = "2020-07-29 06:28:48 +0000";
layers = (
{
components = (
{
name = N;
}
);
layerId = "BC735296-CD3A-4FA4-9AA9-EE2D747BC69E";
paths = (
{
closed = 1;
nodes = (
"560 0 LINE",
"640 -20 LINE",
"640 84 LINE",
"560 84 LINE"
);
},
{
closed = 1;
nodes = (
"540 -210 OFFCURVE",
"640 -150 OFFCURVE",
"640 -20 CURVE",
"560 0 LINE",
"560 -110 OFFCURVE",
"500 -130 OFFCURVE",
"440 -130 CURVE",
"440 -210 LINE"
);
}
);
width = 720;
},
{
components = (
{
name = N;
}
);
layerId = "38E161BF-7670-40F4-B2BA-C78FC8454263";
paths = (
{
closed = 1;
nodes = (
"980 0 LINE",
"1230 -60 LINE",
"1230 84 LINE",
"980 84 LINE"
);
},
{
closed = 1;
nodes = (
"979.098 -210 OFFCURVE",
"1230 -240.737 OFFCURVE",
"1230 -60 CURVE",
"980 0 LINE",
"980 -30 OFFCURVE",
"920 -40 OFFCURVE",
"840 -40 CURVE",
"840 -210 LINE"
);
}
);
width = 1300;
},
{
components = (
{
alignment = -1;
name = N;
}
);
layerId = "3FBA4204-9B78-4099-9F7B-502DDE19710D";
paths = (
{
closed = 1;
nodes = (
"691.25 0 LINE",
"824.375 -32.5 LINE",
"824.375 84 LINE",
"691.25 84 LINE"
);
},
{
closed = 1;
nodes = (
"677.218 -210 OFFCURVE",
"824.375 -178.355 OFFCURVE",
"824.375 -32.5 CURVE",
"691.25 0 LINE",
"691.25 -85 OFFCURVE",
"631.25 -101.875 OFFCURVE",
"565 -101.875 CURVE",
"565 -210 LINE"
);
}
);
width = 901.25;
}
);
leftMetricsKey = N;
rightMetricsKey = N;
unicode = 014A;
},
{
glyphname = O;
lastChange = "2020-07-29 06:28:48 +0000";
layers = (
{
anchors = (
{
name = bottom;
position = "{370, 0}";
},
{
name = center;
position = "{370, 340}";
},
{
name = ogonek;
position = "{666, 10}";
},
{
name = top;
position = "{370, 650}";
},
{
name = topleft;
position = "{20, 680}";
},
{
name = topright;
position = "{720, 680}";
}
);
layerId = "BC735296-CD3A-4FA4-9AA9-EE2D747BC69E";
paths = (
{
closed = 1;
nodes = (
"548 -10 OFFCURVE",
"690 121 OFFCURVE",
"690 325 CURVE SMOOTH",
"690 529 OFFCURVE",
"548 660 OFFCURVE",
"370 660 CURVE SMOOTH",
"192 660 OFFCURVE",
"50 529 OFFCURVE",
"50 325 CURVE SMOOTH",
"50 121 OFFCURVE",
"192 -10 OFFCURVE",
"370 -10 CURVE SMOOTH"
);
},
{
closed = 1;
nodes = (
"235 65 OFFCURVE",
"130 155 OFFCURVE",
"130 325 CURVE SMOOTH",
"130 494 OFFCURVE",
"235 585 OFFCURVE",
"370 585 CURVE SMOOTH",
"505 585 OFFCURVE",
"610 494 OFFCURVE",
"610 325 CURVE SMOOTH",
"610 155 OFFCURVE",
"505 65 OFFCURVE",
"370 65 CURVE SMOOTH"
);
}
);
width = 740;
},
{
anchors = (
{
name = bottom;
position = "{665, 0}";
},
{
name = center;
position = "{665, 320}";
},
{
name = ogonek;
position = "{1252, 10}";
},
{
name = top;
position = "{665, 610}";
},
{
name = topleft;
position = "{-40, 680}";
},
{
name = topright;
position = "{1360, 680}";
}
);
background = {
components = (
{
name = o;
transform = "{1.2919, 0, 0, 1.2919, 9.928, -2.078}";
}
);
};
layerId = "38E161BF-7670-40F4-B2BA-C78FC8454263";
paths = (
{
closed = 1;
nodes = (
"1101 -20 OFFCURVE",
"1270 96 OFFCURVE",
"1270 320 CURVE SMOOTH",
"1270 544 OFFCURVE",
"1101 660 OFFCURVE",
"665 660 CURVE SMOOTH",
"229 660 OFFCURVE",
"60 544 OFFCURVE",
"60 320 CURVE SMOOTH",
"60 96 OFFCURVE",
"229 -20 OFFCURVE",
"665 -20 CURVE SMOOTH"
);
},
{
closed = 1;
nodes = (
"459 170 OFFCURVE",
"320 200 OFFCURVE",
"320 320 CURVE SMOOTH",
"320 440 OFFCURVE",
"459 470 OFFCURVE",
"665 470 CURVE SMOOTH",
"871 470 OFFCURVE",
"1000 440 OFFCURVE",
"1000 320 CURVE SMOOTH",
"1000 200 OFFCURVE",
"871 170 OFFCURVE",
"665 170 CURVE SMOOTH"
);
}
);
width = 1330;
},
{
anchors = (
{
name = bottom;
position = "{462.188, 0}";
},
{
name = center;
position = "{462.188, 333.75}";
},
{
name = ogonek;
position = "{849.125, 10}";
},
{
name = top;
position = "{462.188, 637.5}";
},
{
name = topleft;
position = "{1.25, 680}";
},
{
name = topright;
position = "{920, 680}";
}
);
layerId = "3FBA4204-9B78-4099-9F7B-502DDE19710D";
paths = (
{
closed = 1;
nodes = (
"720.812 -13.125 OFFCURVE",
"871.25 113.188 OFFCURVE",
"871.25 323.438 CURVE SMOOTH",
"871.25 533.688 OFFCURVE",
"720.812 660 OFFCURVE",
"462.188 660 CURVE SMOOTH",
"203.562 660 OFFCURVE",
"53.125 533.688 OFFCURVE",
"53.125 323.438 CURVE SMOOTH",
"53.125 113.188 OFFCURVE",
"203.562 -13.125 OFFCURVE",
"462.188 -13.125 CURVE SMOOTH"
);
},
{
closed = 1;
nodes = (
"303.375 102.312 OFFCURVE",
"189.375 173.562 OFFCURVE",
"189.375 323.438 CURVE SMOOTH",
"189.375 473.062 OFFCURVE",
"303.375 545 OFFCURVE",
"462.188 545 CURVE SMOOTH",
"621 545 OFFCURVE",
"731.875 473.062 OFFCURVE",
"731.875 323.438 CURVE SMOOTH",
"731.875 173.562 OFFCURVE",
"621 102.312 OFFCURVE",
"462.188 102.312 CURVE SMOOTH"
);
}
);
width = 924.375;
}
);
leftKerningGroup = O;
rightKerningGroup = O;
unicode = 004F;
},
{
glyphname = OE;
lastChange = "2020-07-29 06:28:48 +0000";
layers = (
{
components = (
{
name = O;
}
);
layerId = "BC735296-CD3A-4FA4-9AA9-EE2D747BC69E";
paths = (
{
closed = 1;
nodes = (
"446 76 LINE",
"446 0 LINE",
"906 0 LINE",
"906 76 LINE"
);
},
{
closed = 1;
nodes = (
"648 361 LINE",
"648 286 LINE",
"836 286 LINE",
"836 361 LINE"
);
},
{
closed = 1;
nodes = (
"446 650 LINE",
"446 574 LINE",
"905 574 LINE",
"905 650 LINE"
);
}
);
width = 966;
},
{
components = (
{
name = O;
}
);
layerId = "38E161BF-7670-40F4-B2BA-C78FC8454263";
paths = (
{
closed = 1;
nodes = (
"885.898 190 LINE",
"885.898 0 LINE",
"1901.898 0 LINE",
"1901.898 190 LINE"
);
},
{
closed = 1;
nodes = (
"1125.898 370 LINE",
"1125.898 270 LINE",
"1761.898 270 LINE",
"1761.898 370 LINE"
);
},
{
closed = 1;
nodes = (
"915.898 640 LINE",
"915.898 450 LINE",
"1899.898 450 LINE",
"1899.898 640 LINE"
);
}
);
width = 1961.9;
},
{
components = (
{
alignment = -1;
name = O;
}
);
layerId = "3FBA4204-9B78-4099-9F7B-502DDE19710D";
paths = (
{
closed = 1;
nodes = (
"583.468 111.625 LINE",
"583.468 0 LINE",
"1217.218 0 LINE",
"1217.218 111.625 LINE"
);
},
{
closed = 1;
nodes = (
"797.343 374.906 LINE",
"797.343 269.906 LINE",
"1125.343 269.906 LINE",
"1125.343 374.906 LINE"
);
},
{
closed = 1;
nodes = (
"592.843 646.875 LINE",
"592.843 535.25 LINE",
"1215.906 535.25 LINE",
"1215.906 646.875 LINE"
);
}
);
width = 1277.21875;
}
);
leftKerningGroup = O;
leftMetricsKey = O;
rightMetricsKey = E;
unicode = 0152;
},
{
glyphname = P;
lastChange = "2020-07-29 06:28:48 +0000";
layers = (
{
anchors = (
{
name = bottom;
position = "{296, 0}";
},
{
name = top;
position = "{296, 680}";
}
);
background = {
components = (
{
name = R;
}
);
};
components = (
{
name = "fut-v";
transform = "{1, 0, 0, 1, 20, 0}";
}
);
layerId = "BC735296-CD3A-4FA4-9AA9-EE2D747BC69E";
paths = (
{
closed = 1;
nodes = (
"426 575 OFFCURVE",
"481 523 OFFCURVE",
"481 440 CURVE SMOOTH",
"481 360 OFFCURVE",
"426 305 OFFCURVE",
"346 305 CURVE",
"346 230 LINE",
"466 230 OFFCURVE",
"561 307 OFFCURVE",
"561 440 CURVE SMOOTH",
"561 573 OFFCURVE",
"466 650 OFFCURVE",
"346 650 CURVE",
"346 575 LINE"
);
},
{
closed = 1;
nodes = (
"156 575 LINE",
"346 575 LINE",
"346 650 LINE",
"156 650 LINE"
);
},
{
closed = 1;
nodes = (
"156 230 LINE",
"346 230 LINE",
"346 305 LINE",
"156 305 LINE"
);
}
);
width = 606;
},
{
anchors = (
{
name = bottom;
position = "{592, 0}";
},
{
name = top;
position = "{592, 680}";
}
);
background = {
components = (
{
name = R;
}
);
};
components = (
{
name = "fut-v";
transform = "{1, 0, 0, 1, 40, 0}";
}
);
layerId = "38E161BF-7670-40F4-B2BA-C78FC8454263";
paths = (
{
closed = 1;
nodes = (
"841 440 OFFCURVE",
"872 432 OFFCURVE",
"872 390 CURVE SMOOTH",
"872 348 OFFCURVE",
"841 340 OFFCURVE",
"801 340 CURVE",
"762 165 LINE",
"962 165 OFFCURVE",
"1122 185 OFFCURVE",
"1122 390 CURVE SMOOTH",
"1122 595 OFFCURVE",
"962 640 OFFCURVE",
"762 640 CURVE",
"801 440 LINE"
);
},
{
closed = 1;
nodes = (
"312 440 LINE",
"801 440 LINE",
"762 640 LINE",
"312 640 LINE"
);
},
{
closed = 1;
nodes = (
"312 165 LINE",
"762 165 LINE",
"801 340 LINE",
"312 340 LINE"
);
}
);
width = 1177;
},
{
anchors = (
{
name = bottom;
position = "{388.5, 0}";
},
{
name = top;
position = "{388.5, 680}";
}
);
components = (
{
alignment = -1;
name = "fut-v";
transform = "{1, 0, 0, 1, 26.25, 0}";
}
);
layerId = "3FBA4204-9B78-4099-9F7B-502DDE19710D";
paths = (
{
closed = 1;
nodes = (
"557.688 532.812 OFFCURVE",
"603.188 494.562 OFFCURVE",
"603.188 424.375 CURVE SMOOTH",
"603.188 356.25 OFFCURVE",
"557.688 315.938 OFFCURVE",
"488.188 315.938 CURVE",
"476 209.688 LINE",
"621 209.688 OFFCURVE",
"736.312 268.875 OFFCURVE",
"736.312 424.375 CURVE SMOOTH",
"736.312 579.875 OFFCURVE",
"621 646.875 OFFCURVE",
"476 646.875 CURVE",
"488.188 532.812 LINE"
);
},
{
closed = 1;
nodes = (
"204.75 532.812 LINE",
"488.188 532.812 LINE",
"476 646.875 LINE",
"204.75 646.875 LINE"
);
},
{
closed = 1;
nodes = (
"204.75 209.688 LINE",
"476 209.688 LINE",
"488.188 315.938 LINE",
"204.75 315.938 LINE"
);
}
);
width = 784.4375;
}
);
rightKerningGroup = P;
rightMetricsKey = "=O-5";
unicode = 0050;
},
{
glyphname = Thorn;
lastChange = "2020-07-29 06:28:48 +0000";
layers = (
{
anchors = (
{
name = bottom;
position = "{296, 0}";
},
{
name = top;
position = "{296, 680}";
}
);
components = (
{
name = "fut-v";
transform = "{1, 0, 0, 1, 20, 0}";
}
);
layerId = "BC735296-CD3A-4FA4-9AA9-EE2D747BC69E";
paths = (
{
closed = 1;
nodes = (
"156 535 LINE",
"156 460 LINE",
"346 460 LINE SMOOTH",
"426 460 OFFCURVE",
"481 408 OFFCURVE",
"481 325 CURVE SMOOTH",
"481 245 OFFCURVE",
"426 190 OFFCURVE",
"346 190 CURVE SMOOTH",
"156 190 LINE",
"156 115 LINE",
"346 115 LINE SMOOTH",
"466 115 OFFCURVE",
"561 192 OFFCURVE",
"561 325 CURVE SMOOTH",
"561 458 OFFCURVE",
"466 535 OFFCURVE",
"346 535 CURVE SMOOTH"
);
}
);
width = 606;
},
{
anchors = (
{
name = bottom;
position = "{316, 0}";
},
{
name = top;
position = "{316, 680}";
}
);
components = (
{
name = "fut-v";
transform = "{1, 0, 0, 1, 40, 0}";
}
);
layerId = "38E161BF-7670-40F4-B2BA-C78FC8454263";
paths = (
{
closed = 1;
nodes = (
"232 550 LINE",
"232 370 LINE",
"721 370 LINE SMOOTH",
"761 370 OFFCURVE",
"792 362 OFFCURVE",
"792 320 CURVE SMOOTH",
"792 278 OFFCURVE",
"761 270 OFFCURVE",
"721 270 CURVE SMOOTH",
"232 270 LINE",
"232 90 LINE",
"682 90 LINE SMOOTH",
"882 90 OFFCURVE",
"1042 115 OFFCURVE",
"1042 320 CURVE SMOOTH",
"1042 525 OFFCURVE",
"882 550 OFFCURVE",
"682 550 CURVE SMOOTH"
);
}
);
width = 1097;
},
{
anchors = (
{
name = bottom;
position = "{302.25, 0}";
},
{
name = top;
position = "{302.25, 680}";
}
);
components = (
{
alignment = -1;
name = "fut-v";
transform = "{1, 0, 0, 1, 26.25, 0}";
}
);
layerId = "3FBA4204-9B78-4099-9F7B-502DDE19710D";
paths = (
{
closed = 1;
nodes = (
"179.75 539.688 LINE",
"179.75 431.875 LINE",
"463.188 431.875 LINE SMOOTH",
"530.688 431.875 OFFCURVE",
"578.188 393.625 OFFCURVE",
"578.188 323.438 CURVE SMOOTH",
"578.188 255.312 OFFCURVE",
"530.688 215 OFFCURVE",
"463.188 215 CURVE SMOOTH",
"179.75 215 LINE",
"179.75 107.188 LINE",
"451 107.188 LINE SMOOTH",
"596 107.188 OFFCURVE",
"711.312 167.938 OFFCURVE",
"711.312 323.438 CURVE SMOOTH",
"711.312 478.938 OFFCURVE",
"596 539.688 OFFCURVE",
"451 539.688 CURVE SMOOTH"
);
}
);
width = 759.4375;
}
);
leftMetricsKey = P;
rightMetricsKey = P;
unicode = 00DE;
},
{
glyphname = Q;
lastChange = "2020-07-29 06:28:48 +0000";
layers = (
{
anchors = (
{
name = bottom;
position = "{370, 0}";
},
{
name = top;
position = "{370, 680}";
}
);
components = (
{
name = O;
}
);
layerId = "BC735296-CD3A-4FA4-9AA9-EE2D747BC69E";
paths = (
{
closed = 1;
nodes = (
"330 -199.946 LINE",
"410 -199.946 LINE",
"410 43.407 LINE",
"330 43.407 LINE"
);
}
);
width = 740;
},
{
anchors = (
{
name = bottom;
position = "{665, 0}";
},
{
name = top;
position = "{665, 680}";
}
);
components = (
{
name = O;
}
);
layerId = "38E161BF-7670-40F4-B2BA-C78FC8454263";
paths = (
{
closed = 1;
nodes = (
"545 -199.946 LINE",
"785 -199.946 LINE",
"785 43.407 LINE",
"545 43.407 LINE"
);
}
);
width = 1330;
},
{
anchors = (
{
name = bottom;
position = "{462.188, 0}";
},
{
name = top;
position = "{462.188, 680}";
}
);
components = (
{
alignment = -1;
name = O;
}
);
layerId = "3FBA4204-9B78-4099-9F7B-502DDE19710D";
paths = (
{
closed = 1;
nodes = (
"397.188 -199.946 LINE",
"527.188 -199.946 LINE",
"527.188 43.407 LINE",
"397.188 43.407 LINE"
);
}
);
width = 924.375;
}
);
leftKerningGroup = O;
leftMetricsKey = O;
rightKerningGroup = O;
rightMetricsKey = O;
unicode = 0051;
},
{
glyphname = R;
lastChange = "2020-07-29 06:28:48 +0000";
layers = (
{
anchors = (
{
name = bottom;
position = "{319, 0}";
},
{
name = top;
position = "{319, 650}";
}
);
background = {
components = (
{
name = B;
transform = "{1, 0, 0, 1, 2, 0}";
}
);
};
components = (
{
name = "fut-v";
transform = "{1, 0, 0, 1, 22, 0}";
}
);
layerId = "BC735296-CD3A-4FA4-9AA9-EE2D747BC69E";
paths = (
{
closed = 1;
nodes = (
"457.701 575 OFFCURVE",
"502.02 535 OFFCURVE",
"502.02 465 CURVE SMOOTH",
"502.02 392 OFFCURVE",
"458 341 OFFCURVE",
"367 341 CURVE",
"367 295 LINE",
"487 295 OFFCURVE",
"582 342 OFFCURVE",
"582 465 CURVE SMOOTH",
"582 588 OFFCURVE",
"502 650 OFFCURVE",
"367 650 CURVE",
"367 575 LINE"
);
},
{
closed = 1;
nodes = (
"158 575 LINE",
"367 575 LINE",
"367 650 LINE",
"158 650 LINE"
);
},
{
closed = 1;
nodes = (
"158 266 LINE",
"367 266 LINE",
"367 341 LINE",
"158 341 LINE"
);
},
{
closed = 1;
nodes = (
"457 266 OFFCURVE",
"492.312 242 OFFCURVE",
"492.312 162 CURVE SMOOTH",
"492.312 0 LINE",
"572 0 LINE",
"572 162 LINE SMOOTH",
"572 295 OFFCURVE",
"482 302 OFFCURVE",
"347 302 CURVE",
"347 266 LINE"
);
}
);
width = 642;
},
{
anchors = (
{
name = bottom;
position = "{589, -15}";
},
{
name = top;
position = "{589, 600}";
}
);
components = (
{
name = "fut-v";
transform = "{1, 0, 0, 1, 42, 0}";
}
);
layerId = "38E161BF-7670-40F4-B2BA-C78FC8454263";
paths = (
{
closed = 1;
nodes = (
"883 440 OFFCURVE",
"914 430 OFFCURVE",
"914 395 CURVE SMOOTH",
"914 357 OFFCURVE",
"883 347 OFFCURVE",
"843 347 CURVE",
"804 230 LINE",
"974 230 OFFCURVE",
"1164 231 OFFCURVE",
"1164 420 CURVE SMOOTH",
"1164 585 OFFCURVE",
"1024 640 OFFCURVE",
"843 640 CURVE",
"843 440 LINE"
);
},
{
closed = 1;
nodes = (
"314 440 LINE",
"843 440 LINE",
"843 640 LINE",
"314 640 LINE"
);
},
{
closed = 1;
nodes = (
"314 180 LINE",
"804 180 LINE",
"843 347 LINE",
"314 347 LINE"
);
},
{
closed = 1;
nodes = (
"871 180 OFFCURVE",
"891.309 167.003 OFFCURVE",
"891.309 107 CURVE SMOOTH",
"891.309 0 LINE",
"1141.309 0 LINE",
"1141.309 137 LINE SMOOTH",
"1141.309 230 OFFCURVE",
"1071 247 OFFCURVE",
"801 247 CURVE",
"711 180 LINE"
);
}
);
width = 1232;
},
{
anchors = (
{
name = bottom;
position = "{404.938, -4.688}";
},
{
name = top;
position = "{408.062, 634.375}";
}
);
components = (
{
alignment = -1;
name = "fut-v";
transform = "{1, 0, 0, 1, 28.25, 0}";
}
);
layerId = "3FBA4204-9B78-4099-9F7B-502DDE19710D";
paths = (
{
closed = 1;
nodes = (
"590.607 532.812 OFFCURVE",
"630.764 502.188 OFFCURVE",
"630.764 443.125 CURVE SMOOTH",
"630.764 381.062 OFFCURVE",
"590.812 342.875 OFFCURVE",
"515.75 342.875 CURVE",
"503.562 274.688 LINE",
"639.188 274.688 OFFCURVE",
"763.875 307.312 OFFCURVE",
"763.875 450.938 CURVE SMOOTH",
"763.875 587.062 OFFCURVE",
"665.125 646.875 OFFCURVE",
"515.75 646.875 CURVE",
"515.75 532.812 LINE"
);
},
{
closed = 1;
nodes = (
"206.75 532.812 LINE",
"515.75 532.812 LINE",
"515.75 646.875 LINE",
"206.75 646.875 LINE"
);
},
{
closed = 1;
nodes = (
"206.75 239.125 LINE",
"503.562 239.125 LINE",
"515.75 342.875 LINE",
"206.75 342.875 LINE"
);
},
{
closed = 1;
nodes = (
"586.375 239.125 OFFCURVE",
"616.999 218.563 OFFCURVE",
"616.999 144.812 CURVE SMOOTH",
"616.999 0 LINE",
"749.909 0 LINE",
"749.909 154.188 LINE SMOOTH",
"749.909 274.688 OFFCURVE",
"666.062 284.812 OFFCURVE",
"488.875 284.812 CURVE",
"460.75 239.125 LINE"
);
}
);
width = 826.375;
}
);
leftKerningGroup = I;
leftMetricsKey = H;
rightKerningGroup = R;
unicode = 0052;
},
{
glyphname = S;
lastChange = "2020-07-29 06:28:48 +0000";
layers = (
{
anchors = (
{
name = bottom;
position = "{271.71, 0}";
},
{
name = top;
position = "{263.71, 650}";
}
);
background = {
anchors = (
{
name = bottom;
position = "{298.23, -9.868}";
},
{
name = top;
position = "{274.977, 661.897}";
}
);
};
layerId = "BC735296-CD3A-4FA4-9AA9-EE2D747BC69E";
paths = (
{
closed = 1;
nodes = (
"23.574 159.649 OFFCURVE",
"71.527 -10.453 OFFCURVE",
"285.662 -10.453 CURVE SMOOTH",
"435.048 -10.453 OFFCURVE",
"500.746 74.353 OFFCURVE",
"500.746 168.073 CURVE SMOOTH",
"500.746 298.068 OFFCURVE",
"394.501 334.045 OFFCURVE",
"310.058 361.655 CURVE SMOOTH",
"178.064 404.812 OFFCURVE",
"138.069 429.668 OFFCURVE",
"138.069 487.751 CURVE SMOOTH",
"138.069 554.385 OFFCURVE",
"197.488 584.84 OFFCURVE",
"264.676 584.84 CURVE SMOOTH",
"346.188 584.84 OFFCURVE",
"401.35 546.489 OFFCURVE",
"404.346 452.164 CURVE",
"476.1 452.164 LINE",
"478.517 577.108 OFFCURVE",
"408.677 659.84 OFFCURVE",
"268.537 659.84 CURVE SMOOTH",
"133.896 659.84 OFFCURVE",
"58.069 577.255 OFFCURVE",
"58.069 486.666 CURVE SMOOTH",
"58.069 364.719 OFFCURVE",
"184.938 319.118 OFFCURVE",
"288.385 285.972 CURVE SMOOTH",
"370.383 259.699 OFFCURVE",
"420.746 236.952 OFFCURVE",
"420.746 172.018 CURVE SMOOTH",
"420.746 108.221 OFFCURVE",
"374.247 64.657 OFFCURVE",
"284.298 64.657 CURVE SMOOTH",
"179.754 64.657 OFFCURVE",
"112.725 127.136 OFFCURVE",
"107.757 210.784 CURVE",
"35.757 210.784 LINE"
);
}
);
width = 540.71;
},
{
anchors = (
{
name = bottom;
position = "{544.81, -15}";
},
{
name = top;
position = "{514.81, 610}";
}
);
background = {
components = (
{
name = E;
transform = "{1, 0, 0, 1, -5.19, 0}";
}
);
};
layerId = "38E161BF-7670-40F4-B2BA-C78FC8454263";
paths = (
{
closed = 1;
nodes = (
"34.997 75.59 OFFCURVE",
"226.771 -20.453 OFFCURVE",
"544.448 -20.453 CURVE SMOOTH",
"878.889 -20.453 OFFCURVE",
"1016.118 45.927 OFFCURVE",
"1016.118 197.7 CURVE SMOOTH",
"1016.118 315.978 OFFCURVE",
"910.192 369.697 OFFCURVE",
"623.615 369.697 CURVE SMOOTH",
"363.85 369.697 OFFCURVE",
"303.936 378.699 OFFCURVE",
"303.936 418.481 CURVE SMOOTH",
"303.936 455.548 OFFCURVE",
"370.077 471.075 OFFCURVE",
"509.448 471.075 CURVE SMOOTH",
"648.825 471.075 OFFCURVE",
"726.121 447.374 OFFCURVE",
"733.47 403.116 CURVE",
"992.49 403.116 LINE",
"992.49 570.201 OFFCURVE",
"824.575 660.668 OFFCURVE",
"519.448 660.668 CURVE SMOOTH",
"204.444 660.668 OFFCURVE",
"49.615 588.373 OFFCURVE",
"49.615 436.616 CURVE SMOOTH",
"49.615 319.597 OFFCURVE",
"165.354 269.697 OFFCURVE",
"431.773 269.697 CURVE SMOOTH",
"699.744 269.697 OFFCURVE",
"771.797 259.595 OFFCURVE",
"771.797 222.024 CURVE SMOOTH",
"771.797 181.602 OFFCURVE",
"724.194 169.706 OFFCURVE",
"574.446 169.706 CURVE SMOOTH",
"421.323 169.706 OFFCURVE",
"321.176 193.018 OFFCURVE",
"308.183 234.686 CURVE",
"34.997 234.686 LINE"
);
}
);
width = 1056.11;
},
{
anchors = (
{
name = bottom;
position = "{344.244, -4.688}";
},
{
name = top;
position = "{338.744, 637.5}";
}
);
layerId = "3FBA4204-9B78-4099-9F7B-502DDE19710D";
paths = (
{
closed = 1;
nodes = (
"26.084 133.38 OFFCURVE",
"125.856 -13.578 OFFCURVE",
"365.473 -13.578 CURVE SMOOTH",
"565.813 -13.578 OFFCURVE",
"653.865 62.032 OFFCURVE",
"653.865 180.457 CURVE SMOOTH",
"653.865 306.79 OFFCURVE",
"552.298 349.708 OFFCURVE",
"401.485 372.168 CURVE SMOOTH",
"237.142 396.643 OFFCURVE",
"190.155 414.678 OFFCURVE",
"190.155 464.042 CURVE SMOOTH",
"190.155 524.936 OFFCURVE",
"251.675 547.976 OFFCURVE",
"336.607 547.976 CURVE SMOOTH",
"429.327 547.976 OFFCURVE",
"496.406 514.891 OFFCURVE",
"500.762 436.837 CURVE",
"631.037 436.837 LINE",
"632.699 574.949 OFFCURVE",
"528.773 660.099 OFFCURVE",
"342.387 660.099 CURVE SMOOTH",
"156.195 660.099 OFFCURVE",
"55.68 582.792 OFFCURVE",
"55.68 468.963 CURVE SMOOTH",
"55.68 347.181 OFFCURVE",
"180.39 293.627 OFFCURVE",
"326.634 272.886 CURVE SMOOTH",
"466.166 253.097 OFFCURVE",
"522.514 241.028 OFFCURVE",
"522.514 187.645 CURVE SMOOTH",
"522.514 132.09 OFFCURVE",
"474.983 98.422 OFFCURVE",
"373.909 98.422 CURVE SMOOTH",
"261.059 98.422 OFFCURVE",
"176.806 148.661 OFFCURVE",
"169.33 218.253 CURVE",
"34.46 218.253 LINE"
);
}
);
width = 693.8375;
}
);
unicode = 0053;
},
{
glyphname = T;
lastChange = "2020-07-29 06:28:48 +0000";
layers = (
{
anchors = (
{
name = bottom;
position = "{275, 0}";
},
{
name = center;
position = "{275, 340}";
},
{
name = top;
position = "{275, 650}";
}
);
components = (
{
name = "fut-v";
transform = "{1, 0, 0, 1, 177, 0}";
}
);
layerId = "BC735296-CD3A-4FA4-9AA9-EE2D747BC69E";
paths = (
{
closed = 1;
nodes = (
"15 575 LINE",
"535 575 LINE",
"535 650 LINE",
"15 650 LINE"
);
}
);
width = 550;
},
{
anchors = (
{
name = bottom;
position = "{550, 0}";
},
{
name = center;
position = "{550, 340}";
},
{
name = top;
position = "{550, 600}";
}
);
components = (
{
name = "fut-v";
transform = "{1, 0, 0, 1, 397, 0}";
}
);
layerId = "38E161BF-7670-40F4-B2BA-C78FC8454263";
paths = (
{
closed = 1;
nodes = (
"30 450 LINE",
"1070 450 LINE",
"1070 640 LINE",
"30 640 LINE"
);
}
);
width = 1100;
},
{
anchors = (
{
name = bottom;
position = "{360.938, 0}";
},
{
name = center;
position = "{360.938, 340}";
},
{
name = top;
position = "{360.938, 634.375}";
}
);
components = (
{
alignment = -1;
name = "fut-v";
transform = "{1, 0, 0, 1, 245.75, 0}";
}
);
layerId = "3FBA4204-9B78-4099-9F7B-502DDE19710D";
paths = (
{
closed = 1;
nodes = (
"19.688 535.938 LINE",
"702.188 535.938 LINE",
"702.188 646.875 LINE",
"19.688 646.875 LINE"
);
}
);
width = 721.875;
}
);
leftKerningGroup = T;
rightKerningGroup = T;
unicode = 0054;
},
{
glyphname = Tbar;
lastChange = "2020-07-29 06:28:48 +0000";
layers = (
{
components = (
{
name = T;
}
);
layerId = "BC735296-CD3A-4FA4-9AA9-EE2D747BC69E";
paths = (
{
closed = 1;
nodes = (
"15 287 LINE",
"535 287 LINE",
"535 362 LINE",
"15 362 LINE"
);
}
);
width = 550;
},
{
components = (
{
name = T;
}
);
layerId = "38E161BF-7670-40F4-B2BA-C78FC8454263";
paths = (
{
closed = 1;
nodes = (
"30 283 LINE",
"1069.821 283 LINE",
"1069.821 358 LINE",
"30 358 LINE"
);
}
);
width = 1100;
},
{
components = (
{
alignment = -1;
name = T;
}
);
layerId = "3FBA4204-9B78-4099-9F7B-502DDE19710D";
paths = (
{
closed = 1;
nodes = (
"19.688 285.75 LINE",
"702.131 285.75 LINE",
"702.131 360.75 LINE",
"19.688 360.75 LINE"
);
}
);
width = 721.875;
}
);
leftMetricsKey = T;
rightMetricsKey = T;
unicode = 0166;
},
{
glyphname = U;
lastChange = "2020-07-29 06:28:48 +0000";
layers = (
{
anchors = (
{
name = bottom;
position = "{347, 0}";
},
{
name = ogonek;
position = "{570, 0}";
},
{
name = top;
position = "{349, 650}";
},
{
name = topright;
position = "{648, 680}";
}
);
background = {
components = (
{
name = H;
transform = "{1, 0, 0, 1, -10, 0}";
}
);
};
layerId = "BC735296-CD3A-4FA4-9AA9-EE2D747BC69E";
paths = (
{
closed = 1;
nodes = (
"535 250 LINE",
"535 100 OFFCURVE",
"448 65 OFFCURVE",
"349 65 CURVE SMOOTH",
"247 65 OFFCURVE",
"160 100 OFFCURVE",
"160 250 CURVE",
"80 250 LINE",
"80 66 OFFCURVE",
"192 -10 OFFCURVE",
"349 -10 CURVE SMOOTH",
"503 -10 OFFCURVE",
"615 66 OFFCURVE",
"615 250 CURVE"
);
},
{
closed = 1;
nodes = (
"535 250 LINE",
"615 250 LINE",
"615 650 LINE",
"535 650 LINE"
);
},
{
closed = 1;
nodes = (
"80 250 LINE",
"160 250 LINE",
"160 650 LINE",
"80 650 LINE"
);
}
);
width = 695;
},
{
anchors = (
{
name = bottom;
position = "{644.55, -15}";
},
{
name = ogonek;
position = "{1100, -15}";
},
{
name = top;
position = "{645, 600}";
},
{
name = topright;
position = "{1226, 680}";
}
);
background = {
components = (
{
name = O;
transform = "{1, 0, 0, 1, -25, 0}";
}
);
};
layerId = "38E161BF-7670-40F4-B2BA-C78FC8454263";
paths = (
{
closed = 1;
nodes = (
"969 365 LINE",
"969 205 OFFCURVE",
"843 170 OFFCURVE",
"645 170 CURVE SMOOTH",
"441 170 OFFCURVE",
"320 205 OFFCURVE",
"320 365 CURVE",
"70 320 LINE",
"70 36 OFFCURVE",
"341 -20 OFFCURVE",
"645 -20 CURVE SMOOTH",
"932 -20 OFFCURVE",
"1219 36 OFFCURVE",
"1219 320 CURVE"
);
},
{
closed = 1;
nodes = (
"969 365 LINE",
"1219 320 LINE",
"1219 640 LINE",
"969 640 LINE"
);
},
{
closed = 1;
nodes = (
"70 320 LINE",
"320 365 LINE",
"320 640 LINE",
"70 640 LINE"
);
}
);
width = 1289;
},
{
anchors = (
{
name = bottom;
position = "{439.984, -4.688}";
},
{
name = ogonek;
position = "{735.625, -4.688}";
},
{
name = top;
position = "{441.5, 634.375}";
},
{
name = topright;
position = "{828.625, 680}";
}
);
layerId = "3FBA4204-9B78-4099-9F7B-502DDE19710D";
paths = (
{
closed = 1;
nodes = (
"670.625 285.938 LINE",
"670.625 133.812 OFFCURVE",
"571.438 101.938 OFFCURVE",
"441.5 101.938 CURVE SMOOTH",
"307.625 101.938 OFFCURVE",
"210 133.812 OFFCURVE",
"210 285.938 CURVE",
"76.875 271.875 LINE",
"76.875 56.625 OFFCURVE",
"238.562 -13.125 OFFCURVE",
"441.5 -13.125 CURVE SMOOTH",
"637.062 -13.125 OFFCURVE",
"803.75 56.625 OFFCURVE",
"803.75 271.875 CURVE"
);
},
{
closed = 1;
nodes = (
"670.625 285.938 LINE",
"803.75 271.875 LINE",
"803.75 646.875 LINE",
"670.625 646.875 LINE"
);
},
{
closed = 1;
nodes = (
"76.875 271.875 LINE",
"210 285.938 LINE",
"210 646.875 LINE",
"76.875 646.875 LINE"
);
}
);
width = 880.625;
}
);
leftMetricsKey = H;
rightMetricsKey = H;
unicode = 0055;
},
{
glyphname = V;
lastChange = "2020-07-29 06:28:48 +0000";
layers = (
{
anchors = (
{
name = bottom;
position = "{300, 0}";
},
{
name = top;
position = "{300, 680}";
}
);
layerId = "BC735296-CD3A-4FA4-9AA9-EE2D747BC69E";
paths = (
{
closed = 1;
nodes = (
"343 0 OFFCURVE",
"580 650 OFFCURVE",
"580 650 CURVE",
"496 650 LINE",
"496 650 OFFCURVE",
"280 56 OFFCURVE",
"280 56 CURVE",
"276 45 LINE",
"259 0 LINE",
"343 0 LINE"
);
},
{
closed = 1;
nodes = (
"343 0 LINE",
"327 42 LINE",
"322 56 LINE",
"106 650 LINE",
"20 650 LINE",
"259 0 LINE"
);
}
);
width = 600;
},
{
anchors = (
{
name = bottom;
position = "{580, 0}";
},
{
name = top;
position = "{580, 680}";
}
);
background = {
components = (
{
name = A;
transform = "{1, 0, 0, -1, 0, 640}";
}
);
};
layerId = "38E161BF-7670-40F4-B2BA-C78FC8454263";
paths = (
{
closed = 1;
nodes = (
"756 0 OFFCURVE",
"1140 640 OFFCURVE",
"1140 640 CURVE",
"862 640 LINE",
"862 640 OFFCURVE",
"550 61 OFFCURVE",
"550 61 CURVE",
"532 50 LINE",
"408 0 LINE",
"756 0 LINE"
);
},
{
closed = 1;
nodes = (
"756 0 LINE",
"634 47 LINE",
"614 61 LINE",
"302 640 LINE",
"20 640 LINE",
"408 0 LINE"
);
}
);
width = 1160;
},
{
anchors = (
{
name = bottom;
position = "{387.5, 0}";
},
{
name = top;
position = "{387.5, 680}";
}
);
layerId = "3FBA4204-9B78-4099-9F7B-502DDE19710D";
paths = (
{
closed = 1;
nodes = (
"472.062 0 OFFCURVE",
"755 646.875 OFFCURVE",
"755 646.875 CURVE",
"610.375 646.875 LINE",
"610.375 646.875 OFFCURVE",
"364.375 57.562 OFFCURVE",
"364.375 57.562 CURVE",
"356 46.562 LINE",
"305.562 0 LINE",
"472.062 0 LINE"
);
},
{
closed = 1;
nodes = (
"472.062 0 LINE",
"422.938 43.562 LINE",
"413.25 57.562 LINE",
"167.25 646.875 LINE",
"20 646.875 LINE",
"305.562 0 LINE"
);
}
);
width = 775;
}
);
leftKerningGroup = V;
rightKerningGroup = V;
unicode = 0056;
},
{
glyphname = W;
lastChange = "2020-07-29 06:28:48 +0000";
layers = (
{
anchors = (
{
name = bottom;
position = "{450, 0}";
},
{
name = top;
position = "{520, 650}";
}
);
layerId = "BC735296-CD3A-4FA4-9AA9-EE2D747BC69E";
paths = (
{
closed = 1;
nodes = (
"1016 650 LINE",
"932 650 LINE",
"700 0 LINE",
"784 0 LINE"
);
},
{
closed = 1;
nodes = (
"784 0 LINE",
"562 650 LINE",
"486 650 LINE",
"700 0 LINE"
);
},
{
closed = 1;
nodes = (
"552 650 LINE",
"476 650 LINE",
"254 0 LINE",
"338 0 LINE"
);
},
{
closed = 1;
nodes = (
"338 0 LINE",
"106 650 LINE",
"20 650 LINE",
"254 0 LINE"
);
}
);
width = 1036;
},
{
anchors = (
{
name = bottom;
position = "{950.055, 0}";
},
{
name = top;
position = "{950.055, 650}";
}
);
background = {
components = (
{
name = V;
transform = "{1, 0, 0, 1, 812.195, 0}";
},
{
name = V;
transform = "{1, 0, 0, 1, -90, 0}";
}
);
};
layerId = "38E161BF-7670-40F4-B2BA-C78FC8454263";
paths = (
{
closed = 1;
nodes = (
"1862 640 LINE",
"1584 640 LINE",
"1260 0 LINE",
"1508 0 LINE"
);
},
{
closed = 1;
nodes = (
"1398 0 LINE",
"1094 640 LINE",
"842 640 LINE",
"1170 0 LINE"
);
},
{
closed = 1;
nodes = (
"1044 640 LINE",
"792 640 LINE",
"488 0 LINE",
"716 0 LINE"
);
},
{
closed = 1;
nodes = (
"626 0 LINE",
"302 640 LINE",
"20 640 LINE",
"378 0 LINE"
);
}
);
width = 1882;
},
{
anchors = (
{
name = bottom;
position = "{606.267, 0}";
},
{
name = top;
position = "{654.392, 650}";
}
);
layerId = "3FBA4204-9B78-4099-9F7B-502DDE19710D";
paths = (
{
closed = 1;
nodes = (
"1280.375 646.875 LINE",
"1135.75 646.875 LINE",
"875 0 LINE",
"1010.25 0 LINE"
);
},
{
closed = 1;
nodes = (
"975.875 0 LINE",
"728.25 646.875 LINE",
"597.25 646.875 LINE",
"846.875 0 LINE"
);
},
{
closed = 1;
nodes = (
"705.75 646.875 LINE",
"574.75 646.875 LINE",
"327.125 0 LINE",
"456.125 0 LINE"
);
},
{
closed = 1;
nodes = (
"428 0 LINE",
"167.25 646.875 LINE",
"20 646.875 LINE",
"292.75 0 LINE"
);
}
);
width = 1300.375;
}
);
leftKerningGroup = V;
leftMetricsKey = V;
rightKerningGroup = V;
rightMetricsKey = V;
unicode = 0057;
},
{
glyphname = X;
lastChange = "2020-07-29 06:28:48 +0000";
layers = (
{
anchors = (
{
name = bottom;
position = "{308, 0}";
},
{
name = top;
position = "{308, 680}";
}
);
layerId = "BC735296-CD3A-4FA4-9AA9-EE2D747BC69E";
paths = (
{
closed = 1;
nodes = (
"289 368 LINE",
"287 366 LINE",
"43 0 LINE",
"133 0 LINE",
"331 301 LINE",
"333 304 LINE",
"573 650 LINE",
"483 650 LINE"
);
},
{
closed = 1;
nodes = (
"53 650 LINE",
"282 305 LINE",
"284 303 LINE",
"473 0 LINE",
"573 0 LINE",
"330 367 LINE",
"329 369 LINE",
"143 650 LINE"
);
}
);
width = 616;
},
{
anchors = (
{
name = bottom;
position = "{560, 0}";
},
{
name = top;
position = "{560, 680}";
}
);
layerId = "38E161BF-7670-40F4-B2BA-C78FC8454263";
paths = (
{
closed = 1;
nodes = (
"507.272 400 LINE",
"499.923 393.532 LINE",
"30 0 LINE",
"350 0 LINE",
"639.805 251.673 LINE",
"649.528 260.116 LINE",
"1100 640 LINE",
"780 640 LINE"
);
},
{
closed = 1;
nodes = (
"40 640 LINE",
"483.905 264.504 LINE",
"487.606 261.29 LINE",
"790 0 LINE",
"1110 0 LINE",
"646.946 387.488 LINE",
"641.058 392.669 LINE",
"360 640 LINE"
);
}
);
width = 1140;
},
{
anchors = (
{
name = bottom;
position = "{386.75, 0}";
},
{
name = top;
position = "{386.75, 680}";
}
);
layerId = "3FBA4204-9B78-4099-9F7B-502DDE19710D";
paths = (
{
closed = 1;
nodes = (
"357.21 378 LINE",
"353.538 374.604 LINE",
"38.938 0 LINE",
"200.812 0 LINE",
"427.502 285.585 LINE",
"431.915 290.286 LINE",
"737.688 646.875 LINE",
"575.812 646.875 LINE"
);
},
{
closed = 1;
nodes = (
"48.938 646.875 LINE",
"345.095 292.345 LINE",
"347.627 289.966 LINE",
"572.062 0 LINE",
"740.812 0 LINE",
"429.046 373.403 LINE",
"426.518 376.397 LINE",
"210.812 646.875 LINE"
);
}
);
width = 779.75;
}
);
unicode = 0058;
},
{
glyphname = Y;
lastChange = "2020-07-29 06:28:48 +0000";
layers = (
{
anchors = (
{
name = bottom;
position = "{295, 0}";
},
{
name = top;
position = "{295, 650}";
},
{
name = topleft;
position = "{12, 680}";
}
);
layerId = "BC735296-CD3A-4FA4-9AA9-EE2D747BC69E";
paths = (
{
closed = 1;
nodes = (
"475 650 LINE",
"280.803 275.329 LINE",
"313.499 275.484 LINE",
"115 650 LINE",
"25 650 LINE",
"255 222.711 LINE",
"255 0 LINE",
"335 0 LINE",
"335 222.711 LINE",
"565 650 LINE"
);
}
);
width = 590;
},
{
anchors = (
{
name = bottom;
position = "{535, 0}";
},
{
name = top;
position = "{535, 600}";
},
{
name = topleft;
position = "{-31, 680}";
}
);
background = {
paths = (
{
closed = 1;
nodes = (
"790 640 LINE",
"443.606 225.329 LINE",
"628.998 225.484 LINE",
"280 640 LINE",
"-5 640 LINE",
"410 172.711 LINE",
"410 0 LINE",
"660 0 LINE",
"660 172.711 LINE",
"1075 640 LINE"
);
}
);
};
layerId = "38E161BF-7670-40F4-B2BA-C78FC8454263";
paths = (
{
closed = 1;
nodes = (
"770 640 LINE",
"443.606 225.329 LINE",
"628.998 225.484 LINE",
"300 640 LINE",
"5 640 LINE",
"410 162.711 LINE",
"410 0 LINE",
"660 0 LINE",
"660 162.711 LINE",
"1065 640 LINE"
);
}
);
width = 1070;
},
{
anchors = (
{
name = bottom;
position = "{370, 0}";
},
{
name = top;
position = "{370, 634.375}";
},
{
name = topleft;
position = "{-1.438, 680}";
}
);
layerId = "3FBA4204-9B78-4099-9F7B-502DDE19710D";
paths = (
{
closed = 1;
nodes = (
"567.188 646.875 LINE",
"331.679 259.704 LINE",
"412.092 259.859 LINE",
"172.812 646.875 LINE",
"18.75 646.875 LINE",
"303.438 203.961 LINE",
"303.438 0 LINE",
"436.562 0 LINE",
"436.562 203.961 LINE",
"721.25 646.875 LINE"
);
}
);
width = 740;
}
);
leftKerningGroup = Y;
rightKerningGroup = Y;
unicode = 0059;
},
{
glyphname = Z;
lastChange = "2020-07-29 06:28:48 +0000";
layers = (
{
anchors = (
{
name = bottom;
position = "{325, 0}";
},
{
name = top;
position = "{325, 650}";
}
);
layerId = "BC735296-CD3A-4FA4-9AA9-EE2D747BC69E";
paths = (
{
closed = 1;
nodes = (
"60 75 LINE",
"125 30 LINE",
"590 575 LINE",
"522 613 LINE"
);
},
{
closed = 1;
nodes = (
"60 75 LINE",
"60 0 LINE",
"590 0 LINE",
"590 75 LINE"
);
},
{
closed = 1;
nodes = (
"60 650 LINE",
"60 575 LINE",
"590 575 LINE",
"590 650 LINE"
);
}
);
width = 650;
},
{
anchors = (
{
name = bottom;
position = "{600, 0}";
},
{
name = top;
position = "{600, 650}";
}
);
background = {
components = (
{
name = E;
transform = "{1, 0, 0, 1, -40, 0}";
}
);
};
layerId = "38E161BF-7670-40F4-B2BA-C78FC8454263";
paths = (
{
closed = 1;
nodes = (
"70 190 LINE",
"140 40 LINE",
"1130 450 LINE",
"1024 583 LINE"
);
},
{
closed = 1;
nodes = (
"70 190 LINE",
"70 0 LINE",
"1130 0 LINE",
"1130 190 LINE"
);
},
{
closed = 1;
nodes = (
"70 640 LINE",
"70 450 LINE",
"1130 450 LINE",
"1130 640 LINE"
);
}
);
width = 1200;
},
{
anchors = (
{
name = bottom;
position = "{410.625, 0}";
},
{
name = top;
position = "{410.625, 650}";
}
);
layerId = "3FBA4204-9B78-4099-9F7B-502DDE19710D";
paths = (
{
closed = 1;
nodes = (
"62.812 110.938 LINE",
"129.375 33.125 LINE",
"758.438 535.938 LINE",
"678.562 603.625 LINE"
);
},
{
closed = 1;
nodes = (
"62.812 110.938 LINE",
"62.812 0 LINE",
"758.438 0 LINE",
"758.438 110.938 LINE"
);
},
{
closed = 1;
nodes = (
"62.812 646.875 LINE",
"62.812 535.938 LINE",
"758.438 535.938 LINE",
"758.438 646.875 LINE"
);
}
);
width = 821.25;
}
);
unicode = 005A;
},
{
glyphname = Uogonek.ss03;
lastChange = "2020-07-29 06:28:48 +0000";
layers = (
{
anchors = (
{
name = _ogonek;
position = "{427.677, 0}";
}
);
components = (
{
name = U;
}
);
layerId = "BC735296-CD3A-4FA4-9AA9-EE2D747BC69E";
paths = (
{
closed = 1;
nodes = (
"488.177 -160 LINE",
"423.177 -160 OFFCURVE",
"388.677 -130 OFFCURVE",
"388.677 -85 CURVE SMOOTH",
"388.677 -40 OFFCURVE",
"425.677 -10 OFFCURVE",
"467.677 9 CURVE",
"467.677 31 LINE",
"388.677 12 OFFCURVE",
"323.677 -21 OFFCURVE",
"323.677 -95 CURVE SMOOTH",
"323.677 -169 OFFCURVE",
"389.177 -215 OFFCURVE",
"488.177 -215 CURVE"
);
}
);
width = 695;
},
{
anchors = (
{
name = _ogonek;
position = "{751.343, -15}";
}
);
components = (
{
name = U;
}
);
layerId = "38E161BF-7670-40F4-B2BA-C78FC8454263";
paths = (
{
closed = 1;
nodes = (
"983.347 -157 LINE",
"893.347 -157 OFFCURVE",
"814.347 -135 OFFCURVE",
"814.347 -80 CURVE SMOOTH",
"814.347 -36 OFFCURVE",
"858.347 -15 OFFCURVE",
"942.347 10 CURVE",
"942.347 22 LINE",
"764.347 -3 OFFCURVE",
"634.347 -26 OFFCURVE",
"634.347 -120 CURVE SMOOTH",
"634.347 -204 OFFCURVE",
"765.347 -255 OFFCURVE",
"983.347 -255 CURVE"
);
}
);
width = 1289;
},
{
anchors = (
{
name = _ogonek;
position = "{528.822, -4.688}";
}
);
components = (
{
alignment = -1;
name = U;
}
);
layerId = "3FBA4204-9B78-4099-9F7B-502DDE19710D";
paths = (
{
closed = 1;
nodes = (
"642.917 -159.062 LINE",
"570.105 -159.062 OFFCURVE",
"521.699 -131.562 OFFCURVE",
"521.699 -83.438 CURVE SMOOTH",
"521.699 -38.75 OFFCURVE",
"560.886 -11.562 OFFCURVE",
"616.011 9.312 CURVE",
"616.011 28.188 LINE",
"506.074 7.312 OFFCURVE",
"420.761 -22.562 OFFCURVE",
"420.761 -102.812 CURVE SMOOTH",
"420.761 -179.938 OFFCURVE",
"506.73 -227.5 OFFCURVE",
"642.917 -227.5 CURVE"
);
}
);
width = 880.625;
}
);
leftMetricsKey = U;
rightMetricsKey = U;
},
{
glyphname = a;
lastChange = "2020-07-29 06:28:48 +0000";
layers = (
{
anchors = (
{
name = bottom;
position = "{185, -10}";
},
{
name = center;
position = "{269.043, 250}";
},
{
name = ogonek;
position = "{463.196, 0}";
},
{
name = top;
position = "{281, 510}";
},
{
name = topright;
position = "{564, 500}";
}
);
background = {
paths = (
{
closed = 1;
nodes = (
"313 67.779 OFFCURVE",
"187 65.779 OFFCURVE",
"187 65.779 CURVE SMOOTH",
"123.26 65.779 OFFCURVE",
"82 75.361 OFFCURVE",
"82 138.779 CURVE SMOOTH",
"82 189.779 OFFCURVE",
"132 213.779 OFFCURVE",
"197 213.779 CURVE",
"311 213.779 OFFCURVE",
"334 99.789 OFFCURVE",
"334 50.779 CURVE SMOOTH",
"334 33.779 OFFCURVE",
"332 65.779 OFFCURVE",
"332 67.779 CURVE"
);
},
{
closed = 1;
nodes = (
"67.086 66.547 LINE",
"224.52 66.547 LINE",
"224.52 432.939 LINE",
"67.086 432.939 LINE"
);
}
);
};
layerId = "BC735296-CD3A-4FA4-9AA9-EE2D747BC69E";
paths = (
{
closed = 1;
nodes = (
"400 -10 OFFCURVE",
"434 147.51 OFFCURVE",
"434 249 CURVE SMOOTH",
"434 391.628 OFFCURVE",
"403.656 510 OFFCURVE",
"264 510 CURVE SMOOTH",
"136 510 OFFCURVE",
"37 399 OFFCURVE",
"37 249 CURVE SMOOTH",
"37 98 OFFCURVE",
"136 -10 OFFCURVE",
"254 -10 CURVE SMOOTH"
);
},
{
closed = 1;
nodes = (
"183 66 OFFCURVE",
"117 142 OFFCURVE",
"117 249 CURVE SMOOTH",
"117 356 OFFCURVE",
"174 434 OFFCURVE",
"274 434 CURVE SMOOTH",
"374.366 434 OFFCURVE",
"424 359 OFFCURVE",
"424 249 CURVE SMOOTH",
"424 149 OFFCURVE",
"376 66 OFFCURVE",
"274 66 CURVE SMOOTH"
);
},
{
closed = 1;
nodes = (
"424 100 LINE",
"424 67 OFFCURVE",
"431 0 OFFCURVE",
"431 0 CURVE",
"504 0 LINE",
"504 500 LINE",
"424 500 LINE"
);
}
);
width = 569;
},
{
anchors = (
{
name = bottom;
position = "{236, -10}";
},
{
name = ogonek;
position = "{455, 0}";
},
{
name = top;
position = "{269, 510}";
}
);
associatedMasterId = "BC735296-CD3A-4FA4-9AA9-EE2D747BC69E";
background = {
paths = (
{
closed = 1;
nodes = (
"366 67.779 OFFCURVE",
"240 65.779 OFFCURVE",
"240 65.779 CURVE SMOOTH",
"176.26 65.779 OFFCURVE",
"135 75.361 OFFCURVE",
"135 138.779 CURVE SMOOTH",
"135 189.779 OFFCURVE",
"185 213.779 OFFCURVE",
"250 213.779 CURVE",
"364 213.779 OFFCURVE",
"387 99.789 OFFCURVE",
"387 50.779 CURVE SMOOTH",
"387 33.779 OFFCURVE",
"385 65.779 OFFCURVE",
"385 67.779 CURVE"
);
},
{
closed = 1;
nodes = (
"120.086 66.547 LINE",
"277.52 66.547 LINE",
"277.52 432.939 LINE",
"120.086 432.939 LINE"
);
}
);
};
layerId = "18F52023-00E8-42AC-8E13-AA4FFF5EF26E";
name = "Apr 26 17, 13:38";
paths = (
{
closed = 1;
nodes = (
"403 -10 OFFCURVE",
"437 147.51 OFFCURVE",
"437 209 CURVE SMOOTH",
"437 311.628 OFFCURVE",
"406.656 430 OFFCURVE",
"257 430 CURVE SMOOTH",
"129 430 OFFCURVE",
"60 319 OFFCURVE",
"60 209 CURVE SMOOTH",
"60 98 OFFCURVE",
"129 -10 OFFCURVE",
"257 -10 CURVE SMOOTH"
);
},
{
closed = 1;
nodes = (
"176 67 OFFCURVE",
"140 142 OFFCURVE",
"140 209 CURVE SMOOTH",
"140 276 OFFCURVE",
"167 353 OFFCURVE",
"277 353 CURVE SMOOTH",
"377.366 353 OFFCURVE",
"427 279 OFFCURVE",
"427 209 CURVE SMOOTH",
"427 149 OFFCURVE",
"379 67 OFFCURVE",
"277 67 CURVE SMOOTH"
);
},
{
closed = 1;
nodes = (
"427 100 LINE",
"427 67 OFFCURVE",
"434 0 OFFCURVE",
"434 0 CURVE",
"507 0 LINE",
"507 500 LINE",
"427 500 LINE"
);
},
{
closed = 1;
nodes = (
"77 419.867 LINE",
"507 419.867 LINE",
"507 499.867 LINE",
"77 499.867 LINE"
);
}
);
width = 587;
},
{
anchors = (
{
name = bottom;
position = "{188, -10}";
},
{
name = ogonek;
position = "{407, 0}";
},
{
name = top;
position = "{221, 510}";
}
);
associatedMasterId = "BC735296-CD3A-4FA4-9AA9-EE2D747BC69E";
background = {
paths = (
{
closed = 1;
nodes = (
"318 67.779 OFFCURVE",
"192 65.779 OFFCURVE",
"192 65.779 CURVE SMOOTH",
"128.26 65.779 OFFCURVE",
"87 75.361 OFFCURVE",
"87 138.779 CURVE SMOOTH",
"87 189.779 OFFCURVE",
"137 213.779 OFFCURVE",
"202 213.779 CURVE",
"316 213.779 OFFCURVE",
"339 99.789 OFFCURVE",
"339 50.779 CURVE SMOOTH",
"339 33.779 OFFCURVE",
"337 65.779 OFFCURVE",
"337 67.779 CURVE"
);
},
{
closed = 1;
nodes = (
"72.086 66.547 LINE",
"229.52 66.547 LINE",
"229.52 432.939 LINE",
"72.086 432.939 LINE"
);
}
);
};
layerId = "5D02BBA1-0EB3-41C2-9B80-C4549D2977FC";
name = "May 4 17, 10:59";
paths = (
{
closed = 1;
nodes = (
"379 100 LINE",
"379 67 OFFCURVE",
"386 0 OFFCURVE",
"386 0 CURVE",
"459 0 LINE",
"459 500 LINE",
"379 500 LINE"
);
},
{
closed = 1;
nodes = (
"89 419.867 LINE",
"459 419.867 LINE",
"459 499.867 LINE",
"89 499.867 LINE"
);
},
{
closed = 1;
nodes = (
"400.035 232.084 LINE",
"412.639 310.084 LINE",
"223.714 310.084 LINE",
"138.969 310.084 OFFCURVE",
"40 276.962 OFFCURVE",
"40 156 CURVE SMOOTH",
"40 45 OFFCURVE",
"131 -10 OFFCURVE",
"229 -10 CURVE SMOOTH",
"355 -10 OFFCURVE",
"389 147.51 OFFCURVE",
"389 209 CURVE",
"379 209 LINE",
"379 149 OFFCURVE",
"311 67 OFFCURVE",
"229 67 CURVE SMOOTH",
"165.165 67 OFFCURVE",
"120 101.602 OFFCURVE",
"120 156 CURVE SMOOTH",
"120 207.975 OFFCURVE",
"177.513 232.084 OFFCURVE",
"241.876 232.084 CURVE"
);
}
);
width = 539;
},
{
anchors = (
{
name = bottom;
position = "{320, -10}";
},
{
name = center;
position = "{488.086, 250}";
},
{
name = ogonek;
position = "{896.392, 0}";
},
{
name = top;
position = "{478, 510}";
},
{
name = topright;
position = "{1078, 500}";
}
);
background = {
components = (
{
name = n;
transform = "{-1, 0, 0, 1, 1027, 0}";
}
);
};
layerId = "38E161BF-7670-40F4-B2BA-C78FC8454263";
paths = (
{
closed = 1;
nodes = (
"648 -14 OFFCURVE",
"798 91 OFFCURVE",
"798 245 CURVE SMOOTH",
"798 400 OFFCURVE",
"648 505 OFFCURVE",
"408 505 CURVE SMOOTH",
"192.472 505 OFFCURVE",
"35 417.167 OFFCURVE",
"35 245 CURVE SMOOTH",
"35 81 OFFCURVE",
"192 -14 OFFCURVE",
"408 -14 CURVE SMOOTH"
);
},
{
closed = 1;
nodes = (
"362 138 OFFCURVE",
"284 174 OFFCURVE",
"284 245 CURVE SMOOTH",
"284 317 OFFCURVE",
"362 352 OFFCURVE",
"498 352 CURVE SMOOTH",
"650.366 352 OFFCURVE",
"778 330 OFFCURVE",
"778 245 CURVE SMOOTH",
"778 161 OFFCURVE",
"650.366 138 OFFCURVE",
"498 138 CURVE SMOOTH"
);
},
{
closed = 1;
nodes = (
"778 190 LINE",
"778 73 OFFCURVE",
"792 0 OFFCURVE",
"792 0 CURVE",
"1018 0 LINE",
"1018 490 LINE",
"778 490 LINE"
);
}
);
width = 1063;
},
{
anchors = (
{
name = bottom;
position = "{236, -10}";
},
{
name = ogonek;
position = "{455, 0}";
},
{
name = top;
position = "{269, 510}";
}
);
associatedMasterId = "38E161BF-7670-40F4-B2BA-C78FC8454263";
background = {
paths = (
{
closed = 1;
nodes = (
"366 67.779 OFFCURVE",
"240 65.779 OFFCURVE",
"240 65.779 CURVE SMOOTH",
"176.26 65.779 OFFCURVE",
"135 75.361 OFFCURVE",
"135 138.779 CURVE SMOOTH",
"135 189.779 OFFCURVE",
"185 213.779 OFFCURVE",
"250 213.779 CURVE",
"364 213.779 OFFCURVE",
"387 99.789 OFFCURVE",
"387 50.779 CURVE SMOOTH",
"387 33.779 OFFCURVE",
"385 65.779 OFFCURVE",
"385 67.779 CURVE"
);
},
{
closed = 1;
nodes = (
"120.086 66.547 LINE",
"277.52 66.547 LINE",
"277.52 432.939 LINE",
"120.086 432.939 LINE"
);
}
);
};
layerId = "7B3AF8B0-F391-4E96-BDBF-E6868E762361";
name = "Apr 26 17, 13:38";
paths = (
{
closed = 1;
nodes = (
"403 -10 OFFCURVE",
"437 147.51 OFFCURVE",
"437 209 CURVE SMOOTH",
"437 311.628 OFFCURVE",
"406.656 430 OFFCURVE",
"257 430 CURVE SMOOTH",
"129 430 OFFCURVE",
"60 319 OFFCURVE",
"60 209 CURVE SMOOTH",
"60 98 OFFCURVE",
"129 -10 OFFCURVE",
"257 -10 CURVE SMOOTH"
);
},
{
closed = 1;
nodes = (
"176 67 OFFCURVE",
"140 142 OFFCURVE",
"140 209 CURVE SMOOTH",
"140 276 OFFCURVE",
"167 353 OFFCURVE",
"277 353 CURVE SMOOTH",
"377.366 353 OFFCURVE",
"427 279 OFFCURVE",
"427 209 CURVE SMOOTH",
"427 149 OFFCURVE",
"379 67 OFFCURVE",
"277 67 CURVE SMOOTH"
);
},
{
closed = 1;
nodes = (
"427 100 LINE",
"427 67 OFFCURVE",
"434 0 OFFCURVE",
"434 0 CURVE",
"507 0 LINE",
"507 500 LINE",
"427 500 LINE"
);
},
{
closed = 1;
nodes = (
"77 419.867 LINE",
"507 419.867 LINE",
"507 499.867 LINE",
"77 499.867 LINE"
);
}
);
width = 587;
},
{
anchors = (
{
name = bottom;
position = "{188, -10}";
},
{
name = ogonek;
position = "{407, 0}";
},
{
name = top;
position = "{221, 510}";
}
);
associatedMasterId = "38E161BF-7670-40F4-B2BA-C78FC8454263";
background = {
paths = (
{
closed = 1;
nodes = (
"318 67.779 OFFCURVE",
"192 65.779 OFFCURVE",
"192 65.779 CURVE SMOOTH",
"128.26 65.779 OFFCURVE",
"87 75.361 OFFCURVE",
"87 138.779 CURVE SMOOTH",
"87 189.779 OFFCURVE",
"137 213.779 OFFCURVE",
"202 213.779 CURVE",
"316 213.779 OFFCURVE",
"339 99.789 OFFCURVE",
"339 50.779 CURVE SMOOTH",
"339 33.779 OFFCURVE",
"337 65.779 OFFCURVE",
"337 67.779 CURVE"
);
},
{
closed = 1;
nodes = (
"72.086 66.547 LINE",
"229.52 66.547 LINE",
"229.52 432.939 LINE",
"72.086 432.939 LINE"
);
}
);
};
layerId = "F352747B-C818-4BD7-ABAB-4D1A0A8CE049";
name = "May 4 17, 10:59";
paths = (
{
closed = 1;
nodes = (
"379 100 LINE",
"379 67 OFFCURVE",
"386 0 OFFCURVE",
"386 0 CURVE",
"459 0 LINE",
"459 500 LINE",
"379 500 LINE"
);
},
{
closed = 1;
nodes = (
"89 419.867 LINE",
"459 419.867 LINE",
"459 499.867 LINE",
"89 499.867 LINE"
);
},
{
closed = 1;
nodes = (
"400.035 232.084 LINE",
"412.639 310.084 LINE",
"223.714 310.084 LINE",
"138.969 310.084 OFFCURVE",
"40 276.962 OFFCURVE",
"40 156 CURVE SMOOTH",
"40 45 OFFCURVE",
"131 -10 OFFCURVE",
"229 -10 CURVE SMOOTH",
"355 -10 OFFCURVE",
"389 147.51 OFFCURVE",
"389 209 CURVE",
"379 209 LINE",
"379 149 OFFCURVE",
"311 67 OFFCURVE",
"229 67 CURVE SMOOTH",
"165.165 67 OFFCURVE",
"120 101.602 OFFCURVE",
"120 156 CURVE SMOOTH",
"120 207.975 OFFCURVE",
"177.513 232.084 OFFCURVE",
"241.876 232.084 CURVE"
);
}
);
width = 539;
},
{
anchors = (
{
name = bottom;
position = "{236, -10}";
},
{
name = ogonek;
position = "{455, 0}";
},
{
name = top;
position = "{269, 510}";
}
);
associatedMasterId = "38E161BF-7670-40F4-B2BA-C78FC8454263";
background = {
paths = (
{
closed = 1;
nodes = (
"366 67.779 OFFCURVE",
"240 65.779 OFFCURVE",
"240 65.779 CURVE SMOOTH",
"176.26 65.779 OFFCURVE",
"135 75.361 OFFCURVE",
"135 138.779 CURVE SMOOTH",
"135 189.779 OFFCURVE",
"185 213.779 OFFCURVE",
"250 213.779 CURVE",
"364 213.779 OFFCURVE",
"387 99.789 OFFCURVE",
"387 50.779 CURVE SMOOTH",
"387 33.779 OFFCURVE",
"385 65.779 OFFCURVE",
"385 67.779 CURVE"
);
},
{
closed = 1;
nodes = (
"120.086 66.547 LINE",
"277.52 66.547 LINE",
"277.52 432.939 LINE",
"120.086 432.939 LINE"
);
}
);
};
layerId = "16633335-ADF2-457D-AC1C-93540B9C18F8";
name = "Apr 26 17, 13:38";
paths = (
{
closed = 1;
nodes = (
"403 -10 OFFCURVE",
"437 147.51 OFFCURVE",
"437 209 CURVE SMOOTH",
"437 311.628 OFFCURVE",
"406.656 430 OFFCURVE",
"257 430 CURVE SMOOTH",
"129 430 OFFCURVE",
"60 319 OFFCURVE",
"60 209 CURVE SMOOTH",
"60 98 OFFCURVE",
"129 -10 OFFCURVE",
"257 -10 CURVE SMOOTH"
);
},
{
closed = 1;
nodes = (
"176 67 OFFCURVE",
"140 142 OFFCURVE",
"140 209 CURVE SMOOTH",
"140 276 OFFCURVE",
"167 353 OFFCURVE",
"277 353 CURVE SMOOTH",
"377.366 353 OFFCURVE",
"427 279 OFFCURVE",
"427 209 CURVE SMOOTH",
"427 149 OFFCURVE",
"379 67 OFFCURVE",
"277 67 CURVE SMOOTH"
);
},
{
closed = 1;
nodes = (
"427 100 LINE",
"427 67 OFFCURVE",
"434 0 OFFCURVE",
"434 0 CURVE",
"507 0 LINE",
"507 500 LINE",
"427 500 LINE"
);
},
{
closed = 1;
nodes = (
"77 419.867 LINE",
"507 419.867 LINE",
"507 499.867 LINE",
"77 499.867 LINE"
);
}
);
width = 587;
},
{
anchors = (
{
name = bottom;
position = "{188, -10}";
},
{
name = ogonek;
position = "{407, 0}";
},
{
name = top;
position = "{221, 510}";
}
);
associatedMasterId = "38E161BF-7670-40F4-B2BA-C78FC8454263";
background = {
paths = (
{
closed = 1;
nodes = (
"318 67.779 OFFCURVE",
"192 65.779 OFFCURVE",
"192 65.779 CURVE SMOOTH",
"128.26 65.779 OFFCURVE",
"87 75.361 OFFCURVE",
"87 138.779 CURVE SMOOTH",
"87 189.779 OFFCURVE",
"137 213.779 OFFCURVE",
"202 213.779 CURVE",
"316 213.779 OFFCURVE",
"339 99.789 OFFCURVE",
"339 50.779 CURVE SMOOTH",
"339 33.779 OFFCURVE",
"337 65.779 OFFCURVE",
"337 67.779 CURVE"
);
},
{
closed = 1;
nodes = (
"72.086 66.547 LINE",
"229.52 66.547 LINE",
"229.52 432.939 LINE",
"72.086 432.939 LINE"
);
}
);
};
layerId = "17DB64FF-772A-4DA3-99CB-8C25E14A62AF";
name = "May 4 17, 10:59";
paths = (
{
closed = 1;
nodes = (
"379 100 LINE",
"379 67 OFFCURVE",
"386 0 OFFCURVE",
"386 0 CURVE",
"459 0 LINE",
"459 500 LINE",
"379 500 LINE"
);
},
{
closed = 1;
nodes = (
"89 419.867 LINE",
"459 419.867 LINE",
"459 499.867 LINE",
"89 499.867 LINE"
);
},
{
closed = 1;
nodes = (
"400.035 232.084 LINE",
"412.639 310.084 LINE",
"223.714 310.084 LINE",
"138.969 310.084 OFFCURVE",
"40 276.962 OFFCURVE",
"40 156 CURVE SMOOTH",
"40 45 OFFCURVE",
"131 -10 OFFCURVE",
"229 -10 CURVE SMOOTH",
"355 -10 OFFCURVE",
"389 147.51 OFFCURVE",
"389 209 CURVE",
"379 209 LINE",
"379 149 OFFCURVE",
"311 67 OFFCURVE",
"229 67 CURVE SMOOTH",
"165.165 67 OFFCURVE",
"120 101.602 OFFCURVE",
"120 156 CURVE SMOOTH",
"120 207.975 OFFCURVE",
"177.513 232.084 OFFCURVE",
"241.876 232.084 CURVE"
);
}
);
width = 539;
},
{
anchors = (
{
name = bottom;
position = "{227.188, -10}";
},
{
name = center;
position = "{337.494, 250}";
},
{
name = ogonek;
position = "{598.57, 0}";
},
{
name = top;
position = "{344, 510}";
},
{
name = topright;
position = "{724.625, 500}";
}
);
layerId = "3FBA4204-9B78-4099-9F7B-502DDE19710D";
paths = (
{
closed = 1;
nodes = (
"477.5 -11.25 OFFCURVE",
"547.75 129.851 OFFCURVE",
"547.75 247.75 CURVE SMOOTH",
"547.75 394.244 OFFCURVE",
"480.014 508.438 OFFCURVE",
"309 508.438 CURVE SMOOTH",
"153.648 508.438 OFFCURVE",
"36.375 404.677 OFFCURVE",
"36.375 247.75 CURVE SMOOTH",
"36.375 92.688 OFFCURVE",
"153.5 -11.25 OFFCURVE",
"302.125 -11.25 CURVE SMOOTH"
);
},
{
closed = 1;
nodes = (
"238.938 89.188 OFFCURVE",
"169.188 152 OFFCURVE",
"169.188 247.75 CURVE SMOOTH",
"169.188 343.812 OFFCURVE",
"232.75 407 OFFCURVE",
"344 407 CURVE SMOOTH",
"460.616 407 OFFCURVE",
"534.625 349.938 OFFCURVE",
"534.625 247.75 CURVE SMOOTH",
"534.625 152.75 OFFCURVE",
"461.739 89.188 OFFCURVE",
"344 89.188 CURVE SMOOTH"
);
},
{
closed = 1;
nodes = (
"534.625 128.125 LINE",
"534.625 68.875 OFFCURVE",
"543.812 0 OFFCURVE",
"543.812 0 CURVE",
"664.625 0 LINE",
"664.625 496.875 LINE",
"534.625 496.875 LINE"
);
}
);
width = 722;
}
);
leftKerningGroup = o;
leftMetricsKey = o;
rightKerningGroup = a;
rightMetricsKey = n;
unicode = 0061;
},
{
glyphname = c;
lastChange = "2020-07-29 06:28:48 +0000";
layers = (
{
anchors = (
{
name = bottom;
position = "{281, -10}";
},
{
name = center;
position = "{281, 250}";
},
{
name = ogonek;
position = "{368, 10}";
},
{
name = top;
position = "{276, 510}";
},
{
name = topright;
position = "{545, 500}";
}
);
layerId = "BC735296-CD3A-4FA4-9AA9-EE2D747BC69E";
paths = (
{
closed = 1;
nodes = (
"436.719 188.229 LINE",
"413.935 110.027 OFFCURVE",
"362.639 65 OFFCURVE",
"282 65 CURVE SMOOTH",
"194 65 OFFCURVE",
"117 132 OFFCURVE",
"117 249 CURVE SMOOTH",
"117 366 OFFCURVE",
"195 435 OFFCURVE",
"282 435 CURVE SMOOTH",
"352.589 435 OFFCURVE",
"412.539 389.134 OFFCURVE",
"435.908 312.615 CURVE",
"508.518 312.615 LINE",
"492.546 435.3 OFFCURVE",
"395.08 510 OFFCURVE",
"282 510 CURVE SMOOTH",
"153 510 OFFCURVE",
"37 409 OFFCURVE",
"37 249 CURVE SMOOTH",
"37 88 OFFCURVE",
"153 -10 OFFCURVE",
"282 -10 CURVE SMOOTH",
"395.988 -10 OFFCURVE",
"494.203 63.682 OFFCURVE",
"509.146 188.229 CURVE"
);
}
);
width = 546.15;
},
{
anchors = (
{
name = bottom;
position = "{284, -10}";
},
{
name = top;
position = "{279, 510}";
}
);
associatedMasterId = "BC735296-CD3A-4FA4-9AA9-EE2D747BC69E";
layerId = "278933C6-2F8E-40F4-B798-23961C93A606";
name = "Apr 26 17, 12:03";
paths = (
{
closed = 1;
nodes = (
"428 191 LINE",
"407 115 OFFCURVE",
"356 67 OFFCURVE",
"284 67 CURVE SMOOTH",
"181 67 OFFCURVE",
"120 142 OFFCURVE",
"120 249 CURVE SMOOTH",
"120 356 OFFCURVE",
"182 433 OFFCURVE",
"279 433 CURVE SMOOTH",
"356 433 OFFCURVE",
"407 384 OFFCURVE",
"428 309 CURVE",
"505 329 LINE",
"475 439 OFFCURVE",
"394 510 OFFCURVE",
"279 510 CURVE SMOOTH",
"135 510 OFFCURVE",
"40 399 OFFCURVE",
"40 249 CURVE SMOOTH",
"40 98 OFFCURVE",
"135 -10 OFFCURVE",
"284 -10 CURVE SMOOTH",
"394 -10 OFFCURVE",
"476 59 OFFCURVE",
"506 169 CURVE"
);
}
);
width = 546;
},
{
anchors = (
{
name = bottom;
position = "{528, -10}";
},
{
name = center;
position = "{528, 250}";
},
{
name = ogonek;
position = "{702, 10}";
},
{
name = top;
position = "{518, 510}";
},
{
name = topright;
position = "{1056, 500}";
}
);
associatedMasterId = "38E161BF-7670-40F4-B2BA-C78FC8454263";
background = {
anchors = (
{
name = bottom;
position = "{518, -10}";
},
{
name = center;
position = "{516, 250}";
},
{
name = ogonek;
position = "{690, 10}";
},
{
name = top;
position = "{518, 510}";
},
{
name = topright;
position = "{1044, 500}";
}
);
paths = (
{
closed = 1;
nodes = (
"844 -15 OFFCURVE",
"999 68 OFFCURVE",
"999 254 CURVE SMOOTH",
"999 439 OFFCURVE",
"844 525 OFFCURVE",
"518 525 CURVE SMOOTH",
"190 525 OFFCURVE",
"33 439 OFFCURVE",
"33 254 CURVE SMOOTH",
"33 68 OFFCURVE",
"190 -15 OFFCURVE",
"518 -15 CURVE SMOOTH"
);
},
{
closed = 1;
nodes = (
"362 133 OFFCURVE",
"278 172 OFFCURVE",
"278 254 CURVE SMOOTH",
"278 336 OFFCURVE",
"364 376 OFFCURVE",
"518 376 CURVE SMOOTH",
"672 376 OFFCURVE",
"754 335 OFFCURVE",
"754 254 CURVE SMOOTH",
"754 172 OFFCURVE",
"670 133 OFFCURVE",
"518 133 CURVE SMOOTH"
);
}
);
};
layerId = "F97FD9A5-3D7A-4EB7-A5A5-65BDF26B9D1F";
name = "Bold May 17 17, 22:07";
paths = (
{
closed = 1;
nodes = (
"759.438 193.229 LINE",
"733.627 153.229 OFFCURVE",
"680 132 OFFCURVE",
"530 132 CURVE SMOOTH",
"384 132 OFFCURVE",
"280 157 OFFCURVE",
"280 254 CURVE SMOOTH",
"280 351 OFFCURVE",
"386 378 OFFCURVE",
"530 378 CURVE SMOOTH",
"680 378 OFFCURVE",
"844.759 341.814 OFFCURVE",
"844.759 341.814 CURVE",
"846.174 482.024 LINE",
"846.174 482.024 OFFCURVE",
"790 525 OFFCURVE",
"530 525 CURVE SMOOTH",
"210 525 OFFCURVE",
"35 454 OFFCURVE",
"35 254 CURVE SMOOTH",
"35 54 OFFCURVE",
"210 -15 OFFCURVE",
"530 -15 CURVE SMOOTH",
"850 -15 OFFCURVE",
"979.406 68.682 OFFCURVE",
"979.292 193.229 CURVE"
);
}
);
width = 1014.3;
},
{
anchors = (
{
name = bottom;
position = "{518, -10}";
},
{
name = center;
position = "{518, 250}";
},
{
name = ogonek;
position = "{692, 10}";
},
{
name = top;
position = "{508, 510}";
},
{
name = topright;
position = "{1046, 500}";
}
);
background = {
anchors = (
{
name = bottom;
position = "{508, -10}";
},
{
name = center;
position = "{506, 250}";
},
{
name = ogonek;
position = "{680, 10}";
},
{
name = top;
position = "{508, 510}";
},
{
name = topright;
position = "{1034, 500}";
}
);
paths = (
{
closed = 1;
nodes = (
"834 -15 OFFCURVE",
"989 68 OFFCURVE",
"989 254 CURVE SMOOTH",
"989 439 OFFCURVE",
"834 525 OFFCURVE",
"508 525 CURVE SMOOTH",
"180 525 OFFCURVE",
"23 439 OFFCURVE",
"23 254 CURVE SMOOTH",
"23 68 OFFCURVE",
"180 -15 OFFCURVE",
"508 -15 CURVE SMOOTH"
);
},
{
closed = 1;
nodes = (
"352 133 OFFCURVE",
"268 172 OFFCURVE",
"268 254 CURVE SMOOTH",
"268 336 OFFCURVE",
"354 376 OFFCURVE",
"508 376 CURVE SMOOTH",
"662 376 OFFCURVE",
"744 335 OFFCURVE",
"744 254 CURVE SMOOTH",
"744 172 OFFCURVE",
"660 133 OFFCURVE",
"508 133 CURVE SMOOTH"
);
}
);
};
layerId = "38E161BF-7670-40F4-B2BA-C78FC8454263";
paths = (
{
closed = 1;
nodes = (
"739.438 213.229 LINE",
"716.549 160.286 OFFCURVE",
"640 130 OFFCURVE",
"520 130 CURVE SMOOTH",
"371 130 OFFCURVE",
"280 155 OFFCURVE",
"280 244 CURVE SMOOTH",
"280 333 OFFCURVE",
"373 360 OFFCURVE",
"520 360 CURVE SMOOTH",
"640 360 OFFCURVE",
"716.397 330.453 OFFCURVE",
"737.816 277.615 CURVE",
"958.036 277.615 LINE",
"956.092 420.3 OFFCURVE",
"830 505 OFFCURVE",
"520 505 CURVE SMOOTH",
"210 505 OFFCURVE",
"35 434 OFFCURVE",
"35 244 CURVE SMOOTH",
"35 54 OFFCURVE",
"210 -15 OFFCURVE",
"520 -15 CURVE SMOOTH",
"830 -15 OFFCURVE",
"959.406 68.682 OFFCURVE",
"959.292 213.229 CURVE"
);
}
);
width = 994.3;
},
{
anchors = (
{
name = bottom;
position = "{284, -10}";
},
{
name = top;
position = "{279, 510}";
}
);
associatedMasterId = "38E161BF-7670-40F4-B2BA-C78FC8454263";
layerId = "3A0A2ECB-D971-4A28-9902-E8B0E8B58C01";
name = "Apr 26 17, 12:03";
paths = (
{
closed = 1;
nodes = (
"428 191 LINE",
"407 115 OFFCURVE",
"356 67 OFFCURVE",
"284 67 CURVE SMOOTH",
"181 67 OFFCURVE",
"120 142 OFFCURVE",
"120 249 CURVE SMOOTH",
"120 356 OFFCURVE",
"182 433 OFFCURVE",
"279 433 CURVE SMOOTH",
"356 433 OFFCURVE",
"407 384 OFFCURVE",
"428 309 CURVE",
"505 329 LINE",
"475 439 OFFCURVE",
"394 510 OFFCURVE",
"279 510 CURVE SMOOTH",
"135 510 OFFCURVE",
"40 399 OFFCURVE",
"40 249 CURVE SMOOTH",
"40 98 OFFCURVE",
"135 -10 OFFCURVE",
"284 -10 CURVE SMOOTH",
"394 -10 OFFCURVE",
"476 59 OFFCURVE",
"506 169 CURVE"
);
}
);
width = 546;
},
{
anchors = (
{
name = bottom;
position = "{355.062, -10}";
},
{
name = center;
position = "{355.062, 250}";
},
{
name = ogonek;
position = "{469.25, 10}";
},
{
name = top;
position = "{348.5, 510}";
},
{
name = topright;
position = "{701.562, 500}";
}
);
layerId = "3FBA4204-9B78-4099-9F7B-502DDE19710D";
paths = (
{
closed = 1;
nodes = (
"531.319 196.042 LINE",
"508.502 127.483 OFFCURVE",
"448.877 88.438 OFFCURVE",
"356.375 88.438 CURVE SMOOTH",
"250.688 88.438 OFFCURVE",
"167.938 140.938 OFFCURVE",
"167.938 247.438 CURVE SMOOTH",
"167.938 353.938 OFFCURVE",
"252 408.438 OFFCURVE",
"356.375 408.438 CURVE SMOOTH",
"441.967 408.438 OFFCURVE",
"507.495 369.046 OFFCURVE",
"530.254 301.678 CURVE",
"648.992 301.678 LINE",
"637.404 430.613 OFFCURVE",
"530.993 508.438 OFFCURVE",
"356.375 508.438 CURVE SMOOTH",
"170.812 508.438 OFFCURVE",
"36.375 416.812 OFFCURVE",
"36.375 247.438 CURVE SMOOTH",
"36.375 77.375 OFFCURVE",
"170.812 -11.562 OFFCURVE",
"356.375 -11.562 CURVE SMOOTH",
"531.617 -11.562 OFFCURVE",
"639.579 65.245 OFFCURVE",
"649.817 196.042 CURVE"
);
}
);
width = 686.19687;
}
);
leftKerningGroup = o;
leftMetricsKey = o;
rightMetricsKey = o;
unicode = 0063;
},
{
glyphname = d;
lastChange = "2020-07-29 06:28:48 +0000";
layers = (
{
anchors = (
{
name = bottom;
position = "{266, -10}";
},
{
name = center;
position = "{269.043, 250}";
},
{
name = ogonek;
position = "{452, 0}";
},
{
name = top;
position = "{262, 510}";
},
{
name = topright;
position = "{564, 500}";
}
);
background = {
components = (
{
name = a;
}
);
};
layerId = "BC735296-CD3A-4FA4-9AA9-EE2D747BC69E";
paths = (
{
closed = 1;
nodes = (
"400 -10 OFFCURVE",
"434 147.51 OFFCURVE",
"434 249 CURVE SMOOTH",
"434 391.628 OFFCURVE",
"403.656 510 OFFCURVE",
"254 510 CURVE SMOOTH",
"128 510 OFFCURVE",
"37 399 OFFCURVE",
"37 249 CURVE SMOOTH",
"37 98 OFFCURVE",
"133 -10 OFFCURVE",
"254 -10 CURVE SMOOTH"
);
},
{
closed = 1;
nodes = (
"183 66 OFFCURVE",
"117 142 OFFCURVE",
"117 249 CURVE SMOOTH",
"117 356 OFFCURVE",
"174 434 OFFCURVE",
"274 434 CURVE SMOOTH",
"374.366 434 OFFCURVE",
"424 359 OFFCURVE",
"424 249 CURVE SMOOTH",
"424 149 OFFCURVE",
"376 66 OFFCURVE",
"274 66 CURVE SMOOTH"
);
},
{
closed = 1;
nodes = (
"424 100 LINE",
"424 67 OFFCURVE",
"431 0 OFFCURVE",
"431 0 CURVE",
"504 0 LINE",
"504 700.313 LINE",
"424 700.313 LINE"
);
}
);
width = 584;
},
{
anchors = (
{
name = bottom;
position = "{532, -10}";
},
{
name = center;
position = "{538.086, 250}";
},
{
name = ogonek;
position = "{904, 0}";
},
{
name = top;
position = "{444, 510}";
},
{
name = topright;
position = "{1128, 500}";
}
);
background = {
anchors = (
{
name = bottom;
position = "{320, -10}";
},
{
name = center;
position = "{488.086, 250}";
},
{
name = ogonek;
position = "{876.392, 0}";
},
{
name = top;
position = "{498, 510}";
},
{
name = topright;
position = "{1078, 500}";
}
);
paths = (
{
closed = 1;
nodes = (
"648 -14 OFFCURVE",
"798 91 OFFCURVE",
"798 255 CURVE SMOOTH",
"798 420 OFFCURVE",
"648 525 OFFCURVE",
"408 525 CURVE SMOOTH",
"192.472 525 OFFCURVE",
"35 437.167 OFFCURVE",
"35 255 CURVE SMOOTH",
"35 81 OFFCURVE",
"192 -14 OFFCURVE",
"408 -14 CURVE SMOOTH"
);
},
{
closed = 1;
nodes = (
"372 138 OFFCURVE",
"284 174 OFFCURVE",
"284 255 CURVE SMOOTH",
"284 337 OFFCURVE",
"372 372 OFFCURVE",
"498 372 CURVE SMOOTH",
"650.366 372 OFFCURVE",
"778 350 OFFCURVE",
"778 255 CURVE SMOOTH",
"778 161 OFFCURVE",
"650.366 138 OFFCURVE",
"498 138 CURVE SMOOTH"
);
},
{
closed = 1;
nodes = (
"778 190 LINE",
"778 73 OFFCURVE",
"792 -4 OFFCURVE",
"792 -4 CURVE",
"1018 0 LINE",
"1018 510 LINE",
"778 510 LINE"
);
}
);
};
layerId = "38E161BF-7670-40F4-B2BA-C78FC8454263";
paths = (
{
closed = 1;
nodes = (
"648 -14 OFFCURVE",
"798 91 OFFCURVE",
"798 245 CURVE SMOOTH",
"798 400 OFFCURVE",
"648 505 OFFCURVE",
"408 505 CURVE SMOOTH",
"192.472 505 OFFCURVE",
"35 417.167 OFFCURVE",
"35 245 CURVE SMOOTH",
"35 81 OFFCURVE",
"192 -14 OFFCURVE",
"408 -14 CURVE SMOOTH"
);
},
{
closed = 1;
nodes = (
"362 138 OFFCURVE",
"284 174 OFFCURVE",
"284 245 CURVE SMOOTH",
"284 317 OFFCURVE",
"362 352 OFFCURVE",
"498 352 CURVE SMOOTH",
"650.366 352 OFFCURVE",
"778 330 OFFCURVE",
"778 245 CURVE SMOOTH",
"778 161 OFFCURVE",
"650.366 138 OFFCURVE",
"498 138 CURVE SMOOTH"
);
},
{
closed = 1;
nodes = (
"778 190 LINE",
"778 73 OFFCURVE",
"792 0 OFFCURVE",
"792 0 CURVE",
"1018 0 LINE",
"1018 689.992 LINE",
"778 689.992 LINE"
);
}
);
width = 1098;
},
{
anchors = (
{
name = bottom;
position = "{349.125, -10}";
},
{
name = center;
position = "{353.119, 250}";
},
{
name = ogonek;
position = "{593.25, 0}";
},
{
name = top;
position = "{343.875, 510}";
},
{
name = topright;
position = "{740.25, 500}";
}
);
layerId = "3FBA4204-9B78-4099-9F7B-502DDE19710D";
paths = (
{
closed = 1;
nodes = (
"477.5 -11.25 OFFCURVE",
"547.75 129.851 OFFCURVE",
"547.75 247.75 CURVE SMOOTH",
"547.75 394.244 OFFCURVE",
"480.014 508.438 OFFCURVE",
"302.125 508.438 CURVE SMOOTH",
"148.148 508.438 OFFCURVE",
"36.375 404.677 OFFCURVE",
"36.375 247.75 CURVE SMOOTH",
"36.375 92.688 OFFCURVE",
"151.438 -11.25 OFFCURVE",
"302.125 -11.25 CURVE SMOOTH"
);
},
{
closed = 1;
nodes = (
"238.938 89.188 OFFCURVE",
"169.188 152 OFFCURVE",
"169.188 247.75 CURVE SMOOTH",
"169.188 343.812 OFFCURVE",
"232.75 407.688 OFFCURVE",
"344 407.688 CURVE SMOOTH",
"460.616 407.688 OFFCURVE",
"534.625 349.938 OFFCURVE",
"534.625 247.75 CURVE SMOOTH",
"534.625 152.75 OFFCURVE",
"461.739 89.188 OFFCURVE",
"344 89.188 CURVE SMOOTH"
);
},
{
closed = 1;
nodes = (
"534.625 128.125 LINE",
"534.625 68.875 OFFCURVE",
"543.812 0 OFFCURVE",
"543.812 0 CURVE",
"664.625 0 LINE",
"664.625 697.088 LINE",
"534.625 697.088 LINE"
);
}
);
width = 744.625;
}
);
leftKerningGroup = o;
leftMetricsKey = o;
rightKerningGroup = d;
unicode = 0064;
},
{
glyphname = eth;
lastChange = "2020-07-29 06:28:48 +0000";
layers = (
{
background = {
paths = (
{
closed = 1;
nodes = (
"120.203 661.771 OFFCURVE",
"127.862 658.852 OFFCURVE",
"131.23 657.106 CURVE SMOOTH",
"165.581 639.293 LINE",
"196.117 624.026 LINE SMOOTH",
"198.661 622.754 OFFCURVE",
"203.75 619.785 OFFCURVE",
"211.384 615.12 CURVE",
"130.805 572.71 LINE",
"161.765 517.153 LINE",
"263.548 571.862 LINE",
"309.351 529.452 OFFCURVE",
"348.792 477.712 OFFCURVE",
"383.144 416.218 CURVE",
"361.939 422.58 OFFCURVE",
"339.886 425.548 OFFCURVE",
"316.56 425.548 CURVE SMOOTH",
"192.3 425.548 OFFCURVE",
"95.181 330.126 OFFCURVE",
"95.181 206.714 CURVE SMOOTH",
"95.181 84.15 OFFCURVE",
"191.451 -10 OFFCURVE",
"316.984 -10 CURVE SMOOTH",
"380.175 -10 OFFCURVE",
"432.763 11.205 OFFCURVE",
"473.9 53.191 CURVE SMOOTH",
"515.464 95.611 OFFCURVE",
"535.819 150.309 OFFCURVE",
"535.819 215.62 CURVE SMOOTH",
"535.819 280.507 OFFCURVE",
"518.431 348.787 OFFCURVE",
"484.079 420.883 CURVE SMOOTH",
"450.548 491.256 OFFCURVE",
"401.804 554.474 OFFCURVE",
"340.734 610.879 CURVE",
"420.04 653.289 LINE",
"386.536 708.421 LINE",
"286.449 655.833 LINE",
"267.365 667.284 LINE SMOOTH",
"224.767 692.843 OFFCURVE",
"185.09 712.238 OFFCURVE",
"147.345 725.385 CURVE",
"108.328 666.012 LINE"
);
},
{
closed = 1;
nodes = (
"192.724 286.02 OFFCURVE",
"242.343 339.881 OFFCURVE",
"315.288 339.881 CURVE SMOOTH",
"389.505 339.881 OFFCURVE",
"438.276 287.292 OFFCURVE",
"438.276 207.562 CURVE SMOOTH",
"438.276 127.408 OFFCURVE",
"389.929 75.244 OFFCURVE",
"315.288 75.244 CURVE SMOOTH",
"241.071 75.244 OFFCURVE",
"192.724 127.408 OFFCURVE",
"192.724 209.258 CURVE SMOOTH"
);
}
);
};
layerId = "BC735296-CD3A-4FA4-9AA9-EE2D747BC69E";
paths = (
{
closed = 1;
nodes = (
"430.243 -10 OFFCURVE",
"504 128.544 OFFCURVE",
"504 252.503 CURVE",
"434 249 LINE",
"434 391.628 OFFCURVE",
"393.656 510 OFFCURVE",
"254 510 CURVE SMOOTH",
"128 510 OFFCURVE",
"37 399 OFFCURVE",
"37 249 CURVE SMOOTH",
"37 98 OFFCURVE",
"130 -10 OFFCURVE",
"274 -10 CURVE SMOOTH"
);
},
{
closed = 1;
nodes = (
"180 67 OFFCURVE",
"117 142 OFFCURVE",
"117 249 CURVE SMOOTH",
"117 356 OFFCURVE",
"174 433 OFFCURVE",
"274 433 CURVE SMOOTH",
"374.366 433 OFFCURVE",
"424 359 OFFCURVE",
"424 249 CURVE SMOOTH",
"424 149 OFFCURVE",
"376 67 OFFCURVE",
"274 67 CURVE SMOOTH"
);
},
{
closed = 1;
nodes = (
"376.274 548.613 OFFCURVE",
"438.276 407.666 OFFCURVE",
"424 247 CURVE",
"504 252.503 LINE",
"504 411.773 OFFCURVE",
"440.048 599.746 OFFCURVE",
"147.345 710.385 CURVE",
"118.328 641.736 LINE"
);
},
{
closed = 1;
nodes = (
"255.929 618.086 LINE",
"295.752 568.426 LINE",
"397.31 661.552 LINE",
"353.494 710.386 LINE"
);
}
);
width = 549;
},
{
background = {
anchors = (
{
name = bottom;
position = "{532, -10}";
},
{
name = center;
position = "{538.086, 250}";
},
{
name = ogonek;
position = "{904, 0}";
},
{
name = top;
position = "{524, 510}";
},
{
name = topright;
position = "{1128, 500}";
}
);
paths = (
{
closed = 1;
nodes = (
"648 -14 OFFCURVE",
"798 91 OFFCURVE",
"798 245 CURVE SMOOTH",
"798 400 OFFCURVE",
"648 505 OFFCURVE",
"408 505 CURVE SMOOTH",
"192.472 505 OFFCURVE",
"35 417.167 OFFCURVE",
"35 245 CURVE SMOOTH",
"35 81 OFFCURVE",
"192 -14 OFFCURVE",
"408 -14 CURVE SMOOTH"
);
},
{
closed = 1;
nodes = (
"362 138 OFFCURVE",
"284 174 OFFCURVE",
"284 245 CURVE SMOOTH",
"284 317 OFFCURVE",
"362 352 OFFCURVE",
"498 352 CURVE SMOOTH",
"650.366 352 OFFCURVE",
"778 330 OFFCURVE",
"778 245 CURVE SMOOTH",
"778 161 OFFCURVE",
"650.366 138 OFFCURVE",
"498 138 CURVE SMOOTH"
);
},
{
closed = 1;
nodes = (
"778 190 LINE",
"778 73 OFFCURVE",
"792 0 OFFCURVE",
"792 0 CURVE",
"1018 0 LINE",
"1018 689.992 LINE",
"778 689.992 LINE"
);
}
);
};
layerId = "38E161BF-7670-40F4-B2BA-C78FC8454263";
paths = (
{
closed = 1;
nodes = (
"725.968 -15 OFFCURVE",
"969 43.43 OFFCURVE",
"969 282.503 CURVE",
"799 249 LINE",
"799 391.628 OFFCURVE",
"619.312 475 OFFCURVE",
"388 475 CURVE SMOOTH",
"193 475 OFFCURVE",
"35 417.461 OFFCURVE",
"35 245 CURVE SMOOTH",
"35 81 OFFCURVE",
"202 -15 OFFCURVE",
"498 -15 CURVE SMOOTH"
);
},
{
closed = 1;
nodes = (
"371.577 138 OFFCURVE",
"284 159 OFFCURVE",
"284 234 CURVE SMOOTH",
"284 301.994 OFFCURVE",
"371.919 327 OFFCURVE",
"508 327 CURVE SMOOTH",
"608.732 327 OFFCURVE",
"779 311 OFFCURVE",
"779 239 CURVE SMOOTH",
"779 149 OFFCURVE",
"623 138 OFFCURVE",
"518 138 CURVE SMOOTH"
);
},
{
closed = 1;
nodes = (
"670.364 551.736 OFFCURVE",
"779 435.881 OFFCURVE",
"779 237 CURVE",
"969 282.503 LINE",
"969 425.583 OFFCURVE",
"841.096 705.385 OFFCURVE",
"255.69 705.385 CURVE",
"255.656 551.736 LINE"
);
},
{
closed = 1;
nodes = (
"708.199 530.951 LINE",
"785.333 450.011 LINE",
"987.615 623.06 LINE",
"909.491 705.053 LINE"
);
}
);
width = 1007.61;
},
{
layerId = "3FBA4204-9B78-4099-9F7B-502DDE19710D";
paths = (
{
closed = 1;
nodes = (
"522.657 -11.562 OFFCURVE",
"649.312 101.946 OFFCURVE",
"649.312 261.878 CURVE",
"548.062 249 LINE",
"548.062 391.628 OFFCURVE",
"464.173 499.062 OFFCURVE",
"295.875 499.062 CURVE SMOOTH",
"148.312 499.062 OFFCURVE",
"36.375 404.769 OFFCURVE",
"36.375 247.75 CURVE SMOOTH",
"36.375 92.688 OFFCURVE",
"152.5 -11.562 OFFCURVE",
"344 -11.562 CURVE SMOOTH"
);
},
{
closed = 1;
nodes = (
"239.868 89.188 OFFCURVE",
"169.188 147.312 OFFCURVE",
"169.188 244.312 CURVE SMOOTH",
"169.188 339.123 OFFCURVE",
"235.85 399.875 OFFCURVE",
"347.125 399.875 CURVE SMOOTH",
"447.605 399.875 OFFCURVE",
"534.938 344 OFFCURVE",
"534.938 245.875 CURVE SMOOTH",
"534.938 149 OFFCURVE",
"453.188 89.188 OFFCURVE",
"350.25 89.188 CURVE SMOOTH"
);
},
{
closed = 1;
nodes = (
"468.177 549.589 OFFCURVE",
"544.752 416.483 OFFCURVE",
"534.938 243.875 CURVE",
"649.312 261.878 LINE",
"649.312 416.089 OFFCURVE",
"565.375 632.758 OFFCURVE",
"181.203 708.822 CURVE",
"161.243 613.611 LINE"
);
},
{
closed = 1;
nodes = (
"397.263 590.856 LINE",
"448.746 531.421 LINE",
"581.78 649.523 LINE",
"527.243 708.719 LINE"
);
}
);
width = 692.31562;
}
);
leftKerningGroup = o;
leftMetricsKey = d;
unicode = 00F0;
},
{
glyphname = e;
lastChange = "2020-07-29 06:28:48 +0000";
layers = (
{
anchors = (
{
name = bottom;
position = "{284, 0}";
},
{
name = ogonek;
position = "{443.488, -0.227}";
},
{
name = top;
position = "{279, 510}";
}
);
background = {
anchors = (
{
name = bottom;
position = "{279, -10}";
},
{
name = center;
position = "{279, 250}";
},
{
name = ogonek;
position = "{366, 10}";
},
{
name = top;
position = "{274, 510}";
},
{
name = topright;
position = "{543, 500}";
}
);
paths = (
{
closed = 1;
nodes = (
"434.719 188.229 LINE",
"411.935 110.027 OFFCURVE",
"345.639 68 OFFCURVE",
"280 68 CURVE SMOOTH",
"197 68 OFFCURVE",
"115 132 OFFCURVE",
"115 249 CURVE SMOOTH",
"115 366 OFFCURVE",
"198 432 OFFCURVE",
"280 432 CURVE SMOOTH",
"345.589 432 OFFCURVE",
"410.539 389.134 OFFCURVE",
"433.908 312.615 CURVE",
"516.518 312.615 LINE",
"490.546 435.3 OFFCURVE",
"390.08 510 OFFCURVE",
"280 510 CURVE SMOOTH",
"151 510 OFFCURVE",
"35 409 OFFCURVE",
"35 249 CURVE SMOOTH",
"35 88 OFFCURVE",
"151 -10 OFFCURVE",
"280 -10 CURVE SMOOTH",
"390.988 -10 OFFCURVE",
"492.203 63.682 OFFCURVE",
"517.146 188.229 CURVE"
);
}
);
};
layerId = "BC735296-CD3A-4FA4-9AA9-EE2D747BC69E";
paths = (
{
closed = 1;
nodes = (
"402.198 104.11 OFFCURVE",
"351.647 65 OFFCURVE",
"284 65 CURVE SMOOTH",
"190.973 65 OFFCURVE",
"126.364 130.771 OFFCURVE",
"116.872 229 CURVE",
"497 229 LINE",
"507.415 410.784 OFFCURVE",
"423.775 510 OFFCURVE",
"279 510 CURVE SMOOTH",
"140 510 OFFCURVE",
"37 399 OFFCURVE",
"37 249 CURVE SMOOTH",
"37 98 OFFCURVE",
"144 -10 OFFCURVE",
"284 -10 CURVE SMOOTH",
"399.982 -10 OFFCURVE",
"478.041 64.37 OFFCURVE",
"494.372 160.678 CURVE",
"418.706 160.678 LINE"
);
},
{
closed = 1;
nodes = (
"350.754 435 OFFCURVE",
"408.795 389.469 OFFCURVE",
"415.416 301 CURVE",
"122.194 301 LINE",
"141.478 383.407 OFFCURVE",
"198.693 435 OFFCURVE",
"282 435 CURVE SMOOTH"
);
}
);
width = 534.87;
},
{
anchors = (
{
name = bottom;
position = "{301.784, 21.96}";
},
{
name = ogonek;
position = "{923.404, 21.478}";
},
{
name = top;
position = "{317.156, 494.02}";
}
);
associatedMasterId = "38E161BF-7670-40F4-B2BA-C78FC8454263";
layerId = "19FD2CE1-D98A-4EDC-AD56-D981AAEA01AD";
paths = (
{
closed = 1;
nodes = (
"182.771 189.567 LINE",
"652.016 175.08 LINE",
"629.644 327.92 LINE",
"739.816 266.06 LINE",
"182.9 266.06 LINE"
);
},
{
closed = 1;
nodes = (
"652.016 131.16 LINE",
"652.016 382.648 OFFCURVE",
"676.268 541.96 OFFCURVE",
"352.312 541.96 CURVE SMOOTH",
"117.432 541.96 OFFCURVE",
"24.02 462.92 OFFCURVE",
"24.02 249 CURVE SMOOTH",
"24.02 34.08 OFFCURVE",
"102.06 -41.96 OFFCURVE",
"336.94 -41.96 CURVE SMOOTH",
"518.252 -41.96 OFFCURVE",
"586.304 0.395 OFFCURVE",
"644.872 88.611 CURVE",
"403.432 187.392 LINE",
"456.136 334.524 OFFCURVE",
"476.056 210.82 OFFCURVE",
"400.86 210.82 CURVE SMOOTH",
"352.604 210.82 OFFCURVE",
"487.54 205.92 OFFCURVE",
"487.54 185.08 CURVE SMOOTH",
"487.54 185.08 OFFCURVE",
"363.976 241.24 OFFCURVE",
"366.488 241.24 CURVE SMOOTH",
"392.352 241.24 OFFCURVE",
"259.2 206.22 OFFCURVE",
"259.2 257.452 CURVE"
);
}
);
width = 672.083;
},
{
anchors = (
{
name = bottom;
position = "{301.784, 21.96}";
},
{
name = ogonek;
position = "{923.404, 21.478}";
},
{
name = top;
position = "{317.156, 494.02}";
}
);
associatedMasterId = "38E161BF-7670-40F4-B2BA-C78FC8454263";
layerId = "B706B621-65D4-4AF0-B4D7-FA90CE4060E7";
paths = (
{
closed = 1;
nodes = (
"182.771 189.567 LINE",
"652.016 175.08 LINE",
"629.644 327.92 LINE",
"739.816 266.06 LINE",
"182.9 266.06 LINE"
);
},
{
closed = 1;
nodes = (
"652.016 131.16 LINE",
"652.016 382.648 OFFCURVE",
"676.268 541.96 OFFCURVE",
"352.312 541.96 CURVE SMOOTH",
"117.432 541.96 OFFCURVE",
"24.02 462.92 OFFCURVE",
"24.02 249 CURVE SMOOTH",
"24.02 34.08 OFFCURVE",
"102.06 -41.96 OFFCURVE",
"336.94 -41.96 CURVE SMOOTH",
"518.252 -41.96 OFFCURVE",
"586.304 0.395 OFFCURVE",
"644.872 88.611 CURVE",
"403.432 187.392 LINE",
"456.136 334.524 OFFCURVE",
"476.056 210.82 OFFCURVE",
"400.86 210.82 CURVE SMOOTH",
"352.604 210.82 OFFCURVE",
"487.54 205.92 OFFCURVE",
"487.54 185.08 CURVE SMOOTH",
"487.54 185.08 OFFCURVE",
"363.976 241.24 OFFCURVE",
"366.488 241.24 CURVE SMOOTH",
"392.352 241.24 OFFCURVE",
"259.2 206.22 OFFCURVE",
"259.2 257.452 CURVE"
);
}
);
width = 672.083;
},
{
anchors = (
{
name = bottom;
position = "{533, 0}";
},
{
name = ogonek;
position = "{851.976, -0.227}";
},
{
name = top;
position = "{513, 510}";
}
);
background = {
paths = (
{
closed = 1;
nodes = (
"966.744 324.322 LINE",
"947.776 451.018 OFFCURVE",
"818.353 525 OFFCURVE",
"523 525 CURVE SMOOTH",
"211 525 OFFCURVE",
"25 461 OFFCURVE",
"25 256 CURVE SMOOTH",
"25 54 OFFCURVE",
"203 -15 OFFCURVE",
"523 -15 CURVE SMOOTH",
"836.551 -15 OFFCURVE",
"972.814 58.177 OFFCURVE",
"969 283 CURVE",
"268.744 283 LINE",
"278.234 324.102 OFFCURVE",
"336.946 379 OFFCURVE",
"513 379 CURVE SMOOTH",
"638.294 379 OFFCURVE",
"705.889 352.879 OFFCURVE",
"721.412 324.322 CURVE"
);
},
{
closed = 1;
nodes = (
"362.386 132 OFFCURVE",
"279.388 178.208 OFFCURVE",
"279.388 208 CURVE",
"745.832 208 LINE",
"745.832 178.208 OFFCURVE",
"666.508 132 OFFCURVE",
"513 132 CURVE SMOOTH"
);
}
);
};
layerId = "38E161BF-7670-40F4-B2BA-C78FC8454263";
paths = (
{
closed = 1;
nodes = (
"705.889 146.121 OFFCURVE",
"628.294 130 OFFCURVE",
"513 130 CURVE SMOOTH",
"346.946 130 OFFCURVE",
"288.234 174.898 OFFCURVE",
"278.744 227 CURVE",
"959 227 LINE",
"962.814 431.823 OFFCURVE",
"826.551 505 OFFCURVE",
"523 505 CURVE SMOOTH",
"213 505 OFFCURVE",
"35 436 OFFCURVE",
"35 244 CURVE SMOOTH",
"35 49 OFFCURVE",
"221 -15 OFFCURVE",
"523 -15 CURVE SMOOTH",
"808.353 -15 OFFCURVE",
"937.776 58.982 OFFCURVE",
"956.744 175.678 CURVE",
"721.412 175.678 LINE"
);
},
{
closed = 1;
nodes = (
"656.508 360 OFFCURVE",
"715.832 325.292 OFFCURVE",
"725.832 290.5 CURVE",
"286.388 290.5 LINE",
"299.388 322.292 OFFCURVE",
"372.386 360 OFFCURVE",
"513 360 CURVE SMOOTH"
);
}
);
width = 994.08;
},
{
anchors = (
{
name = bottom;
position = "{361.812, 0}";
},
{
name = ogonek;
position = "{571.14, -0.227}";
},
{
name = top;
position = "{352.125, 510}";
}
);
layerId = "3FBA4204-9B78-4099-9F7B-502DDE19710D";
paths = (
{
closed = 1;
nodes = (
"497.101 119.926 OFFCURVE",
"438.099 88 OFFCURVE",
"355.562 88 CURVE SMOOTH",
"243.152 88 OFFCURVE",
"176.948 147.248 OFFCURVE",
"167.457 224.375 CURVE",
"641.375 224.375 LINE",
"649.727 417.359 OFFCURVE",
"549.642 508.438 OFFCURVE",
"355.25 508.438 CURVE SMOOTH",
"162.812 508.438 OFFCURVE",
"36.375 410.562 OFFCURVE",
"36.375 247.438 CURVE SMOOTH",
"36.375 82.688 OFFCURVE",
"168.062 -11.562 OFFCURVE",
"358.688 -11.562 CURVE SMOOTH",
"527.598 -11.562 OFFCURVE",
"621.708 62.686 OFFCURVE",
"638.863 165.365 CURVE",
"513.302 165.365 LINE"
);
},
{
closed = 1;
nodes = (
"446.302 408.562 OFFCURVE",
"504.744 366.414 OFFCURVE",
"512.421 299.781 CURVE",
"173.505 299.781 LINE",
"190.825 361.309 OFFCURVE",
"252.972 408.562 OFFCURVE",
"348.688 408.562 CURVE SMOOTH"
);
}
);
width = 678.24313;
}
);
leftKerningGroup = o;
leftMetricsKey = o;
rightKerningGroup = o;
rightMetricsKey = o;
unicode = 0065;
},
{
glyphname = f;
lastChange = "2020-07-29 06:28:48 +0000";
layers = (
{
associatedMasterId = "BC735296-CD3A-4FA4-9AA9-EE2D747BC69E";
layerId = "43B16F6A-4C6A-4665-B648-7803BE390C05";
name = "Regular Mar 4 17, 16:46";
paths = (
{
closed = 1;
nodes = (
"141 428 LINE",
"279 425 LINE",
"279 500 LINE",
"159 497 LINE",
"23 500 LINE",
"23 425 LINE"
);
},
{
closed = 1;
nodes = (
"187 0 LINE",
"187 21 OFFCURVE",
"187 331 OFFCURVE",
"187 352 CURVE",
"187 560.205 LINE",
"107 560.205 LINE",
"107 352 LINE",
"107 331 OFFCURVE",
"107 21 OFFCURVE",
"107 0 CURVE"
);
},
{
closed = 1;
nodes = (
"165.674 687.608 OFFCURVE",
"105.43 657.34 OFFCURVE",
"107 560.205 CURVE",
"187 560.205 LINE",
"187 606.536 OFFCURVE",
"217 616.557 OFFCURVE",
"287 616.205 CURVE",
"287 640.872 OFFCURVE",
"287 665.539 OFFCURVE",
"287 690.205 CURVE"
);
}
);
width = 389;
},
{
anchors = (
{
name = bottom;
position = "{197, 0}";
},
{
name = top;
position = "{197, 500}";
}
);
layerId = "BC735296-CD3A-4FA4-9AA9-EE2D747BC69E";
paths = (
{
closed = 1;
nodes = (
"199 0 LINE",
"199 530 LINE",
"119 530 LINE",
"119 0 LINE"
);
},
{
closed = 1;
nodes = (
"189 700 OFFCURVE",
"119 650 OFFCURVE",
"119 530 CURVE",
"199 530 LINE",
"199 601.403 OFFCURVE",
"239 621.372 OFFCURVE",
"289 620 CURVE",
"334.504 620 LINE",
"334.504 700 LINE",
"289 700 LINE"
);
},
{
closed = 1;
nodes = (
"30 425 LINE",
"324 425 LINE",
"324 500 LINE",
"30 500 LINE"
);
}
);
width = 346.5;
},
{
associatedMasterId = "38E161BF-7670-40F4-B2BA-C78FC8454263";
layerId = "CD179E39-103E-479D-9FDC-E5D7B7636E8F";
name = "Regular Mar 4 17, 16:46";
paths = (
{
closed = 1;
nodes = (
"141 428 LINE",
"279 425 LINE",
"279 500 LINE",
"159 497 LINE",
"23 500 LINE",
"23 425 LINE"
);
},
{
closed = 1;
nodes = (
"187 0 LINE",
"187 21 OFFCURVE",
"187 331 OFFCURVE",
"187 352 CURVE",
"187 560.205 LINE",
"107 560.205 LINE",
"107 352 LINE",
"107 331 OFFCURVE",
"107 21 OFFCURVE",
"107 0 CURVE"
);
},
{
closed = 1;
nodes = (
"165.674 687.608 OFFCURVE",
"105.43 657.34 OFFCURVE",
"107 560.205 CURVE",
"187 560.205 LINE",
"187 606.536 OFFCURVE",
"217 616.557 OFFCURVE",
"287 616.205 CURVE",
"287 640.872 OFFCURVE",
"287 665.539 OFFCURVE",
"287 690.205 CURVE"
);
}
);
width = 389;
},
{
anchors = (
{
name = bottom;
position = "{379, 0}";
},
{
name = top;
position = "{379, 500}";
}
);
background = {
anchors = (
{
name = bottom;
position = "{314, 0}";
},
{
name = center;
position = "{302, 250}";
},
{
name = top;
position = "{312.682, 639.109}";
},
{
name = topright;
position = "{668, 500}";
}
);
paths = (
{
closed = 1;
nodes = (
"20 330 LINE",
"608 330 LINE",
"608 510 LINE",
"20 510 LINE"
);
},
{
closed = 1;
nodes = (
"194 0 LINE",
"434 0 LINE",
"434 660 LINE",
"194 660 LINE"
);
}
);
};
layerId = "38E161BF-7670-40F4-B2BA-C78FC8454263";
paths = (
{
closed = 1;
nodes = (
"423 0 LINE",
"423 460 LINE",
"183 510 LINE",
"183 0 LINE"
);
},
{
closed = 1;
nodes = (
"243 690 OFFCURVE",
"183 630 OFFCURVE",
"183 510 CURVE",
"423 460 LINE",
"423 521.403 OFFCURVE",
"443 531.372 OFFCURVE",
"523 530 CURVE",
"654.008 530 LINE",
"654.008 690 LINE",
"423 690 LINE"
);
},
{
closed = 1;
nodes = (
"20 310 LINE",
"654 310 LINE",
"654 460 LINE",
"20 460 LINE"
);
}
);
width = 674;
},
{
associatedMasterId = "38E161BF-7670-40F4-B2BA-C78FC8454263";
layerId = "B95525E7-9610-4A3E-AA70-7AFAAF07CC28";
name = "Regular Mar 4 17, 16:46";
paths = (
{
closed = 1;
nodes = (
"141 428 LINE",
"279 425 LINE",
"279 500 LINE",
"159 497 LINE",
"23 500 LINE",
"23 425 LINE"
);
},
{
closed = 1;
nodes = (
"187 0 LINE",
"187 21 OFFCURVE",
"187 331 OFFCURVE",
"187 352 CURVE",
"187 560.205 LINE",
"107 560.205 LINE",
"107 352 LINE",
"107 331 OFFCURVE",
"107 21 OFFCURVE",
"107 0 CURVE"
);
},
{
closed = 1;
nodes = (
"165.674 687.608 OFFCURVE",
"105.43 657.34 OFFCURVE",
"107 560.205 CURVE",
"187 560.205 LINE",
"187 606.536 OFFCURVE",
"217 616.557 OFFCURVE",
"287 616.205 CURVE",
"287 640.872 OFFCURVE",
"287 665.539 OFFCURVE",
"287 690.205 CURVE"
);
}
);
width = 389;
},
{
anchors = (
{
name = bottom;
position = "{251.998, 0}";
},
{
name = top;
position = "{251.998, 500}";
}
);
layerId = "3FBA4204-9B78-4099-9F7B-502DDE19710D";
paths = (
{
closed = 1;
nodes = (
"267.122 0 LINE",
"267.122 508.125 LINE",
"137.122 523.75 LINE",
"137.122 0 LINE"
);
},
{
closed = 1;
nodes = (
"203.998 696.875 OFFCURVE",
"137.122 643.75 OFFCURVE",
"137.122 523.75 CURVE",
"267.122 508.125 LINE",
"267.122 576.403 OFFCURVE",
"300.872 593.247 OFFCURVE",
"360.248 591.875 CURVE",
"432.472 591.875 LINE",
"432.472 696.875 LINE",
"328.998 696.875 LINE"
);
},
{
closed = 1;
nodes = (
"24.998 389.062 LINE",
"425.248 389.062 LINE",
"425.248 487.5 LINE",
"24.998 487.5 LINE"
);
}
);
width = 445.59125;
}
);
leftKerningGroup = t;
leftMetricsKey = t;
rightKerningGroup = f;
unicode = 0066;
},
{
glyphname = g;
lastChange = "2020-07-29 06:28:48 +0000";
layers = (
{
anchors = (
{
name = bottom;
position = "{260, -210}";
},
{
name = top;
position = "{282.385, 510}";
}
);
associatedMasterId = "BC735296-CD3A-4FA4-9AA9-EE2D747BC69E";
layerId = "84027AD4-9964-4277-95E5-27A397B2D05B";
name = "Regular May 4 17, 14:21";
paths = (
{
closed = 1;
nodes = (
"427.4 500 LINE",
"427.4 10 LINE",
"507.4 -10 LINE",
"507.4 500 LINE"
);
},
{
closed = 1;
nodes = (
"407.4 -210 OFFCURVE",
"507.4 -140 OFFCURVE",
"507.4 -10 CURVE",
"427.4 10 LINE",
"427.4 -90 OFFCURVE",
"367.4 -133 OFFCURVE",
"287.4 -133 CURVE",
"159.672 -133 LINE",
"159.672 -210 LINE",
"287.4 -210 LINE"
);
},
{
closed = 1;
nodes = (
"403 -10 OFFCURVE",
"437 147.51 OFFCURVE",
"437 249 CURVE SMOOTH",
"437 391.628 OFFCURVE",
"406.656 510 OFFCURVE",
"257 510 CURVE SMOOTH",
"139 510 OFFCURVE",
"40 399 OFFCURVE",
"40 249 CURVE SMOOTH",
"40 98 OFFCURVE",
"139 -10 OFFCURVE",
"257 -10 CURVE SMOOTH"
);
},
{
closed = 1;
nodes = (
"186 67 OFFCURVE",
"120 142 OFFCURVE",
"120 249 CURVE SMOOTH",
"120 356 OFFCURVE",
"177 433 OFFCURVE",
"277 433 CURVE SMOOTH",
"377.366 433 OFFCURVE",
"427 359 OFFCURVE",
"427 249 CURVE SMOOTH",
"427 149 OFFCURVE",
"379 67 OFFCURVE",
"277 67 CURVE SMOOTH"
);
}
);
width = 587.4;
},
{
anchors = (
{
name = bottom;
position = "{246.71, -210}";
},
{
name = center;
position = "{243.31, 250}";
},
{
name = ogonek;
position = "{330.31, 10}";
},
{
name = top;
position = "{244.143, 510}";
},
{
name = topright;
position = "{507.31, 500}";
}
);
layerId = "BC735296-CD3A-4FA4-9AA9-EE2D747BC69E";
paths = (
{
closed = 1;
nodes = (
"353.81 79.333 OFFCURVE",
"449.616 158.368 OFFCURVE",
"449.616 292.535 CURVE SMOOTH",
"449.616 370.995 OFFCURVE",
"413.459 433.228 OFFCURVE",
"339.41 470.506 CURVE",
"312.427 498.02 LINE",
"290.81 505.88 OFFCURVE",
"267.742 510 OFFCURVE",
"244.143 510 CURVE SMOOTH",
"133.643 510 OFFCURVE",
"37.004 425.868 OFFCURVE",
"37.004 292.535 CURVE SMOOTH",
"37.004 158.368 OFFCURVE",
"136.643 79.333 OFFCURVE",
"244.143 79.333 CURVE SMOOTH"
);
},
{
closed = 1;
nodes = (
"177.671 154.306 OFFCURVE",
"117.004 203.16 OFFCURVE",
"117.004 292.535 CURVE SMOOTH",
"117.004 383.91 OFFCURVE",
"178.435 434.361 OFFCURVE",
"244.074 434.361 CURVE SMOOTH",
"309.713 434.361 OFFCURVE",
"369.616 383.146 OFFCURVE",
"369.616 292.535 CURVE SMOOTH",
"369.616 203.16 OFFCURVE",
"308.949 154.306 OFFCURVE",
"244.074 154.306 CURVE SMOOTH"
);
},
{
closed = 1;
nodes = (
"508.986 499.901 LINE",
"291.426 500 LINE",
"301.426 493 LINE",
"301.426 493 OFFCURVE",
"409.573 413.901 OFFCURVE",
"508.986 413.901 CURVE"
);
},
{
closed = 1;
nodes = (
"177.024 0 LINE",
"146.359 0 OFFCURVE",
"131.143 13.657 OFFCURVE",
"131.143 34.333 CURVE SMOOTH",
"131.143 67.721 OFFCURVE",
"172.018 75.168 OFFCURVE",
"244.143 79.333 CURVE",
"196.143 90.333 LINE",
"133.119 99.812 OFFCURVE",
"51.143 84.333 OFFCURVE",
"51.143 8.333 CURVE SMOOTH",
"51.143 -45.667 OFFCURVE",
"92.024 -77.016 OFFCURVE",
"181.024 -77.016 CURVE",
"280.51 -77.016 LINE",
"353.51 -77.016 OFFCURVE",
"390.51 -108.016 OFFCURVE",
"390.51 -178.016 CURVE",
"390.51 -200.016 LINE",
"470.51 -200.016 LINE",
"470.51 -158.016 LINE",
"470.51 -38.016 OFFCURVE",
"384.51 -0.016 OFFCURVE",
"280.51 -0.016 CURVE"
);
}
);
width = 537.99;
},
{
anchors = (
{
name = bottom;
position = "{260, -210}";
},
{
name = top;
position = "{282.385, 510}";
}
);
associatedMasterId = "38E161BF-7670-40F4-B2BA-C78FC8454263";
layerId = "64E97B8F-FDC0-4EA7-B785-F2960ED93275";
name = "Regular May 4 17, 14:21";
paths = (
{
closed = 1;
nodes = (
"427.4 500 LINE",
"427.4 10 LINE",
"507.4 -10 LINE",
"507.4 500 LINE"
);
},
{
closed = 1;
nodes = (
"407.4 -210 OFFCURVE",
"507.4 -140 OFFCURVE",
"507.4 -10 CURVE",
"427.4 10 LINE",
"427.4 -90 OFFCURVE",
"367.4 -133 OFFCURVE",
"287.4 -133 CURVE",
"159.672 -133 LINE",
"159.672 -210 LINE",
"287.4 -210 LINE"
);
},
{
closed = 1;
nodes = (
"403 -10 OFFCURVE",
"437 147.51 OFFCURVE",
"437 249 CURVE SMOOTH",
"437 391.628 OFFCURVE",
"406.656 510 OFFCURVE",
"257 510 CURVE SMOOTH",
"139 510 OFFCURVE",
"40 399 OFFCURVE",
"40 249 CURVE SMOOTH",
"40 98 OFFCURVE",
"139 -10 OFFCURVE",
"257 -10 CURVE SMOOTH"
);
},
{
closed = 1;
nodes = (
"186 67 OFFCURVE",
"120 142 OFFCURVE",
"120 249 CURVE SMOOTH",
"120 356 OFFCURVE",
"177 433 OFFCURVE",
"277 433 CURVE SMOOTH",
"377.366 433 OFFCURVE",
"427 359 OFFCURVE",
"427 249 CURVE SMOOTH",
"427 149 OFFCURVE",
"379 67 OFFCURVE",
"277 67 CURVE SMOOTH"
);
}
);
width = 587.4;
},
{
anchors = (
{
name = bottom;
position = "{454.27, -210}";
},
{
name = center;
position = "{447.47, 250}";
},
{
name = ogonek;
position = "{621.47, 10}";
},
{
name = top;
position = "{449.136, 510}";
},
{
name = topright;
position = "{975.47, 500}";
}
);
background = {
anchors = (
{
name = bottom;
position = "{480.87, -10}";
},
{
name = center;
position = "{478.87, 250}";
},
{
name = ogonek;
position = "{652.87, 10}";
},
{
name = top;
position = "{480.87, 510}";
},
{
name = topright;
position = "{1006.87, 500}";
}
);
paths = (
{
closed = 1;
nodes = (
"806.87 -15 OFFCURVE",
"961.87 68 OFFCURVE",
"961.87 254 CURVE SMOOTH",
"961.87 439 OFFCURVE",
"806.87 525 OFFCURVE",
"480.87 525 CURVE SMOOTH",
"152.87 525 OFFCURVE",
"-4.13 439 OFFCURVE",
"-4.13 254 CURVE SMOOTH",
"-4.13 68 OFFCURVE",
"152.87 -15 OFFCURVE",
"480.87 -15 CURVE SMOOTH"
);
},
{
closed = 1;
nodes = (
"324.87 133 OFFCURVE",
"240.87 172 OFFCURVE",
"240.87 254 CURVE SMOOTH",
"240.87 336 OFFCURVE",
"326.87 376 OFFCURVE",
"480.87 376 CURVE SMOOTH",
"634.87 376 OFFCURVE",
"716.87 335 OFFCURVE",
"716.87 254 CURVE SMOOTH",
"716.87 172 OFFCURVE",
"632.87 133 OFFCURVE",
"480.87 133 CURVE SMOOTH"
);
},
{
closed = 1;
nodes = (
"335.328 221.61 OFFCURVE",
"280.687 243.963 OFFCURVE",
"280.687 294.258 CURVE SMOOTH",
"280.687 345.174 OFFCURVE",
"335.328 366.906 OFFCURVE",
"413.564 366.906 CURVE SMOOTH",
"508.171 366.906 OFFCURVE",
"587.422 353.245 OFFCURVE",
"587.422 294.258 CURVE SMOOTH",
"587.422 235.891 OFFCURVE",
"508.171 221.61 OFFCURVE",
"413.564 221.61 CURVE SMOOTH"
);
}
);
};
layerId = "38E161BF-7670-40F4-B2BA-C78FC8454263";
paths = (
{
closed = 1;
nodes = (
"738.47 69.333 OFFCURVE",
"860.082 138.368 OFFCURVE",
"860.082 262.535 CURVE SMOOTH",
"860.082 400.995 OFFCURVE",
"631.188 446.402 OFFCURVE",
"529.67 465.506 CURVE",
"585.704 493.02 LINE",
"542.47 500.88 OFFCURVE",
"496.334 505 OFFCURVE",
"449.136 505 CURVE SMOOTH",
"158.136 505 OFFCURVE",
"34.997 415.868 OFFCURVE",
"34.997 282.535 CURVE SMOOTH",
"34.997 138.368 OFFCURVE",
"164.136 69.333 OFFCURVE",
"449.136 69.333 CURVE SMOOTH"
);
},
{
closed = 1;
nodes = (
"314.082 199.553 OFFCURVE",
"262.718 234.793 OFFCURVE",
"262.718 279.105 CURVE SMOOTH",
"262.718 329.418 OFFCURVE",
"315.763 360.114 OFFCURVE",
"449.169 360.114 CURVE SMOOTH",
"582.575 360.114 OFFCURVE",
"631.861 328.577 OFFCURVE",
"631.861 279.105 CURVE SMOOTH",
"631.861 234.793 OFFCURVE",
"580.894 199.553 OFFCURVE",
"449.169 199.553 CURVE SMOOTH"
);
},
{
closed = 1;
nodes = (
"948.822 504.901 LINE",
"449.136 505 LINE",
"529.67 465.506 LINE",
"529.67 465.506 OFFCURVE",
"749.996 368.901 OFFCURVE",
"948.822 378.901 CURVE"
);
},
{
closed = 1;
nodes = (
"346.898 0 LINE",
"316.568 0 OFFCURVE",
"299.497 7.657 OFFCURVE",
"299.497 27.333 CURVE SMOOTH",
"299.497 60.21 OFFCURVE",
"337.43 69.333 OFFCURVE",
"449.136 69.333 CURVE",
"353.136 80.333 LINE",
"150.059 80.333 OFFCURVE",
"54.997 54.333 OFFCURVE",
"54.997 -31.667 CURVE SMOOTH",
"54.997 -85.667 OFFCURVE",
"82.898 -147.016 OFFCURVE",
"272.898 -147.016 CURVE",
"551.87 -147.016 LINE",
"627.87 -147.016 OFFCURVE",
"661.87 -147.576 OFFCURVE",
"661.87 -188.016 CURVE",
"661.87 -215.016 LINE",
"901.87 -215.016 LINE",
"901.87 -158.016 LINE",
"901.87 -38.016 OFFCURVE",
"839.87 -0.016 OFFCURVE",
"641.87 -0.016 CURVE"
);
}
);
width = 968.87;
},
{
anchors = (
{
name = bottom;
position = "{260, -210}";
},
{
name = top;
position = "{282.385, 510}";
}
);
associatedMasterId = "38E161BF-7670-40F4-B2BA-C78FC8454263";
layerId = "085188CA-4EDD-40CA-A439-DD15B8B363E1";
name = "Regular May 4 17, 14:21";
paths = (
{
closed = 1;
nodes = (
"427.4 500 LINE",
"427.4 10 LINE",
"507.4 -10 LINE",
"507.4 500 LINE"
);
},
{
closed = 1;
nodes = (
"407.4 -210 OFFCURVE",
"507.4 -140 OFFCURVE",
"507.4 -10 CURVE",
"427.4 10 LINE",
"427.4 -90 OFFCURVE",
"367.4 -133 OFFCURVE",
"287.4 -133 CURVE",
"159.672 -133 LINE",
"159.672 -210 LINE",
"287.4 -210 LINE"
);
},
{
closed = 1;
nodes = (
"403 -10 OFFCURVE",
"437 147.51 OFFCURVE",
"437 249 CURVE SMOOTH",
"437 391.628 OFFCURVE",
"406.656 510 OFFCURVE",
"257 510 CURVE SMOOTH",
"139 510 OFFCURVE",
"40 399 OFFCURVE",
"40 249 CURVE SMOOTH",
"40 98 OFFCURVE",
"139 -10 OFFCURVE",
"257 -10 CURVE SMOOTH"
);
},
{
closed = 1;
nodes = (
"186 67 OFFCURVE",
"120 142 OFFCURVE",
"120 249 CURVE SMOOTH",
"120 356 OFFCURVE",
"177 433 OFFCURVE",
"277 433 CURVE SMOOTH",
"377.366 433 OFFCURVE",
"427 359 OFFCURVE",
"427 249 CURVE SMOOTH",
"427 149 OFFCURVE",
"379 67 OFFCURVE",
"277 67 CURVE SMOOTH"
);
}
);
width = 587.4;
},
{
anchors = (
{
name = bottom;
position = "{311.566, -210}";
},
{
name = center;
position = "{307.103, 250}";
},
{
name = ogonek;
position = "{421.291, 10}";
},
{
name = top;
position = "{308.196, 510}";
},
{
name = topright;
position = "{653.603, 500}";
}
);
layerId = "3FBA4204-9B78-4099-9F7B-502DDE19710D";
paths = (
{
closed = 1;
nodes = (
"474.019 76.208 OFFCURVE",
"577.89 152.118 OFFCURVE",
"577.89 283.16 CURVE SMOOTH",
"577.89 380.37 OFFCURVE",
"481.502 437.345 OFFCURVE",
"398.869 468.943 CURVE",
"397.829 496.457 LINE",
"369.457 504.317 OFFCURVE",
"339.18 508.438 OFFCURVE",
"308.206 508.438 CURVE SMOOTH",
"141.3 508.438 OFFCURVE",
"36.38 422.743 OFFCURVE",
"36.38 289.41 CURVE SMOOTH",
"36.38 152.118 OFFCURVE",
"145.238 76.208 OFFCURVE",
"308.206 76.208 CURVE SMOOTH"
);
},
{
closed = 1;
nodes = (
"220.303 169.696 OFFCURVE",
"162.543 213.045 OFFCURVE",
"162.543 288.338 CURVE SMOOTH",
"162.543 363.631 OFFCURVE",
"221.353 408.909 OFFCURVE",
"308.169 408.909 CURVE SMOOTH",
"394.986 408.909 OFFCURVE",
"451.571 362.843 OFFCURVE",
"451.571 288.338 CURVE SMOOTH",
"451.571 213.045 OFFCURVE",
"393.935 169.696 OFFCURVE",
"308.169 169.696 CURVE SMOOTH"
);
},
{
closed = 1;
nodes = (
"646.438 496.464 LINE",
"340.714 496.562 LINE",
"365.755 479.408 LINE",
"365.755 479.408 OFFCURVE",
"515.958 394.839 OFFCURVE",
"646.438 397.964 CURVE"
);
},
{
closed = 1;
nodes = (
"230.113 0 LINE",
"199.552 0 OFFCURVE",
"183.757 11.782 OFFCURVE",
"183.757 32.145 CURVE SMOOTH",
"183.757 65.374 OFFCURVE",
"223.712 73.345 OFFCURVE",
"308.206 76.208 CURVE",
"245.206 87.208 LINE",
"138.416 93.725 OFFCURVE",
"52.351 74.958 OFFCURVE",
"52.351 -4.167 CURVE SMOOTH",
"52.351 -58.167 OFFCURVE",
"89.175 -98.891 OFFCURVE",
"209.738 -98.891 CURVE",
"365.313 -98.891 LINE",
"433.001 -98.891 OFFCURVE",
"475.313 -119.754 OFFCURVE",
"475.313 -181.141 CURVE",
"475.313 -204.703 LINE",
"605.313 -204.703 LINE",
"605.313 -158.016 LINE",
"605.313 -38.016 OFFCURVE",
"526.813 -0.016 OFFCURVE",
"393.438 -0.016 CURVE"
);
}
);
width = 671.26813;
}
);
leftKerningGroup = o;
leftMetricsKey = o;
rightKerningGroup = g;
unicode = 0067;
},
{
glyphname = h;
lastChange = "2020-07-29 06:28:48 +0000";
layers = (
{
anchors = (
{
name = bottom;
position = "{289, 0}";
},
{
name = center;
position = "{289, 250}";
},
{
name = top;
position = "{324, 510}";
}
);
layerId = "BC735296-CD3A-4FA4-9AA9-EE2D747BC69E";
paths = (
{
closed = 1;
nodes = (
"77 0 LINE",
"157 0 LINE",
"157 699.692 LINE",
"77 699.692 LINE"
);
},
{
closed = 1;
nodes = (
"421 0 LINE",
"501 0 LINE",
"501 334 LINE",
"421 314 LINE"
);
},
{
closed = 1;
nodes = (
"501 443.397 OFFCURVE",
"435.939 510 OFFCURVE",
"329 510 CURVE SMOOTH",
"237.46 510 OFFCURVE",
"165.257 436.207 OFFCURVE",
"151 325 CURVE",
"152 267 LINE",
"160.98 361.54 OFFCURVE",
"229.76 430 OFFCURVE",
"313 430 CURVE SMOOTH",
"384.69 430 OFFCURVE",
"421 390.904 OFFCURVE",
"421 314 CURVE",
"501 334 LINE"
);
}
);
width = 566;
},
{
anchors = (
{
name = bottom;
position = "{509, 0}";
},
{
name = center;
position = "{179.355, 564.686}";
},
{
name = top;
position = "{559, 510}";
}
);
layerId = "38E161BF-7670-40F4-B2BA-C78FC8454263";
paths = (
{
closed = 1;
nodes = (
"55 0 LINE",
"295 0 LINE",
"295 690.33 LINE",
"55 690.33 LINE"
);
},
{
closed = 1;
nodes = (
"723 0 LINE",
"963 0 LINE",
"963 282 LINE",
"723 182 LINE"
);
},
{
closed = 1;
nodes = (
"963 452 OFFCURVE",
"811 505 OFFCURVE",
"655 505 CURVE SMOOTH",
"405 505 OFFCURVE",
"293 354 OFFCURVE",
"283 315 CURVE",
"285 267 LINE",
"285 267 OFFCURVE",
"383 320 OFFCURVE",
"513 320 CURVE SMOOTH",
"679 320 OFFCURVE",
"723 272 OFFCURVE",
"723 182 CURVE",
"963 282 LINE"
);
}
);
width = 1008;
},
{
anchors = (
{
name = bottom;
position = "{356.375, 0}";
},
{
name = center;
position = "{253.361, 348.339}";
},
{
name = top;
position = "{396.062, 510}";
}
);
layerId = "3FBA4204-9B78-4099-9F7B-502DDE19710D";
paths = (
{
closed = 1;
nodes = (
"68.75 0 LINE",
"198.75 0 LINE",
"198.75 696.766 LINE",
"68.75 696.766 LINE"
);
},
{
closed = 1;
nodes = (
"514 0 LINE",
"644 0 LINE",
"644 317.75 LINE",
"514 272.75 LINE"
);
},
{
closed = 1;
nodes = (
"644 446.085 OFFCURVE",
"551.771 508.438 OFFCURVE",
"429.5 508.438 CURVE SMOOTH",
"288.441 508.438 OFFCURVE",
"203.802 410.517 OFFCURVE",
"190.875 321.875 CURVE",
"192.188 267 LINE",
"198.361 331.996 OFFCURVE",
"276.272 395.625 OFFCURVE",
"374.125 395.625 CURVE SMOOTH",
"475.287 395.625 OFFCURVE",
"514 353.746 OFFCURVE",
"514 272.75 CURVE",
"644 317.75 LINE"
);
}
);
width = 701.375;
}
);
leftKerningGroup = n;
rightKerningGroup = n;
rightMetricsKey = n;
unicode = 0068;
},
{
glyphname = i;
lastChange = "2020-07-29 06:28:48 +0000";
layers = (
{
anchors = (
{
name = bottom;
position = "{111.944, 0}";
}
);
components = (
{
alignment = -1;
name = idotless;
transform = "{1, 0, 0, 1, 11.944, 0}";
}
);
layerId = "BC735296-CD3A-4FA4-9AA9-EE2D747BC69E";
paths = (
{
closed = 1;
nodes = (
"59.995 700.403 LINE",
"59.995 602.659 LINE",
"163.892 602.659 LINE",
"163.892 700.403 LINE"
);
}
);
width = 223.89;
},
{
anchors = (
{
name = bottom;
position = "{181.999, 0}";
}
);
components = (
{
alignment = -1;
name = idotless;
transform = "{1, 0, 0, 1, 6.999, 0}";
}
);
layerId = "38E161BF-7670-40F4-B2BA-C78FC8454263";
paths = (
{
closed = 1;
nodes = (
"55 747.403 LINE",
"55 596.659 LINE",
"309 596.659 LINE",
"309 747.403 LINE"
);
}
);
width = 364;
},
{
anchors = (
{
name = bottom;
position = "{133.836, 0}";
}
);
components = (
{
alignment = -1;
name = idotless;
transform = "{1, 0, 0, 1, 10.399, 0}";
}
);
layerId = "3FBA4204-9B78-4099-9F7B-502DDE19710D";
paths = (
{
closed = 1;
nodes = (
"58.434 715.091 LINE",
"58.434 600.784 LINE",
"209.238 600.784 LINE",
"209.238 715.091 LINE"
);
}
);
width = 267.67437;
}
);
leftMetricsKey = idotless;
rightMetricsKey = idotless;
unicode = 0069;
},
{
glyphname = idotless;
lastChange = "2020-07-29 06:28:48 +0000";
layers = (
{
anchors = (
{
name = bottom;
position = "{100, 0}";
},
{
name = ogonek;
position = "{148, 0}";
},
{
name = top;
position = "{100, 510}";
}
);
layerId = "BC735296-CD3A-4FA4-9AA9-EE2D747BC69E";
paths = (
{
closed = 1;
nodes = (
"60 0 LINE",
"140 0 LINE",
"140 500 LINE",
"60 500 LINE"
);
}
);
width = 200;
},
{
anchors = (
{
name = bottom;
position = "{175, 0}";
},
{
name = ogonek;
position = "{173.115, 0}";
},
{
name = top;
position = "{175, 505}";
}
);
layerId = "38E161BF-7670-40F4-B2BA-C78FC8454263";
paths = (
{
closed = 1;
nodes = (
"55 0 LINE",
"295 0 LINE",
"295 490 LINE",
"55 490 LINE"
);
}
);
width = 350;
},
{
anchors = (
{
name = bottom;
position = "{123.438, 0}";
},
{
name = ogonek;
position = "{182.375, 0}";
},
{
name = top;
position = "{123.438, 508.438}";
}
);
layerId = "3FBA4204-9B78-4099-9F7B-502DDE19710D";
paths = (
{
closed = 1;
nodes = (
"58.438 0 LINE",
"188.438 0 LINE",
"188.438 496.875 LINE",
"58.438 496.875 LINE"
);
}
);
width = 246.875;
}
);
unicode = 0131;
},
{
glyphname = j;
lastChange = "2020-07-29 06:28:48 +0000";
layers = (
{
background = {
components = (
{
name = i;
transform = "{1, 0, 0, 1, -2, 0}";
}
);
};
layerId = "BC735296-CD3A-4FA4-9AA9-EE2D747BC69E";
paths = (
{
closed = 1;
nodes = (
"72.946 -200 LINE",
"152.946 -200 LINE",
"152.946 500 LINE",
"72.946 500 LINE"
);
},
{
closed = 1;
nodes = (
"59.998 700.403 LINE",
"59.998 602.659 LINE",
"163.895 602.659 LINE",
"163.895 700.403 LINE"
);
}
);
width = 223.9;
},
{
layerId = "38E161BF-7670-40F4-B2BA-C78FC8454263";
paths = (
{
closed = 1;
nodes = (
"61.999 -200 LINE",
"301.999 -200 LINE",
"301.999 490 LINE",
"61.999 490 LINE"
);
},
{
closed = 1;
nodes = (
"55 747.403 LINE",
"55 596.659 LINE",
"309 596.659 LINE",
"309 747.403 LINE"
);
}
);
width = 364;
},
{
layerId = "3FBA4204-9B78-4099-9F7B-502DDE19710D";
paths = (
{
closed = 1;
nodes = (
"69.525 -200 LINE",
"199.525 -200 LINE",
"199.525 496.875 LINE",
"69.525 496.875 LINE"
);
},
{
closed = 1;
nodes = (
"58.436 715.091 LINE",
"58.436 600.784 LINE",
"209.24 600.784 LINE",
"209.24 715.091 LINE"
);
}
);
width = 267.68125;
}
);
leftKerningGroup = j;
leftMetricsKey = i;
rightMetricsKey = i;
unicode = 006A;
},
{
glyphname = k;
lastChange = "2020-07-29 06:28:48 +0000";
layers = (
{
anchors = (
{
name = bottom;
position = "{269, 0}";
},
{
name = top;
position = "{269, 500}";
}
);
layerId = "BC735296-CD3A-4FA4-9AA9-EE2D747BC69E";
paths = (
{
closed = 1;
nodes = (
"77 0 LINE",
"157 0 LINE",
"157 700 LINE",
"77 700 LINE"
);
},
{
closed = 1;
nodes = (
"159.109 278.534 LINE",
"406 0 LINE",
"508 0 LINE",
"246 302 LINE"
);
},
{
closed = 1;
nodes = (
"159.109 278.534 LINE",
"225.579 237.537 LINE",
"491 500 LINE",
"377 500 LINE"
);
}
);
width = 518;
},
{
anchors = (
{
name = bottom;
position = "{439, 0}";
},
{
name = top;
position = "{459, 500}";
}
);
layerId = "38E161BF-7670-40F4-B2BA-C78FC8454263";
paths = (
{
closed = 1;
nodes = (
"55 0 LINE",
"295 0 LINE",
"295 690 LINE",
"55 690 LINE"
);
},
{
closed = 1;
nodes = (
"299.218 278.534 LINE",
"633 0 LINE",
"937 0 LINE",
"565 302 LINE"
);
},
{
closed = 1;
nodes = (
"299.218 278.534 LINE",
"538.158 235.537 LINE",
"903 490 LINE",
"585 490 LINE"
);
}
);
width = 942;
},
{
anchors = (
{
name = bottom;
position = "{323.875, 0}";
},
{
name = top;
position = "{327, 500}";
}
);
layerId = "3FBA4204-9B78-4099-9F7B-502DDE19710D";
paths = (
{
closed = 1;
nodes = (
"68.75 0 LINE",
"198.75 0 LINE",
"198.75 696.875 LINE",
"68.75 696.875 LINE"
);
},
{
closed = 1;
nodes = (
"201.518 278.534 LINE",
"475.562 0.375 LINE",
"640.688 0.375 LINE",
"341.312 300 LINE"
);
},
{
closed = 1;
nodes = (
"201.518 278.534 LINE",
"321.885 236.912 LINE",
"618.375 496.875 LINE",
"440.625 496.875 LINE"
);
}
);
width = 649.125;
}
);
leftMetricsKey = h;
rightKerningGroup = k;
unicode = 006B;
},
{
glyphname = l;
lastChange = "2020-07-29 06:28:48 +0000";
layers = (
{
anchors = (
{
name = bottom;
position = "{115.555, 0}";
},
{
name = center;
position = "{121, 371.114}";
},
{
name = top;
position = "{118.35, 700}";
},
{
name = topright;
position = "{245, 500}";
}
);
background = {
paths = (
{
closed = 1;
nodes = (
"-9 424 LINE",
"103 424 LINE",
"275 424 LINE",
"275 499 LINE",
"102 499 LINE",
"-9 499 LINE"
);
},
{
closed = 1;
nodes = (
"75 145 LINE",
"155 145 LINE",
"155 630 LINE",
"75 630 LINE"
);
},
{
closed = 1;
nodes = (
"265 59 LINE",
"185 58.648 OFFCURVE",
"155 78.669 OFFCURVE",
"155 145 CURVE",
"75 145 LINE",
"75 35 OFFCURVE",
"135 -15 OFFCURVE",
"265 -15 CURVE"
);
}
);
};
layerId = "BC735296-CD3A-4FA4-9AA9-EE2D747BC69E";
paths = (
{
closed = 1;
nodes = (
"75 0 LINE",
"155 0 LINE",
"155 700 LINE",
"75 700 LINE"
);
}
);
width = 230;
},
{
anchors = (
{
name = bottom;
position = "{181.11, 0}";
},
{
name = center;
position = "{192, 371.114}";
},
{
name = top;
position = "{186.7, 700}";
},
{
name = topright;
position = "{510, 441}";
}
);
background = {
paths = (
{
closed = 1;
nodes = (
"-64 424 LINE",
"48 424 LINE",
"220 424 LINE",
"220 499 LINE",
"47 499 LINE",
"-64 499 LINE"
);
},
{
closed = 1;
nodes = (
"20 145 LINE",
"100 145 LINE",
"100 630 LINE",
"20 630 LINE"
);
},
{
closed = 1;
nodes = (
"210 59 LINE",
"130 58.648 OFFCURVE",
"100 78.669 OFFCURVE",
"100 145 CURVE",
"20 145 LINE",
"20 35 OFFCURVE",
"80 -15 OFFCURVE",
"210 -15 CURVE"
);
}
);
};
layerId = "38E161BF-7670-40F4-B2BA-C78FC8454263";
paths = (
{
closed = 1;
nodes = (
"60 0 LINE",
"300 0 LINE",
"300 690 LINE",
"60 690 LINE"
);
}
);
width = 360;
},
{
anchors = (
{
name = bottom;
position = "{136.041, 0}";
},
{
name = center;
position = "{143.188, 371.114}";
},
{
name = top;
position = "{139.709, 700}";
},
{
name = topright;
position = "{327.812, 481.562}";
}
);
layerId = "3FBA4204-9B78-4099-9F7B-502DDE19710D";
paths = (
{
closed = 1;
nodes = (
"70.312 0 LINE",
"200.312 0 LINE",
"200.312 696.875 LINE",
"70.312 696.875 LINE"
);
}
);
width = 270.625;
}
);
unicode = 006C;
},
{
glyphname = lslash;
lastChange = "2020-07-29 06:28:48 +0000";
layers = (
{
anchors = (
{
name = _center;
position = "{124.89, 350}";
}
);
components = (
{
name = l;
transform = "{1, 0, 0, 1, 9.89, 0}";
}
);
layerId = "BC735296-CD3A-4FA4-9AA9-EE2D747BC69E";
paths = (
{
closed = 1;
nodes = (
"-15.004 292.913 LINE",
"19.996 239.913 LINE",
"264.784 407.087 LINE",
"227.784 460.087 LINE"
);
}
);
width = 249.78;
},
{
anchors = (
{
name = _center;
position = "{190.628, 345}";
}
);
components = (
{
name = l;
transform = "{1, 0, 0, 1, 10.628, 0}";
}
);
layerId = "38E161BF-7670-40F4-B2BA-C78FC8454263";
paths = (
{
closed = 1;
nodes = (
"-30.004 232.775 LINE",
"4.996 179.775 LINE",
"411.26 457.225 LINE",
"374.26 510.225 LINE"
);
}
);
width = 381.26;
},
{
anchors = (
{
name = _center;
position = "{145.433, 348.438}";
}
);
components = (
{
alignment = -1;
name = l;
transform = "{1, 0, 0, 1, 10.121, 0}";
}
);
layerId = "3FBA4204-9B78-4099-9F7B-502DDE19710D";
paths = (
{
closed = 1;
nodes = (
"-19.691 274.12 LINE",
"15.308 221.12 LINE",
"310.558 422.755 LINE",
"273.558 475.755 LINE"
);
}
);
width = 290.8675;
}
);
leftMetricsKey = "=l-90";
rightMetricsKey = "=l-90";
unicode = 0142;
},
{
glyphname = m;
lastChange = "2020-07-29 06:28:48 +0000";
layers = (
{
anchors = (
{
name = bottom;
position = "{447, 0}";
},
{
name = top;
position = "{476, 500}";
}
);
background = {
paths = (
{
closed = 1;
nodes = (
"63 484 OFFCURVE",
"63 383 OFFCURVE",
"63 367 CURVE",
"63 0 LINE",
"143 0 LINE",
"143 347 LINE",
"143 359 OFFCURVE",
"143 488 OFFCURVE",
"143 500 CURVE",
"63 500 LINE"
);
},
{
closed = 1;
nodes = (
"407 0 LINE",
"487 0 LINE",
"487 312 LINE",
"407 312 LINE"
);
},
{
closed = 1;
nodes = (
"487 472 OFFCURVE",
"400 510 OFFCURVE",
"300 510 CURVE SMOOTH",
"204 510 OFFCURVE",
"138 416 OFFCURVE",
"114 375 CURVE",
"106 376 LINE",
"106 365 OFFCURVE",
"109 355 OFFCURVE",
"109 355 CURVE",
"138 307 LINE",
"138 307 OFFCURVE",
"201 430 OFFCURVE",
"292 430 CURVE SMOOTH",
"352 430 OFFCURVE",
"407 402 OFFCURVE",
"407 312 CURVE",
"487 312 LINE"
);
},
{
closed = 1;
nodes = (
"743 0 LINE",
"823 0 LINE",
"823 312 LINE",
"743 312 LINE"
);
},
{
closed = 1;
nodes = (
"823 472 OFFCURVE",
"736 510 OFFCURVE",
"646 510 CURVE SMOOTH",
"547 510 OFFCURVE",
"483 420 OFFCURVE",
"462 378 CURVE",
"458 362 LINE",
"448 347 OFFCURVE",
"442 337 OFFCURVE",
"442 337 CURVE",
"474 297 LINE",
"474 297 OFFCURVE",
"529 430 OFFCURVE",
"636 430 CURVE SMOOTH",
"686 430 OFFCURVE",
"743 412 OFFCURVE",
"743 312 CURVE",
"823 312 LINE"
);
}
);
};
components = (
{
name = n;
}
);
layerId = "BC735296-CD3A-4FA4-9AA9-EE2D747BC69E";
paths = (
{
closed = 1;
nodes = (
"744.956 0 LINE",
"824.956 0 LINE",
"824.956 334 LINE",
"744.956 314 LINE"
);
},
{
closed = 1;
nodes = (
"824.956 443.397 OFFCURVE",
"759.895 510 OFFCURVE",
"652.956 510 CURVE SMOOTH",
"561.416 510 OFFCURVE",
"489.213 436.207 OFFCURVE",
"474.956 325 CURVE",
"475.956 267 LINE",
"484.936 361.54 OFFCURVE",
"553.716 430 OFFCURVE",
"636.956 430 CURVE SMOOTH",
"708.646 430 OFFCURVE",
"744.956 390.904 OFFCURVE",
"744.956 314 CURVE",
"824.956 334 LINE"
);
}
);
width = 889.96;
},
{
anchors = (
{
name = bottom;
position = "{890, 0}";
},
{
name = top;
position = "{948, 500}";
}
);
background = {
components = (
{
name = n;
transform = "{1, 0, 0, 1, 667.961, 0}";
},
{
name = n;
}
);
};
components = (
{
name = n;
}
);
layerId = "38E161BF-7670-40F4-B2BA-C78FC8454263";
paths = (
{
closed = 1;
nodes = (
"1368.917 0 LINE",
"1608.917 0 LINE",
"1608.917 237 LINE",
"1368.917 207 LINE"
);
},
{
closed = 1;
nodes = (
"1608.917 447 OFFCURVE",
"1456.917 505 OFFCURVE",
"1300.917 505 CURVE SMOOTH",
"1070.917 505 OFFCURVE",
"938.917 359 OFFCURVE",
"928.917 320 CURVE",
"930.917 272 LINE",
"930.917 272 OFFCURVE",
"1038.917 345 OFFCURVE",
"1188.917 345 CURVE SMOOTH",
"1324.917 345 OFFCURVE",
"1368.917 307 OFFCURVE",
"1368.917 207 CURVE",
"1608.917 237 LINE"
);
}
);
width = 1653.92;
},
{
anchors = (
{
name = bottom;
position = "{584.062, 0}";
},
{
name = top;
position = "{622.125, 500}";
}
);
components = (
{
alignment = -1;
name = n;
}
);
layerId = "3FBA4204-9B78-4099-9F7B-502DDE19710D";
paths = (
{
closed = 1;
nodes = (
"938.569 0 LINE",
"1068.569 0 LINE",
"1068.569 303.688 LINE",
"938.569 280.562 LINE"
);
},
{
closed = 1;
nodes = (
"1068.569 444.523 OFFCURVE",
"976.339 508.438 OFFCURVE",
"854.069 508.438 CURVE SMOOTH",
"719.26 508.438 OFFCURVE",
"628.37 412.08 OFFCURVE",
"615.444 323.438 CURVE",
"616.756 268.562 LINE",
"622.93 333.559 OFFCURVE",
"703.966 403.438 OFFCURVE",
"808.069 403.438 CURVE SMOOTH",
"899.856 403.438 OFFCURVE",
"938.569 364.684 OFFCURVE",
"938.569 280.562 CURVE",
"1068.569 303.688 LINE"
);
}
);
width = 1125.9475;
}
);
leftKerningGroup = n;
leftMetricsKey = n;
rightKerningGroup = n;
rightMetricsKey = n;
unicode = 006D;
},
{
glyphname = n;
lastChange = "2020-07-29 06:28:48 +0000";
layers = (
{
anchors = (
{
name = bottom;
position = "{277, 0}";
},
{
name = top;
position = "{302, 510}";
}
);
background = {
components = (
{
name = a;
transform = "{-1, 0, 0, 1, 570, 0}";
}
);
};
layerId = "BC735296-CD3A-4FA4-9AA9-EE2D747BC69E";
paths = (
{
closed = 1;
nodes = (
"65 0 LINE",
"145 0 LINE",
"145 500 LINE",
"65 500 LINE"
);
},
{
closed = 1;
nodes = (
"409 0 LINE",
"489 0 LINE",
"489 334 LINE",
"409 314 LINE"
);
},
{
closed = 1;
nodes = (
"489 443.397 OFFCURVE",
"423.939 510 OFFCURVE",
"317 510 CURVE SMOOTH",
"225.46 510 OFFCURVE",
"153.257 436.207 OFFCURVE",
"139 325 CURVE",
"140 267 LINE",
"148.98 361.54 OFFCURVE",
"217.76 430 OFFCURVE",
"301 430 CURVE SMOOTH",
"372.69 430 OFFCURVE",
"409 390.904 OFFCURVE",
"409 314 CURVE",
"489 334 LINE"
);
}
);
width = 554;
},
{
anchors = (
{
name = bottom;
position = "{499, 0}";
},
{
name = top;
position = "{549, 510}";
}
);
background = {
components = (
{
name = a;
transform = "{-1, 0, 0, 1, 1074.184, 0}";
}
);
};
layerId = "38E161BF-7670-40F4-B2BA-C78FC8454263";
paths = (
{
closed = 1;
nodes = (
"45 0 LINE",
"285 0 LINE",
"285 490 LINE",
"45 490 LINE"
);
},
{
closed = 1;
nodes = (
"713 0 LINE",
"953 0 LINE",
"953 237 LINE",
"713 207 LINE"
);
},
{
closed = 1;
nodes = (
"953 447 OFFCURVE",
"801 505 OFFCURVE",
"645 505 CURVE SMOOTH",
"395 505 OFFCURVE",
"283 359 OFFCURVE",
"273 310 CURVE",
"275 272 LINE",
"275 272 OFFCURVE",
"383 345 OFFCURVE",
"533 345 CURVE SMOOTH",
"669 345 OFFCURVE",
"713 307 OFFCURVE",
"713 207 CURVE",
"953 237 LINE"
);
}
);
width = 998;
},
{
anchors = (
{
name = bottom;
position = "{347.62, 0}";
},
{
name = top;
position = "{380.432, 510}";
}
);
layerId = "3FBA4204-9B78-4099-9F7B-502DDE19710D";
paths = (
{
closed = 1;
nodes = (
"59.995 0 LINE",
"189.995 0 LINE",
"189.995 496.875 LINE",
"59.995 496.875 LINE"
);
},
{
closed = 1;
nodes = (
"505.245 0 LINE",
"635.245 0 LINE",
"635.245 303.688 LINE",
"505.245 280.562 LINE"
);
},
{
closed = 1;
nodes = (
"635.245 444.523 OFFCURVE",
"543.016 508.438 OFFCURVE",
"420.745 508.438 CURVE SMOOTH",
"279.686 508.438 OFFCURVE",
"195.047 412.08 OFFCURVE",
"182.12 320.312 CURVE",
"183.432 268.562 LINE",
"189.606 333.559 OFFCURVE",
"270.642 403.438 OFFCURVE",
"374.745 403.438 CURVE SMOOTH",
"466.532 403.438 OFFCURVE",
"505.245 364.684 OFFCURVE",
"505.245 280.562 CURVE",
"635.245 303.688 LINE"
);
}
);
width = 692.62;
}
);
leftKerningGroup = n;
rightKerningGroup = n;
unicode = 006E;
},
{
glyphname = eng;
lastChange = "2020-07-29 06:28:48 +0000";
layers = (
{
components = (
{
name = n;
}
);
layerId = "BC735296-CD3A-4FA4-9AA9-EE2D747BC69E";
paths = (
{
closed = 1;
nodes = (
"407 0 LINE",
"487 -20 LINE",
"487 84 LINE",
"407 84 LINE"
);
},
{
closed = 1;
nodes = (
"405.421 -210 OFFCURVE",
"487 -132.5 OFFCURVE",
"487 -20 CURVE",
"407 0 LINE",
"407 -87.5 OFFCURVE",
"367.769 -130 OFFCURVE",
"287 -130 CURVE",
"287 -210 LINE"
);
}
);
width = 554;
},
{
components = (
{
name = n;
transform = "{1, 0, 0, 1, -0.004, 0}";
}
);
layerId = "38E161BF-7670-40F4-B2BA-C78FC8454263";
paths = (
{
closed = 1;
nodes = (
"712.996 0 LINE",
"952.996 -70 LINE",
"952.996 84 LINE",
"712.996 84 LINE"
);
},
{
closed = 1;
nodes = (
"879.094 -215 OFFCURVE",
"952.996 -188.211 OFFCURVE",
"952.996 -70 CURVE",
"712.996 0 LINE",
"712.996 -39.777 OFFCURVE",
"680.283 -50 OFFCURVE",
"552.996 -50 CURVE",
"552.996 -215 LINE"
);
}
);
width = 998;
},
{
components = (
{
alignment = -1;
name = n;
transform = "{1, 0, 0, 1, -0.001, 0}";
}
);
layerId = "3FBA4204-9B78-4099-9F7B-502DDE19710D";
paths = (
{
closed = 1;
nodes = (
"502.624 0 LINE",
"632.624 -35.625 LINE",
"632.624 84 LINE",
"502.624 84 LINE"
);
},
{
closed = 1;
nodes = (
"553.444 -211.562 OFFCURVE",
"632.624 -149.91 OFFCURVE",
"632.624 -35.625 CURVE",
"502.624 0 LINE",
"502.624 -72.587 OFFCURVE",
"465.43 -105 OFFCURVE",
"370.124 -105 CURVE",
"370.124 -211.562 LINE"
);
}
);
width = 692.62;
}
);
leftKerningGroup = n;
leftMetricsKey = n;
rightKerningGroup = n;
rightMetricsKey = n;
unicode = 014B;
},
{
glyphname = o;
lastChange = "2020-07-29 06:28:48 +0000";
layers = (
{
anchors = (
{
name = bottom;
position = "{282, -10}";
},
{
name = center;
position = "{281, 250}";
},
{
name = ogonek;
position = "{368, 10}";
},
{
name = top;
position = "{282, 510}";
},
{
name = topright;
position = "{545, 500}";
}
);
layerId = "BC735296-CD3A-4FA4-9AA9-EE2D747BC69E";
paths = (
{
closed = 1;
nodes = (
"410 -10 OFFCURVE",
"525 88 OFFCURVE",
"525 249 CURVE SMOOTH",
"525 409 OFFCURVE",
"410 510 OFFCURVE",
"282 510 CURVE SMOOTH",
"153 510 OFFCURVE",
"37 409 OFFCURVE",
"37 249 CURVE SMOOTH",
"37 88 OFFCURVE",
"153 -10 OFFCURVE",
"282 -10 CURVE SMOOTH"
);
},
{
closed = 1;
nodes = (
"197 65 OFFCURVE",
"117 130 OFFCURVE",
"117 249 CURVE SMOOTH",
"117 368 OFFCURVE",
"198 435 OFFCURVE",
"282 435 CURVE SMOOTH",
"366 435 OFFCURVE",
"445 367 OFFCURVE",
"445 249 CURVE SMOOTH",
"445 130 OFFCURVE",
"365 65 OFFCURVE",
"282 65 CURVE SMOOTH"
);
}
);
width = 562;
},
{
anchors = (
{
name = bottom;
position = "{510, -10}";
},
{
name = center;
position = "{508, 250}";
},
{
name = ogonek;
position = "{682, 10}";
},
{
name = top;
position = "{510, 510}";
},
{
name = topright;
position = "{1036, 500}";
}
);
background = {
components = (
{
name = a;
transform = "{1, 0, 0, 1, -20, 0}";
}
);
};
layerId = "38E161BF-7670-40F4-B2BA-C78FC8454263";
paths = (
{
closed = 1;
nodes = (
"826 -15 OFFCURVE",
"981 58 OFFCURVE",
"981 244 CURVE SMOOTH",
"981 429 OFFCURVE",
"826 505 OFFCURVE",
"510 505 CURVE SMOOTH",
"192 505 OFFCURVE",
"35 429 OFFCURVE",
"35 244 CURVE SMOOTH",
"35 58 OFFCURVE",
"192 -15 OFFCURVE",
"510 -15 CURVE SMOOTH"
);
},
{
closed = 1;
nodes = (
"359 130 OFFCURVE",
"280 167 OFFCURVE",
"280 244 CURVE SMOOTH",
"280 321 OFFCURVE",
"361 360 OFFCURVE",
"510 360 CURVE SMOOTH",
"659 360 OFFCURVE",
"736 320 OFFCURVE",
"736 244 CURVE SMOOTH",
"736 167 OFFCURVE",
"657 130 OFFCURVE",
"510 130 CURVE SMOOTH"
);
}
);
width = 1016;
},
{
anchors = (
{
name = bottom;
position = "{353.25, -10}";
},
{
name = center;
position = "{351.938, 250}";
},
{
name = ogonek;
position = "{466.125, 10}";
},
{
name = top;
position = "{353.25, 510}";
},
{
name = topright;
position = "{698.438, 500}";
}
);
layerId = "3FBA4204-9B78-4099-9F7B-502DDE19710D";
paths = (
{
closed = 1;
nodes = (
"540 -11.562 OFFCURVE",
"667.5 78.625 OFFCURVE",
"667.5 247.438 CURVE SMOOTH",
"667.5 415.25 OFFCURVE",
"540 508.438 OFFCURVE",
"353.25 508.438 CURVE SMOOTH",
"165.188 508.438 OFFCURVE",
"36.375 415.25 OFFCURVE",
"36.375 247.438 CURVE SMOOTH",
"36.375 78.625 OFFCURVE",
"165.188 -11.562 OFFCURVE",
"353.25 -11.562 CURVE SMOOTH"
);
},
{
closed = 1;
nodes = (
"247 88.25 OFFCURVE",
"167.938 144.5 OFFCURVE",
"167.938 247.438 CURVE SMOOTH",
"167.938 350.375 OFFCURVE",
"248.312 408.625 OFFCURVE",
"353.25 408.625 CURVE SMOOTH",
"458.188 408.625 OFFCURVE",
"535.938 349.375 OFFCURVE",
"535.938 247.438 CURVE SMOOTH",
"535.938 144.5 OFFCURVE",
"456.875 88.25 OFFCURVE",
"353.25 88.25 CURVE SMOOTH"
);
}
);
width = 703.875;
}
);
leftKerningGroup = o;
rightKerningGroup = o;
unicode = 006F;
},
{
glyphname = oslash;
lastChange = "2020-07-29 06:28:48 +0000";
layers = (
{
components = (
{
name = o;
}
);
layerId = "BC735296-CD3A-4FA4-9AA9-EE2D747BC69E";
paths = (
{
closed = 1;
nodes = (
"101 7 LINE",
"153 -25 LINE",
"461 495 LINE",
"407 525 LINE"
);
}
);
width = 562;
},
{
components = (
{
name = o;
}
);
layerId = "38E161BF-7670-40F4-B2BA-C78FC8454263";
paths = (
{
closed = 1;
nodes = (
"292.631 -55 LINE",
"344.631 -87 LINE",
"723.369 552.428 LINE",
"669.369 582.428 LINE"
);
}
);
width = 1016;
},
{
components = (
{
alignment = -1;
name = o;
}
);
layerId = "3FBA4204-9B78-4099-9F7B-502DDE19710D";
paths = (
{
closed = 1;
nodes = (
"160.885 -12.375 LINE",
"212.885 -44.375 LINE",
"542.99 512.946 LINE",
"488.99 542.946 LINE"
);
}
);
width = 703.875;
}
);
leftKerningGroup = o;
leftMetricsKey = o;
rightKerningGroup = o;
rightMetricsKey = o;
unicode = 00F8;
},
{
glyphname = p;
lastChange = "2020-07-29 06:28:48 +0000";
layers = (
{
anchors = (
{
name = bottom;
position = "{307.406, -10}";
},
{
name = top;
position = "{303.406, 510}";
}
);
background = {
components = (
{
name = d;
transform = "{-1, 0, 0, -1, 567.966, 500.539}";
}
);
};
layerId = "BC735296-CD3A-4FA4-9AA9-EE2D747BC69E";
paths = (
{
closed = 1;
nodes = (
"430.5 -10 OFFCURVE",
"531.5 98 OFFCURVE",
"531.5 249 CURVE SMOOTH",
"531.5 399 OFFCURVE",
"433.5 510 OFFCURVE",
"314.5 510 CURVE SMOOTH",
"164.844 510 OFFCURVE",
"134.5 391.628 OFFCURVE",
"134.5 249 CURVE SMOOTH",
"134.5 147.51 OFFCURVE",
"168.5 -10 OFFCURVE",
"314.5 -10 CURVE SMOOTH"
);
},
{
closed = 1;
nodes = (
"192.5 66 OFFCURVE",
"144.5 149 OFFCURVE",
"144.5 249 CURVE SMOOTH",
"144.5 359 OFFCURVE",
"207.134 434 OFFCURVE",
"294.5 434 CURVE SMOOTH",
"394.5 434 OFFCURVE",
"451.5 356 OFFCURVE",
"451.5 249 CURVE SMOOTH",
"451.5 142 OFFCURVE",
"386.5 66 OFFCURVE",
"294.5 66 CURVE SMOOTH"
);
},
{
closed = 1;
nodes = (
"65 -200 LINE",
"145 -200 LINE",
"145 395.258 LINE",
"142 500 LINE",
"65 500 LINE"
);
}
);
width = 568.5;
},
{
anchors = (
{
name = bottom;
position = "{575.812, -10}";
},
{
name = top;
position = "{567.812, 510}";
}
);
layerId = "38E161BF-7670-40F4-B2BA-C78FC8454263";
paths = (
{
closed = 1;
nodes = (
"870.528 -15 OFFCURVE",
"1028 72.833 OFFCURVE",
"1028 245 CURVE SMOOTH",
"1028 409 OFFCURVE",
"871 504 OFFCURVE",
"655 504 CURVE SMOOTH",
"415 504 OFFCURVE",
"265 399 OFFCURVE",
"265 245 CURVE SMOOTH",
"265 90 OFFCURVE",
"415 -15 OFFCURVE",
"655 -15 CURVE SMOOTH"
);
},
{
closed = 1;
nodes = (
"412.634 138 OFFCURVE",
"285 160 OFFCURVE",
"285 245 CURVE SMOOTH",
"285 329 OFFCURVE",
"412.634 352 OFFCURVE",
"565 352 CURVE SMOOTH",
"701 352 OFFCURVE",
"779 316 OFFCURVE",
"779 245 CURVE SMOOTH",
"779 173 OFFCURVE",
"701 138 OFFCURVE",
"565 138 CURVE SMOOTH"
);
},
{
closed = 1;
nodes = (
"45 -199.992 LINE",
"285 -199.992 LINE",
"285 300 LINE",
"271 490 LINE",
"45 490 LINE"
);
}
);
width = 1063;
},
{
anchors = (
{
name = bottom;
position = "{392.528, -10}";
},
{
name = top;
position = "{387.278, 510}";
}
);
layerId = "3FBA4204-9B78-4099-9F7B-502DDE19710D";
paths = (
{
closed = 1;
nodes = (
"569.254 -11.562 OFFCURVE",
"687.901 90.135 OFFCURVE",
"687.901 247.75 CURVE SMOOTH",
"687.901 402.125 OFFCURVE",
"571.464 508.125 OFFCURVE",
"422.151 508.125 CURVE SMOOTH",
"244.263 508.125 OFFCURVE",
"176.526 393.932 OFFCURVE",
"176.526 247.75 CURVE SMOOTH",
"176.526 129.538 OFFCURVE",
"246.776 -11.562 OFFCURVE",
"422.151 -11.562 CURVE SMOOTH"
);
},
{
closed = 1;
nodes = (
"262.537 89.188 OFFCURVE",
"189.651 152.438 OFFCURVE",
"189.651 247.75 CURVE SMOOTH",
"189.651 349.625 OFFCURVE",
"272.598 407.688 OFFCURVE",
"380.276 407.688 CURVE SMOOTH",
"491.526 407.688 OFFCURVE",
"555.089 343.5 OFFCURVE",
"555.089 247.75 CURVE SMOOTH",
"555.089 151.688 OFFCURVE",
"486.026 89.188 OFFCURVE",
"380.276 89.188 CURVE SMOOTH"
);
},
{
closed = 1;
nodes = (
"59.995 -199.998 LINE",
"189.995 -199.998 LINE",
"189.995 365.49 LINE",
"183.558 496.875 LINE",
"59.995 496.875 LINE"
);
}
);
width = 724.27625;
}
);
leftMetricsKey = n;
rightMetricsKey = o;
unicode = 0070;
},
{
glyphname = thorn;
lastChange = "2020-07-29 06:28:48 +0000";
layers = (
{
anchors = (
{
name = bottom;
position = "{270, 0}";
},
{
name = top;
position = "{270, 500}";
}
);
layerId = "BC735296-CD3A-4FA4-9AA9-EE2D747BC69E";
paths = (
{
closed = 1;
nodes = (
"430.5 -10 OFFCURVE",
"531.5 98 OFFCURVE",
"531.5 249 CURVE SMOOTH",
"531.5 399 OFFCURVE",
"433.5 510 OFFCURVE",
"314.5 510 CURVE SMOOTH",
"164.844 510 OFFCURVE",
"134.5 391.628 OFFCURVE",
"134.5 249 CURVE SMOOTH",
"134.5 147.51 OFFCURVE",
"168.5 -10 OFFCURVE",
"314.5 -10 CURVE SMOOTH"
);
},
{
closed = 1;
nodes = (
"192.5 67 OFFCURVE",
"144.5 149 OFFCURVE",
"144.5 249 CURVE SMOOTH",
"144.5 359 OFFCURVE",
"207.134 433 OFFCURVE",
"294.5 433 CURVE SMOOTH",
"394.5 433 OFFCURVE",
"451.5 356 OFFCURVE",
"451.5 249 CURVE SMOOTH",
"451.5 142 OFFCURVE",
"386.5 67 OFFCURVE",
"294.5 67 CURVE SMOOTH"
);
},
{
closed = 1;
nodes = (
"65 -200 LINE",
"145 -200 LINE",
"145 395.258 LINE",
"145 699.006 LINE",
"65 699.006 LINE"
);
}
);
width = 568.5;
},
{
anchors = (
{
name = bottom;
position = "{575.812, -10}";
},
{
name = top;
position = "{567.812, 510}";
}
);
layerId = "38E161BF-7670-40F4-B2BA-C78FC8454263";
paths = (
{
closed = 1;
nodes = (
"870.528 -15 OFFCURVE",
"1028 72.833 OFFCURVE",
"1028 245 CURVE SMOOTH",
"1028 409 OFFCURVE",
"871 504 OFFCURVE",
"655 504 CURVE SMOOTH",
"415 504 OFFCURVE",
"265 399 OFFCURVE",
"265 245 CURVE SMOOTH",
"265 90 OFFCURVE",
"415 -15 OFFCURVE",
"655 -15 CURVE SMOOTH"
);
},
{
closed = 1;
nodes = (
"412.634 138 OFFCURVE",
"285 160 OFFCURVE",
"285 245 CURVE SMOOTH",
"285 329 OFFCURVE",
"412.634 352 OFFCURVE",
"565 352 CURVE SMOOTH",
"701 352 OFFCURVE",
"779 316 OFFCURVE",
"779 245 CURVE SMOOTH",
"779 173 OFFCURVE",
"701 138 OFFCURVE",
"565 138 CURVE SMOOTH"
);
},
{
closed = 1;
nodes = (
"45 -199.992 LINE",
"285 -199.992 LINE",
"285 300 LINE",
"285 690.011 LINE",
"45 690.011 LINE"
);
}
);
width = 1063;
},
{
anchors = (
{
name = bottom;
position = "{366.811, -3.125}";
},
{
name = top;
position = "{364.311, 503.125}";
}
);
layerId = "3FBA4204-9B78-4099-9F7B-502DDE19710D";
paths = (
{
closed = 1;
nodes = (
"569.254 -11.562 OFFCURVE",
"687.901 90.135 OFFCURVE",
"687.901 247.75 CURVE SMOOTH",
"687.901 402.125 OFFCURVE",
"571.464 508.125 OFFCURVE",
"422.151 508.125 CURVE SMOOTH",
"244.263 508.125 OFFCURVE",
"176.526 393.932 OFFCURVE",
"176.526 247.75 CURVE SMOOTH",
"176.526 129.538 OFFCURVE",
"246.776 -11.562 OFFCURVE",
"422.151 -11.562 CURVE SMOOTH"
);
},
{
closed = 1;
nodes = (
"262.537 89.188 OFFCURVE",
"189.651 152.438 OFFCURVE",
"189.651 247.75 CURVE SMOOTH",
"189.651 349.625 OFFCURVE",
"272.598 407.688 OFFCURVE",
"380.276 407.688 CURVE SMOOTH",
"491.526 407.688 OFFCURVE",
"555.089 343.5 OFFCURVE",
"555.089 247.75 CURVE SMOOTH",
"555.089 151.688 OFFCURVE",
"486.026 89.188 OFFCURVE",
"380.276 89.188 CURVE SMOOTH"
);
},
{
closed = 1;
nodes = (
"59.995 -199.998 LINE",
"189.995 -199.998 LINE",
"189.995 365.49 LINE",
"189.995 696.195 LINE",
"59.995 696.195 LINE"
);
}
);
width = 724.27625;
}
);
leftMetricsKey = p;
rightMetricsKey = p;
unicode = 00FE;
},
{
glyphname = q;
lastChange = "2020-07-29 06:28:48 +0000";
layers = (
{
anchors = (
{
name = bottom;
position = "{266, -10}";
},
{
name = top;
position = "{262, 510}";
}
);
layerId = "BC735296-CD3A-4FA4-9AA9-EE2D747BC69E";
paths = (
{
closed = 1;
nodes = (
"400 -10 OFFCURVE",
"434 147.51 OFFCURVE",
"434 249 CURVE SMOOTH",
"434 391.628 OFFCURVE",
"403.656 510 OFFCURVE",
"254 510 CURVE SMOOTH",
"136 510 OFFCURVE",
"37 399 OFFCURVE",
"37 249 CURVE SMOOTH",
"37 98 OFFCURVE",
"136 -10 OFFCURVE",
"254 -10 CURVE SMOOTH"
);
},
{
closed = 1;
nodes = (
"183 66 OFFCURVE",
"117 142 OFFCURVE",
"117 249 CURVE SMOOTH",
"117 356 OFFCURVE",
"174 434 OFFCURVE",
"274 434 CURVE SMOOTH",
"374.366 434 OFFCURVE",
"424 359 OFFCURVE",
"424 249 CURVE SMOOTH",
"424 149 OFFCURVE",
"376 66 OFFCURVE",
"274 66 CURVE SMOOTH"
);
},
{
closed = 1;
nodes = (
"424 500 LINE",
"424 407 LINE",
"424 -200 LINE",
"504 -200 LINE",
"504 500 LINE"
);
}
);
width = 584;
},
{
anchors = (
{
name = bottom;
position = "{499, -10}";
},
{
name = top;
position = "{491, 510}";
}
);
layerId = "38E161BF-7670-40F4-B2BA-C78FC8454263";
paths = (
{
closed = 1;
nodes = (
"648 -15 OFFCURVE",
"798 90 OFFCURVE",
"798 245 CURVE SMOOTH",
"798 399 OFFCURVE",
"648 504 OFFCURVE",
"408 504 CURVE SMOOTH",
"192 504 OFFCURVE",
"35 409 OFFCURVE",
"35 245 CURVE SMOOTH",
"35 72.833 OFFCURVE",
"192.472 -15 OFFCURVE",
"408 -15 CURVE SMOOTH"
);
},
{
closed = 1;
nodes = (
"362 138 OFFCURVE",
"284 173 OFFCURVE",
"284 245 CURVE SMOOTH",
"284 316 OFFCURVE",
"362 352 OFFCURVE",
"498 352 CURVE SMOOTH",
"650.366 352 OFFCURVE",
"778 329 OFFCURVE",
"778 245 CURVE SMOOTH",
"778 160 OFFCURVE",
"650.366 138 OFFCURVE",
"498 138 CURVE SMOOTH"
);
},
{
closed = 1;
nodes = (
"792 490 LINE",
"778 300 LINE",
"778 -199.992 LINE",
"1018 -199.992 LINE",
"1018 490 LINE"
);
}
);
width = 1098;
},
{
anchors = (
{
name = bottom;
position = "{338.812, -10}";
},
{
name = top;
position = "{333.562, 510}";
}
);
layerId = "3FBA4204-9B78-4099-9F7B-502DDE19710D";
paths = (
{
closed = 1;
nodes = (
"477.5 -11.562 OFFCURVE",
"547.75 129.538 OFFCURVE",
"547.75 247.75 CURVE SMOOTH",
"547.75 393.932 OFFCURVE",
"480.014 508.125 OFFCURVE",
"302.125 508.125 CURVE SMOOTH",
"153.5 508.125 OFFCURVE",
"36.375 402.125 OFFCURVE",
"36.375 247.75 CURVE SMOOTH",
"36.375 90.135 OFFCURVE",
"153.648 -11.562 OFFCURVE",
"302.125 -11.562 CURVE SMOOTH"
);
},
{
closed = 1;
nodes = (
"238.938 89.188 OFFCURVE",
"169.188 151.688 OFFCURVE",
"169.188 247.75 CURVE SMOOTH",
"169.188 343.5 OFFCURVE",
"232.75 407.688 OFFCURVE",
"344 407.688 CURVE SMOOTH",
"460.616 407.688 OFFCURVE",
"534.625 349.625 OFFCURVE",
"534.625 247.75 CURVE SMOOTH",
"534.625 152.438 OFFCURVE",
"461.739 89.188 OFFCURVE",
"344 89.188 CURVE SMOOTH"
);
},
{
closed = 1;
nodes = (
"539 496.875 LINE",
"534.625 373.562 LINE",
"534.625 -199.998 LINE",
"664.625 -199.998 LINE",
"664.625 496.875 LINE"
);
}
);
width = 744.625;
}
);
leftKerningGroup = o;
leftMetricsKey = o;
rightMetricsKey = d;
unicode = 0071;
},
{
glyphname = r;
lastChange = "2020-07-29 06:28:48 +0000";
layers = (
{
anchors = (
{
name = bottom;
position = "{190, 0}";
},
{
name = top;
position = "{242.65, 500}";
}
);
associatedMasterId = "BC735296-CD3A-4FA4-9AA9-EE2D747BC69E";
background = {
components = (
{
name = c;
transform = "{1, 0, 0, 1, -62.891, 22.164}";
}
);
};
layerId = "44A942C5-AFA3-49F1-A279-7AF4AE1D300D";
name = "Regular Apr 25 17, 17:54";
paths = (
{
closed = 1;
nodes = (
"63 0 LINE",
"143 0 LINE",
"143 500 LINE",
"63 500 LINE"
);
}
);
width = 355.7;
},
{
anchors = (
{
name = bottom;
position = "{167, 0}";
},
{
name = top;
position = "{219.65, 500}";
}
);
associatedMasterId = "38E161BF-7670-40F4-B2BA-C78FC8454263";
background = {
components = (
{
name = c;
transform = "{1, 0, 0, 1, -85.891, 22.164}";
}
);
};
layerId = "9D26F7C1-7CF2-4F00-9DB8-F7C28E900F5D";
name = "Regular Apr 25 17, 17:54";
paths = (
{
closed = 1;
nodes = (
"40 0 LINE",
"120 0 LINE",
"120 500 LINE",
"40 500 LINE"
);
}
);
width = 332.7;
},
{
anchors = (
{
name = bottom;
position = "{166.304, 0}";
},
{
name = top;
position = "{342.3, 510}";
}
);
background = {
anchors = (
{
name = bottom;
position = "{499, 0}";
},
{
name = top;
position = "{549, 510}";
}
);
};
layerId = "38E161BF-7670-40F4-B2BA-C78FC8454263";
paths = (
{
closed = 1;
nodes = (
"45 0 LINE",
"285 0 LINE",
"285 490 LINE",
"45 490 LINE"
);
},
{
closed = 1;
nodes = (
"543 505 LINE",
"375 505 OFFCURVE",
"283 349 OFFCURVE",
"273 280 CURVE",
"275 232 LINE",
"275 232 OFFCURVE",
"363 305 OFFCURVE",
"543 305 CURVE"
);
}
);
width = 563;
},
{
anchors = (
{
name = bottom;
position = "{190, 0}";
},
{
name = top;
position = "{242.65, 500}";
}
);
associatedMasterId = "38E161BF-7670-40F4-B2BA-C78FC8454263";
background = {
components = (
{
name = c;
transform = "{1, 0, 0, 1, -62.891, 22.164}";
}
);
};
layerId = "3064EF44-C36F-4AAC-A587-8B3E9350EBE8";
name = "Regular Apr 25 17, 17:54";
paths = (
{
closed = 1;
nodes = (
"63 0 LINE",
"143 0 LINE",
"143 500 LINE",
"63 500 LINE"
);
}
);
width = 355.7;
},
{
anchors = (
{
name = bottom;
position = "{103.152, 0}";
},
{
name = top;
position = "{183.65, 510}";
}
);
associatedMasterId = "BC735296-CD3A-4FA4-9AA9-EE2D747BC69E";
background = {
components = (
{
name = n;
}
);
};
layerId = "F4E32C8A-8D1C-441B-807A-6777E644B167";
name = "Aug 25 17, 22:25";
paths = (
{
closed = 1;
nodes = (
"63 0 LINE",
"143 0 LINE",
"143 500 LINE",
"63 500 LINE"
);
},
{
closed = 1;
nodes = (
"303 510 LINE",
"166 510 OFFCURVE",
"137 444 OFFCURVE",
"137 415 CURVE",
"138 397 LINE",
"138 397 OFFCURVE",
"163 428 OFFCURVE",
"303 428 CURVE"
);
}
);
width = 318;
},
{
anchors = (
{
name = bottom;
position = "{105.152, 0}";
},
{
name = top;
position = "{185.65, 510}";
}
);
background = {
components = (
{
name = n;
}
);
};
layerId = "BC735296-CD3A-4FA4-9AA9-EE2D747BC69E";
paths = (
{
closed = 1;
nodes = (
"65 0 LINE",
"145 0 LINE",
"145 500 LINE",
"65 500 LINE"
);
},
{
closed = 1;
nodes = (
"305 510 LINE",
"168 510 OFFCURVE",
"139 354 OFFCURVE",
"139 325 CURVE",
"140 267 LINE",
"140 267 OFFCURVE",
"165 425 OFFCURVE",
"305 425 CURVE"
);
}
);
width = 330;
},
{
anchors = (
{
name = bottom;
position = "{125.507, 0}";
},
{
name = top;
position = "{235.848, 510}";
}
);
layerId = "3FBA4204-9B78-4099-9F7B-502DDE19710D";
paths = (
{
closed = 1;
nodes = (
"59.995 0 LINE",
"189.995 0 LINE",
"189.995 496.875 LINE",
"59.995 496.875 LINE"
);
},
{
closed = 1;
nodes = (
"380.62 508.438 LINE",
"233.932 508.438 OFFCURVE",
"185.245 352.438 OFFCURVE",
"182.12 310.938 CURVE",
"183.432 256.062 LINE",
"183.432 256.062 OFFCURVE",
"228.12 389.562 OFFCURVE",
"380.62 389.562 CURVE"
);
}
);
width = 400.6225;
}
);
leftKerningGroup = n;
leftMetricsKey = n;
unicode = 0072;
},
{
glyphname = s;
lastChange = "2020-07-29 06:28:48 +0000";
layers = (
{
anchors = (
{
name = bottom;
position = "{449, -10}";
},
{
name = top;
position = "{413, 510}";
}
);
background = {
components = (
{
name = c;
transform = "{1, 0, 0, 1, -213.8, 56}";
}
);
};
layerId = "38E161BF-7670-40F4-B2BA-C78FC8454263";
paths = (
{
closed = 1;
nodes = (
"31.951 107.539 OFFCURVE",
"92.358 -15 OFFCURVE",
"428 -15 CURVE SMOOTH",
"658.629 -15 OFFCURVE",
"807 30.28 OFFCURVE",
"807 145 CURVE SMOOTH",
"807 270.191 OFFCURVE",
"651.603 280.426 OFFCURVE",
"496.734 280.426 CURVE SMOOTH",
"328.462 280.426 OFFCURVE",
"295 286 OFFCURVE",
"295 316 CURVE SMOOTH",
"295 346 OFFCURVE",
"335.49 360 OFFCURVE",
"428 360 CURVE SMOOTH",
"525.892 360 OFFCURVE",
"559.253 347.803 OFFCURVE",
"573.706 314.198 CURVE",
"788.786 314.198 LINE",
"789.786 420.65 OFFCURVE",
"678.884 505 OFFCURVE",
"428 505 CURVE SMOOTH",
"223.6 505 OFFCURVE",
"45 467.571 OFFCURVE",
"45 339 CURVE SMOOTH",
"45 234.935 OFFCURVE",
"161.443 206.489 OFFCURVE",
"355 206.489 CURVE SMOOTH",
"507.989 206.489 OFFCURVE",
"557 205.79 OFFCURVE",
"557 173 CURVE SMOOTH",
"557 151 OFFCURVE",
"540.984 129.892 OFFCURVE",
"428 129.892 CURVE SMOOTH",
"329.499 129.892 OFFCURVE",
"279.956 141.222 OFFCURVE",
"261.294 175.802 CURVE",
"40.294 175.802 LINE"
);
}
);
width = 842;
},
{
anchors = (
{
name = bottom;
position = "{304.02, -10}";
},
{
name = top;
position = "{280.395, 510}";
}
);
layerId = "3FBA4204-9B78-4099-9F7B-502DDE19710D";
paths = (
{
closed = 1;
nodes = (
"33.178 118.452 OFFCURVE",
"86.41 -11.874 OFFCURVE",
"296.808 -11.874 CURVE SMOOTH",
"438.132 -11.874 OFFCURVE",
"525.207 41.087 OFFCURVE",
"525.207 137.326 CURVE SMOOTH",
"525.207 241.608 OFFCURVE",
"429.238 263.901 OFFCURVE",
"325.72 285.738 CURVE SMOOTH",
"234.161 301.179 OFFCURVE",
"187.833 310.219 OFFCURVE",
"187.833 351.908 CURVE SMOOTH",
"187.833 386.562 OFFCURVE",
"222.439 408.25 OFFCURVE",
"286.674 408.25 CURVE SMOOTH",
"352.762 408.25 OFFCURVE",
"382.121 386.954 OFFCURVE",
"393.077 338.26 CURVE",
"508.098 338.26 LINE",
"507.063 437.732 OFFCURVE",
"434.6 508.438 OFFCURVE",
"287.263 508.438 CURVE SMOOTH",
"155.138 508.438 OFFCURVE",
"54.707 453.587 OFFCURVE",
"54.707 358.024 CURVE SMOOTH",
"54.707 258.179 OFFCURVE",
"157.026 228.801 OFFCURVE",
"269.894 210.051 CURVE SMOOTH",
"353.029 197.407 OFFCURVE",
"392.082 187.828 OFFCURVE",
"392.082 145.661 CURVE SMOOTH",
"392.082 111.125 OFFCURVE",
"371.871 88.129 OFFCURVE",
"296.082 88.129 CURVE SMOOTH",
"220.558 88.129 OFFCURVE",
"174.263 120.051 OFFCURVE",
"160.213 165.489 CURVE",
"40.275 165.489 LINE"
);
}
);
width = 563.645;
},
{
anchors = (
{
name = bottom;
position = "{238.12, -10}";
},
{
name = top;
position = "{220.12, 510}";
}
);
associatedMasterId = "BC735296-CD3A-4FA4-9AA9-EE2D747BC69E";
background = {
components = (
{
name = e;
transform = "{-1, 0, 0, 1, 537.12, 0}";
}
);
};
layerId = "14DB38F2-CC62-4017-9DDF-94A28DB51083";
name = "May 13 19, 10:41";
paths = (
{
closed = 1;
nodes = (
"28.735 123.412 OFFCURVE",
"78.706 -10.453 OFFCURVE",
"237.176 -10.453 CURVE SMOOTH",
"337.907 -10.453 OFFCURVE",
"399.12 49 OFFCURVE",
"399.12 135.838 CURVE SMOOTH",
"399.12 231.615 OFFCURVE",
"332.214 264.915 OFFCURVE",
"257.526 281.33 CURVE SMOOTH",
"191.297 295.885 OFFCURVE",
"133.12 307.227 OFFCURVE",
"133.12 364.229 CURVE SMOOTH",
"133.12 405 OFFCURVE",
"171.051 431 OFFCURVE",
"222.435 431 CURVE SMOOTH",
"274.066 431 OFFCURVE",
"301.606 404.75 OFFCURVE",
"310.973 349.198 CURVE",
"380.513 349.198 LINE",
"378.552 445.497 OFFCURVE",
"323.562 510 OFFCURVE",
"223.292 510 CURVE SMOOTH",
"124.019 510 OFFCURVE",
"53.12 446.776 OFFCURVE",
"53.12 362.217 CURVE SMOOTH",
"53.12 252.29 OFFCURVE",
"155.019 222.761 OFFCURVE",
"231.21 205.489 CURVE SMOOTH",
"284.435 193.423 OFFCURVE",
"319.12 177.663 OFFCURVE",
"319.12 130.235 CURVE SMOOTH",
"319.12 91 OFFCURVE",
"291.197 66.418 OFFCURVE",
"236.12 66.418 CURVE SMOOTH",
"162.26 66.418 OFFCURVE",
"121.221 110.429 OFFCURVE",
"109.267 160.802 CURVE",
"35.267 160.802 LINE"
);
}
);
width = 437.12;
},
{
anchors = (
{
name = bottom;
position = "{243.7, -10}";
},
{
name = top;
position = "{225.7, 510}";
}
);
background = {
components = (
{
name = e;
transform = "{-1, 0, 0, 1, 540.7, 0}";
}
);
};
layerId = "BC735296-CD3A-4FA4-9AA9-EE2D747BC69E";
paths = (
{
closed = 1;
nodes = (
"33.31 110.285 OFFCURVE",
"74.286 -10.453 OFFCURVE",
"235.764 -10.453 CURVE SMOOTH",
"343.208 -10.453 OFFCURVE",
"403.7 48 OFFCURVE",
"403.7 132.962 CURVE SMOOTH",
"403.7 225.615 OFFCURVE",
"331.948 252.095 OFFCURVE",
"253.567 283.426 CURVE SMOOTH",
"195.814 306.511 OFFCURVE",
"141.7 324.838 OFFCURVE",
"141.7 368.981 CURVE SMOOTH",
"141.7 408.66 OFFCURVE",
"171.631 435 OFFCURVE",
"227.136 435 CURVE SMOOTH",
"279.646 435 OFFCURVE",
"307.221 408.653 OFFCURVE",
"316.553 349.198 CURVE",
"386.093 349.198 LINE",
"384.14 445.464 OFFCURVE",
"329.142 510 OFFCURVE",
"228.909 510 CURVE SMOOTH",
"129.599 510 OFFCURVE",
"61.7 446.66 OFFCURVE",
"61.7 366.473 CURVE SMOOTH",
"61.7 269.29 OFFCURVE",
"160.023 236.033 OFFCURVE",
"236.79 208.489 CURVE SMOOTH",
"285.719 190.933 OFFCURVE",
"323.7 176.663 OFFCURVE",
"323.7 132.087 CURVE SMOOTH",
"323.7 92.771 OFFCURVE",
"299.777 64.418 OFFCURVE",
"233.477 64.418 CURVE SMOOTH",
"157.84 64.418 OFFCURVE",
"119.078 102.735 OFFCURVE",
"114.847 160.802 CURVE",
"40.847 160.802 LINE"
);
}
);
width = 440.7;
}
);
unicode = 0073;
},
{
glyphname = germandbls;
lastChange = "2020-07-29 06:28:48 +0000";
layers = (
{
anchors = (
{
name = bottom;
position = "{211, 0}";
},
{
name = top;
position = "{211, 500}";
}
);
background = {
anchors = (
{
name = bottom;
position = "{255.81, -10}";
},
{
name = top;
position = "{237.81, 510}";
}
);
};
layerId = "BC735296-CD3A-4FA4-9AA9-EE2D747BC69E";
paths = (
{
closed = 1;
nodes = (
"157 0 LINE",
"157 530 LINE",
"77 530 LINE",
"77 0 LINE"
);
},
{
closed = 1;
nodes = (
"147 700 OFFCURVE",
"77 650 OFFCURVE",
"77 530 CURVE",
"157 530 LINE",
"157 601.403 OFFCURVE",
"197 621.372 OFFCURVE",
"247 620 CURVE",
"292.504 620 LINE",
"292.504 700 LINE",
"247 700 LINE"
);
},
{
closed = 1;
nodes = (
"99.94 425 LINE",
"372 425 LINE",
"449.334 499.975 LINE",
"99.94 500 LINE"
);
},
{
closed = 1;
nodes = (
"449.334 426.965 LINE",
"449.334 499.975 LINE",
"399.405 499.975 LINE",
"249.162 223.625 LINE",
"249.162 150.423 LINE",
"287.202 150.423 LINE",
"381.758 150.423 OFFCURVE",
"421.404 101.659 OFFCURVE",
"421.404 32.261 CURVE SMOOTH",
"421.404 -43.356 OFFCURVE",
"375.758 -85.901 OFFCURVE",
"278.202 -85.901 CURVE",
"278.202 -160.302 LINE",
"423.718 -160.302 OFFCURVE",
"501.404 -70.896 OFFCURVE",
"501.404 32.261 CURVE SMOOTH",
"501.404 155.276 OFFCURVE",
"413.89 204.692 OFFCURVE",
"306.559 204.824 CURVE",
"314.564 182.091 LINE"
);
}
);
width = 521.4;
},
{
anchors = (
{
name = bottom;
position = "{248, 0}";
},
{
name = top;
position = "{248, 500}";
}
);
associatedMasterId = "BC735296-CD3A-4FA4-9AA9-EE2D747BC69E";
background = {
anchors = (
{
name = bottom;
position = "{292.81, -10}";
},
{
name = top;
position = "{274.81, 510}";
}
);
paths = (
{
closed = 1;
nodes = (
"155.813 121.68 OFFCURVE",
"188.989 -10.453 OFFCURVE",
"321.81 -10.453 CURVE",
"315.81 66.418 LINE",
"276.562 67.298 OFFCURVE",
"245.98 110.445 OFFCURVE",
"233.957 160.802 CURVE",
"151.957 160.802 LINE"
);
}
);
};
layerId = "FF2B2B9A-2D3B-4F95-9197-A360060356EE";
name = "May 14 17, 14:32";
paths = (
{
closed = 1;
nodes = (
"324 422 OFFCURVE",
"396 502 OFFCURVE",
"396 563 CURVE SMOOTH",
"396 646 OFFCURVE",
"330 700 OFFCURVE",
"231 700 CURVE SMOOTH",
"151 700 OFFCURVE",
"61 650 OFFCURVE",
"61 530 CURVE SMOOTH",
"61 0 LINE",
"141 0 LINE",
"141 530 LINE SMOOTH",
"141 600 OFFCURVE",
"181 620 OFFCURVE",
"225 620 CURVE SMOOTH",
"268 620 OFFCURVE",
"308 599 OFFCURVE",
"308 560 CURVE SMOOTH",
"308 512 OFFCURVE",
"244 448 OFFCURVE",
"244 379 CURVE SMOOTH",
"244 262 OFFCURVE",
"382 263 OFFCURVE",
"382 170 CURVE SMOOTH",
"382 126 OFFCURVE",
"352 80 OFFCURVE",
"263 80 CURVE",
"263 0 LINE",
"396 0 OFFCURVE",
"462 79 OFFCURVE",
"462 170 CURVE SMOOTH",
"462 290 OFFCURVE",
"324 318 OFFCURVE",
"324 379 CURVE SMOOTH"
);
}
);
width = 495;
},
{
anchors = (
{
name = bottom;
position = "{613.4, 0}";
},
{
name = top;
position = "{613.4, 500}";
}
);
background = {
anchors = (
{
name = bottom;
position = "{658.21, -10}";
},
{
name = center;
position = "{809.801, 65.751}";
},
{
name = ogonek;
position = "{983.801, -174.249}";
},
{
name = top;
position = "{640.21, 510}";
},
{
name = topright;
position = "{1337.801, 315.751}";
}
);
components = (
{
name = f;
transform = "{1, 0, 0, 1, 15, 0}";
}
);
};
layerId = "38E161BF-7670-40F4-B2BA-C78FC8454263";
paths = (
{
closed = 1;
nodes = (
"294.996 0 LINE",
"294.996 460 LINE",
"54.996 510 LINE",
"54.996 0 LINE"
);
},
{
closed = 1;
nodes = (
"115 690 OFFCURVE",
"55 630 OFFCURVE",
"54.996 510 CURVE",
"294.996 460 LINE",
"294.996 507.987 OFFCURVE",
"313.47 531.139 OFFCURVE",
"364.996 530 CURVE",
"558.542 530 LINE",
"558.542 690 LINE",
"295 690 LINE"
);
},
{
closed = 1;
nodes = (
"123.816 310 LINE",
"819.996 310 LINE",
"1051.998 459.975 LINE",
"123.816 460 LINE"
);
},
{
closed = 1;
nodes = (
"1051.998 339.965 LINE",
"1051.998 459.975 LINE",
"902.211 389.975 LINE",
"508.542 223.625 LINE",
"508.542 80.423 LINE",
"538.602 80.423 LINE",
"831.27 80.423 OFFCURVE",
"883.208 77.261 OFFCURVE",
"883.208 17.261 CURVE SMOOTH",
"883.208 -42.739 OFFCURVE",
"831.21 -45.901 OFFCURVE",
"508.542 -45.901 CURVE",
"508.542 -200.302 LINE",
"853.95 -200.302 OFFCURVE",
"1128.208 -181.391 OFFCURVE",
"1128.208 26.261 CURVE SMOOTH",
"1128.208 196.025 OFFCURVE",
"865.666 204.692 OFFCURVE",
"623.673 204.824 CURVE",
"757.688 182.091 LINE"
);
}
);
width = 1138.2;
},
{
anchors = (
{
name = bottom;
position = "{248, 0}";
},
{
name = top;
position = "{248, 500}";
}
);
associatedMasterId = "38E161BF-7670-40F4-B2BA-C78FC8454263";
background = {
anchors = (
{
name = bottom;
position = "{292.81, -10}";
},
{
name = top;
position = "{274.81, 510}";
}
);
paths = (
{
closed = 1;
nodes = (
"155.813 121.68 OFFCURVE",
"188.989 -10.453 OFFCURVE",
"321.81 -10.453 CURVE",
"315.81 66.418 LINE",
"276.562 67.298 OFFCURVE",
"245.98 110.445 OFFCURVE",
"233.957 160.802 CURVE",
"151.957 160.802 LINE"
);
}
);
};
layerId = "EC24F78C-0CC5-4D3E-A4C3-0FC65A530803";
name = "May 14 17, 14:32";
paths = (
{
closed = 1;
nodes = (
"324 422 OFFCURVE",
"396 502 OFFCURVE",
"396 563 CURVE SMOOTH",
"396 646 OFFCURVE",
"330 700 OFFCURVE",
"231 700 CURVE SMOOTH",
"151 700 OFFCURVE",
"61 650 OFFCURVE",
"61 530 CURVE SMOOTH",
"61 0 LINE",
"141 0 LINE",
"141 530 LINE SMOOTH",
"141 600 OFFCURVE",
"181 620 OFFCURVE",
"225 620 CURVE SMOOTH",
"268 620 OFFCURVE",
"308 599 OFFCURVE",
"308 560 CURVE SMOOTH",
"308 512 OFFCURVE",
"244 448 OFFCURVE",
"244 379 CURVE SMOOTH",
"244 262 OFFCURVE",
"382 263 OFFCURVE",
"382 170 CURVE SMOOTH",
"382 126 OFFCURVE",
"352 80 OFFCURVE",
"263 80 CURVE",
"263 0 LINE",
"396 0 OFFCURVE",
"462 79 OFFCURVE",
"462 170 CURVE SMOOTH",
"462 290 OFFCURVE",
"324 318 OFFCURVE",
"324 379 CURVE SMOOTH"
);
}
);
width = 495;
},
{
anchors = (
{
name = bottom;
position = "{248, 0}";
},
{
name = top;
position = "{248, 500}";
}
);
associatedMasterId = "38E161BF-7670-40F4-B2BA-C78FC8454263";
background = {
anchors = (
{
name = bottom;
position = "{292.81, -10}";
},
{
name = top;
position = "{274.81, 510}";
}
);
paths = (
{
closed = 1;
nodes = (
"155.813 121.68 OFFCURVE",
"188.989 -10.453 OFFCURVE",
"321.81 -10.453 CURVE",
"315.81 66.418 LINE",
"276.562 67.298 OFFCURVE",
"245.98 110.445 OFFCURVE",
"233.957 160.802 CURVE",
"151.957 160.802 LINE"
);
}
);
};
layerId = "F25869A7-B365-4610-B7B7-2E27D48B816E";
name = "May 14 17, 14:32";
paths = (
{
closed = 1;
nodes = (
"324 422 OFFCURVE",
"396 502 OFFCURVE",
"396 563 CURVE SMOOTH",
"396 646 OFFCURVE",
"330 700 OFFCURVE",
"231 700 CURVE SMOOTH",
"151 700 OFFCURVE",
"61 650 OFFCURVE",
"61 530 CURVE SMOOTH",
"61 0 LINE",
"141 0 LINE",
"141 530 LINE SMOOTH",
"141 600 OFFCURVE",
"181 620 OFFCURVE",
"225 620 CURVE SMOOTH",
"268 620 OFFCURVE",
"308 599 OFFCURVE",
"308 560 CURVE SMOOTH",
"308 512 OFFCURVE",
"244 448 OFFCURVE",
"244 379 CURVE SMOOTH",
"244 262 OFFCURVE",
"382 263 OFFCURVE",
"382 170 CURVE SMOOTH",
"382 126 OFFCURVE",
"352 80 OFFCURVE",
"263 80 CURVE",
"263 0 LINE",
"396 0 OFFCURVE",
"462 79 OFFCURVE",
"462 170 CURVE SMOOTH",
"462 290 OFFCURVE",
"324 318 OFFCURVE",
"324 379 CURVE SMOOTH"
);
}
);
width = 495;
},
{
anchors = (
{
name = bottom;
position = "{335.375, 0}";
},
{
name = top;
position = "{335.375, 500}";
}
);
layerId = "3FBA4204-9B78-4099-9F7B-502DDE19710D";
paths = (
{
closed = 1;
nodes = (
"198.749 0 LINE",
"198.749 508.125 LINE",
"68.749 523.75 LINE",
"68.749 0 LINE"
);
},
{
closed = 1;
nodes = (
"135.625 696.875 OFFCURVE",
"68.75 643.75 OFFCURVE",
"68.749 523.75 CURVE",
"198.749 508.125 LINE",
"198.749 572.211 OFFCURVE",
"232.022 593.174 OFFCURVE",
"282.499 591.875 CURVE",
"374.266 591.875 LINE",
"374.266 696.875 LINE",
"260.625 696.875 LINE"
);
},
{
closed = 1;
nodes = (
"106.026 389.062 LINE",
"510.624 389.062 LINE",
"636.292 487.475 LINE",
"106.026 487.5 LINE"
);
},
{
closed = 1;
nodes = (
"636.292 399.777 LINE",
"636.292 487.475 LINE",
"555.157 465.6 LINE",
"328.843 223.625 LINE",
"328.843 128.548 LINE",
"364.389 128.548 LINE",
"520.856 128.548 OFFCURVE",
"564.343 94.035 OFFCURVE",
"564.343 27.574 CURVE SMOOTH",
"564.343 -43.163 OFFCURVE",
"516.712 -73.401 OFFCURVE",
"348.808 -73.401 CURVE",
"348.808 -172.802 LINE",
"556.791 -172.802 OFFCURVE",
"695.905 -105.426 OFFCURVE",
"695.905 30.386 CURVE SMOOTH",
"695.905 168.01 OFFCURVE",
"553.695 204.692 OFFCURVE",
"404.282 204.824 CURVE",
"451.665 182.091 LINE"
);
}
);
width = 712.775;
}
);
leftMetricsKey = h;
unicode = 00DF;
},
{
glyphname = t;
lastChange = "2020-07-29 06:28:48 +0000";
layers = (
{
anchors = (
{
name = bottom;
position = "{177, 0}";
},
{
name = center;
position = "{171, 250}";
},
{
name = top;
position = "{176.341, 639.109}";
},
{
name = topright;
position = "{354, 500}";
}
);
layerId = "BC735296-CD3A-4FA4-9AA9-EE2D747BC69E";
paths = (
{
closed = 1;
nodes = (
"30 425 LINE",
"324 425 LINE",
"324 500 LINE",
"30 500 LINE"
);
},
{
closed = 1;
nodes = (
"137 0 LINE",
"217 0 LINE",
"217 630 LINE",
"137 630 LINE"
);
}
);
width = 354;
},
{
anchors = (
{
name = bottom;
position = "{314, 0}";
},
{
name = center;
position = "{314, 250}";
},
{
name = top;
position = "{314, 639.109}";
},
{
name = topright;
position = "{608, 505}";
}
);
layerId = "38E161BF-7670-40F4-B2BA-C78FC8454263";
paths = (
{
closed = 1;
nodes = (
"20 340 LINE",
"608 340 LINE",
"608 490 LINE",
"20 490 LINE"
);
},
{
closed = 1;
nodes = (
"194 0 LINE",
"434 0 LINE",
"434 640 LINE",
"194 640 LINE"
);
}
);
width = 628;
},
{
anchors = (
{
name = bottom;
position = "{217.935, 0}";
},
{
name = center;
position = "{213.81, 250}";
},
{
name = top;
position = "{217.482, 639.109}";
},
{
name = topright;
position = "{431.498, 501.562}";
}
);
layerId = "3FBA4204-9B78-4099-9F7B-502DDE19710D";
paths = (
{
closed = 1;
nodes = (
"24.998 396.438 LINE",
"410.872 396.438 LINE",
"410.872 496.875 LINE",
"24.998 496.875 LINE"
);
},
{
closed = 1;
nodes = (
"152.935 0 LINE",
"282.935 0 LINE",
"282.935 633.125 LINE",
"152.935 633.125 LINE"
);
}
);
width = 434.31;
}
);
leftKerningGroup = t;
rightKerningGroup = t;
unicode = 0074;
},
{
glyphname = tbar;
lastChange = "2020-07-29 06:28:48 +0000";
layers = (
{
components = (
{
name = t;
}
);
layerId = "BC735296-CD3A-4FA4-9AA9-EE2D747BC69E";
paths = (
{
closed = 1;
nodes = (
"25.688 274.75 LINE",
"318.137 274.75 LINE",
"318.137 349.75 LINE",
"25.688 349.75 LINE"
);
}
);
width = 344;
},
{
components = (
{
name = t;
}
);
layerId = "38E161BF-7670-40F4-B2BA-C78FC8454263";
paths = (
{
closed = 1;
nodes = (
"20.688 189.75 LINE",
"607.797 189.75 LINE",
"607.797 264.75 LINE",
"20.688 264.75 LINE"
);
}
);
width = 628;
},
{
components = (
{
name = t;
}
);
layerId = "3FBA4204-9B78-4099-9F7B-502DDE19710D";
paths = (
{
closed = 1;
nodes = (
"23.688 247.75 LINE",
"409.137 247.75 LINE",
"409.137 322.75 LINE",
"23.688 322.75 LINE"
);
}
);
width = 432.75;
}
);
unicode = 0167;
},
{
glyphname = u;
lastChange = "2020-07-29 06:28:48 +0000";
layers = (
{
anchors = (
{
name = bottom;
position = "{267, 0}";
},
{
name = ogonek;
position = "{449, 0}";
},
{
name = top;
position = "{284, 510}";
},
{
name = topright;
position = "{532, 500}";
}
);
layerId = "BC735296-CD3A-4FA4-9AA9-EE2D747BC69E";
paths = (
{
closed = 1;
nodes = (
"489 500 LINE",
"409 500 LINE",
"409 0 LINE",
"489 0 LINE"
);
},
{
closed = 1;
nodes = (
"145 500 LINE",
"65 500 LINE",
"65 168 LINE",
"145 188 LINE"
);
},
{
closed = 1;
nodes = (
"65 28 OFFCURVE",
"161 -10 OFFCURVE",
"239 -10 CURVE SMOOTH",
"389 -10 OFFCURVE",
"410 166 OFFCURVE",
"415 205 CURVE",
"414 233 LINE",
"414 233 OFFCURVE",
"395 70 OFFCURVE",
"255 70 CURVE SMOOTH",
"192 70 OFFCURVE",
"145 98 OFFCURVE",
"145 188 CURVE",
"65 168 LINE"
);
}
);
width = 554;
},
{
anchors = (
{
name = bottom;
position = "{479, 0}";
},
{
name = ogonek;
position = "{843, 0}";
},
{
name = top;
position = "{513, 510}";
},
{
name = topright;
position = "{1009, 500}";
}
);
background = {
anchors = (
{
name = bottom;
position = "{499, 0}";
},
{
name = top;
position = "{549, 510}";
}
);
components = (
{
name = n;
transform = "{-1, 0, 0, -1, 1013, 510}";
}
);
};
layerId = "38E161BF-7670-40F4-B2BA-C78FC8454263";
paths = (
{
closed = 1;
nodes = (
"953 490 LINE",
"713 490 LINE",
"713 0 LINE",
"953 0 LINE"
);
},
{
closed = 1;
nodes = (
"285 490 LINE",
"45 490 LINE",
"45 258 LINE",
"285 283 LINE"
);
},
{
closed = 1;
nodes = (
"45 48 OFFCURVE",
"197 -15 OFFCURVE",
"373 -15 CURVE SMOOTH",
"593 -15 OFFCURVE",
"715 136 OFFCURVE",
"725 205 CURVE",
"723 253 LINE",
"723 253 OFFCURVE",
"625 145 OFFCURVE",
"465 145 CURVE SMOOTH",
"339 145 OFFCURVE",
"285 173 OFFCURVE",
"285 283 CURVE",
"45 258 LINE"
);
}
);
width = 998;
},
{
anchors = (
{
name = bottom;
position = "{334.495, 0}";
},
{
name = ogonek;
position = "{573.37, 0}";
},
{
name = top;
position = "{356.808, 510}";
},
{
name = topright;
position = "{682.308, 500}";
}
);
layerId = "3FBA4204-9B78-4099-9F7B-502DDE19710D";
paths = (
{
closed = 1;
nodes = (
"635.245 496.875 LINE",
"505.245 496.875 LINE",
"505.245 0 LINE",
"635.245 0 LINE"
);
},
{
closed = 1;
nodes = (
"189.995 496.875 LINE",
"59.995 496.875 LINE",
"59.995 196.125 LINE",
"189.995 217.688 LINE"
);
},
{
closed = 1;
nodes = (
"59.995 34.25 OFFCURVE",
"173.495 -11.562 OFFCURVE",
"282.12 -11.562 CURVE SMOOTH",
"453.995 -11.562 OFFCURVE",
"506.558 156.625 OFFCURVE",
"513.12 205 CURVE",
"511.808 239.25 LINE",
"511.808 239.25 OFFCURVE",
"468.12 93.438 OFFCURVE",
"321.87 93.438 CURVE SMOOTH",
"239.182 93.438 OFFCURVE",
"189.995 121.438 OFFCURVE",
"189.995 217.688 CURVE",
"59.995 196.125 LINE"
);
}
);
width = 692.62;
}
);
leftKerningGroup = n;
leftMetricsKey = n;
rightKerningGroup = n;
rightMetricsKey = n;
unicode = 0075;
},
{
glyphname = v;
lastChange = "2020-07-29 06:28:48 +0000";
layers = (
{
anchors = (
{
name = bottom;
position = "{247, 0}";
},
{
name = top;
position = "{247, 500}";
}
);
layerId = "BC735296-CD3A-4FA4-9AA9-EE2D747BC69E";
paths = (
{
closed = 1;
nodes = (
"209 0 LINE",
"282 0 LINE",
"107 500 LINE",
"20 500 LINE"
);
},
{
closed = 1;
nodes = (
"387 500 LINE",
"209 0 LINE",
"284 0 LINE",
"474 500 LINE"
);
}
);
width = 494;
},
{
anchors = (
{
name = bottom;
position = "{459, 0}";
},
{
name = top;
position = "{459, 500}";
}
);
layerId = "38E161BF-7670-40F4-B2BA-C78FC8454263";
paths = (
{
closed = 1;
nodes = (
"338 0 LINE",
"564 0 LINE",
"269 490 LINE",
"5 490 LINE"
);
},
{
closed = 1;
nodes = (
"648 490 LINE",
"338 0 LINE",
"564 0 LINE",
"913 490 LINE"
);
}
);
width = 918;
},
{
anchors = (
{
name = bottom;
position = "{313.25, 0}";
},
{
name = top;
position = "{313.25, 500}";
}
);
layerId = "3FBA4204-9B78-4099-9F7B-502DDE19710D";
paths = (
{
closed = 1;
nodes = (
"249.312 0 LINE",
"370.125 0 LINE",
"157.625 496.875 LINE",
"15.312 496.875 LINE"
);
},
{
closed = 1;
nodes = (
"468.562 496.875 LINE",
"249.312 0 LINE",
"371.5 0 LINE",
"611.188 496.875 LINE"
);
}
);
width = 626.5;
}
);
leftKerningGroup = v;
rightKerningGroup = v;
unicode = 0076;
},
{
glyphname = w;
lastChange = "2020-07-29 06:28:48 +0000";
layers = (
{
anchors = (
{
name = bottom;
position = "{391.86, 0}";
},
{
name = top;
position = "{385.86, 510}";
}
);
layerId = "BC735296-CD3A-4FA4-9AA9-EE2D747BC69E";
paths = (
{
closed = 1;
nodes = (
"192.002 -0.145 LINE",
"265.002 -0.145 LINE",
"107.002 499.855 LINE",
"20.002 499.855 LINE"
);
},
{
closed = 1;
nodes = (
"337.002 499.855 LINE",
"202.002 -0.145 LINE",
"267.002 -0.145 LINE",
"414.002 499.855 LINE"
);
},
{
closed = 1;
nodes = (
"503.002 -0.145 LINE",
"566.002 -0.145 LINE",
"434.002 499.855 LINE",
"357.002 499.855 LINE"
);
},
{
closed = 1;
nodes = (
"664.002 499.855 LINE",
"503.002 -0.145 LINE",
"578.002 -0.145 LINE",
"751.002 499.855 LINE"
);
}
);
width = 771;
},
{
anchors = (
{
name = bottom;
position = "{734, 0}";
},
{
name = top;
position = "{728, 510}";
}
);
background = {
anchors = (
{
name = bottom;
position = "{1053.336, 0}";
},
{
name = top;
position = "{1053.336, 500}";
}
);
paths = (
{
closed = 1;
nodes = (
"912.336 0 LINE",
"1138.336 0 LINE",
"863.336 490 LINE",
"599.336 490 LINE"
);
},
{
closed = 1;
nodes = (
"1192.336 490 LINE",
"912.336 0 LINE",
"1138.336 0 LINE",
"1457.336 490 LINE"
);
},
{
closed = 1;
nodes = (
"308 0 LINE",
"534 0 LINE",
"269 490 LINE",
"5 490 LINE"
);
},
{
closed = 1;
nodes = (
"598 490 LINE",
"308 0 LINE",
"534 0 LINE",
"863 490 LINE"
);
}
);
};
layerId = "38E161BF-7670-40F4-B2BA-C78FC8454263";
paths = (
{
closed = 1;
nodes = (
"308 0 LINE",
"534 0 LINE",
"269 490 LINE",
"5 490 LINE"
);
},
{
closed = 1;
nodes = (
"596 490 LINE",
"328 0 LINE",
"534 0 LINE",
"861 490 LINE"
);
},
{
closed = 1;
nodes = (
"912.336 0 LINE",
"1118.336 0 LINE",
"861.336 490 LINE",
"597.336 490 LINE"
);
},
{
closed = 1;
nodes = (
"1192.336 490 LINE",
"912.336 0 LINE",
"1138.336 0 LINE",
"1457.336 490 LINE"
);
}
);
width = 1462.34;
},
{
anchors = (
{
name = bottom;
position = "{498.779, 0}";
},
{
name = top;
position = "{490.904, 510}";
}
);
layerId = "3FBA4204-9B78-4099-9F7B-502DDE19710D";
paths = (
{
closed = 1;
nodes = (
"228.251 -0.1 LINE",
"349.064 -0.1 LINE",
"157.626 496.775 LINE",
"15.314 496.775 LINE"
);
},
{
closed = 1;
nodes = (
"418.564 496.775 LINE",
"241.376 -0.1 LINE",
"350.439 -0.1 LINE",
"554.314 496.775 LINE"
);
},
{
closed = 1;
nodes = (
"630.919 -0.1 LINE",
"738.606 -0.1 LINE",
"568.169 496.775 LINE",
"432.731 496.775 LINE"
);
},
{
closed = 1;
nodes = (
"829.106 496.775 LINE",
"630.919 -0.1 LINE",
"753.106 -0.1 LINE",
"971.731 496.775 LINE"
);
}
);
width = 987.04375;
}
);
leftKerningGroup = v;
leftMetricsKey = v;
rightKerningGroup = v;
rightMetricsKey = v;
unicode = 0077;
},
{
glyphname = x;
lastChange = "2020-07-29 06:28:48 +0000";
layers = (
{
anchors = (
{
name = bottom;
position = "{250, 0}";
},
{
name = top;
position = "{250, 500}";
}
);
layerId = "BC735296-CD3A-4FA4-9AA9-EE2D747BC69E";
paths = (
{
closed = 1;
nodes = (
"378 500 LINE",
"232 287 LINE",
"25 0 LINE",
"122 0 LINE",
"281 228 LINE",
"475 500 LINE"
);
},
{
closed = 1;
nodes = (
"226 228 LINE",
"388 0 LINE",
"485 0 LINE",
"280 285 LINE",
"125 500 LINE",
"25 500 LINE"
);
}
);
width = 510;
},
{
anchors = (
{
name = bottom;
position = "{500, 0}";
},
{
name = top;
position = "{500, 500}";
}
);
layerId = "38E161BF-7670-40F4-B2BA-C78FC8454263";
paths = (
{
closed = 1;
nodes = (
"656 490 LINE",
"415.735 300.317 LINE",
"10 0 LINE",
"304 0 LINE",
"550.162 202.233 LINE",
"950 490 LINE"
);
},
{
closed = 1;
nodes = (
"413.231 191.22 LINE",
"676 0 LINE",
"970 0 LINE",
"555.649 307.296 LINE",
"304 490 LINE",
"10 490 LINE"
);
}
);
width = 980;
},
{
anchors = (
{
name = bottom;
position = "{328.125, 0}";
},
{
name = top;
position = "{328.125, 500}";
}
);
layerId = "3FBA4204-9B78-4099-9F7B-502DDE19710D";
paths = (
{
closed = 1;
nodes = (
"464.875 496.875 LINE",
"289.417 291.162 LINE",
"20.312 0 LINE",
"178.875 0 LINE",
"365.113 219.948 LINE",
"623.438 496.875 LINE"
);
},
{
closed = 1;
nodes = (
"284.51 216.506 LINE",
"478 0 LINE",
"636.562 0 LINE",
"366.828 292.655 LINE",
"178.875 496.875 LINE",
"20.312 496.875 LINE"
);
}
);
width = 656.875;
}
);
unicode = 0078;
},
{
glyphname = y;
lastChange = "2020-07-29 06:28:48 +0000";
layers = (
{
anchors = (
{
name = bottom;
position = "{250, 0}";
},
{
name = top;
position = "{250, 510}";
}
);
layerId = "BC735296-CD3A-4FA4-9AA9-EE2D747BC69E";
paths = (
{
closed = 1;
nodes = (
"215 0 LINE",
"285 20 LINE",
"106 500 LINE",
"20 500 LINE"
);
},
{
closed = 1;
nodes = (
"400 500 LINE",
"240 70 LINE",
"118.622 -200 LINE",
"206.273 -200 LINE",
"485 500 LINE"
);
}
);
width = 505;
},
{
anchors = (
{
name = bottom;
position = "{475, 0}";
},
{
name = top;
position = "{475, 510}";
}
);
background = {
components = (
{
name = v;
transform = "{1, 0, 0, 1, -5, 0}";
}
);
};
layerId = "38E161BF-7670-40F4-B2BA-C78FC8454263";
paths = (
{
closed = 1;
nodes = (
"345 0 LINE",
"552 20 LINE",
"260 490 LINE",
"5 490 LINE"
);
},
{
closed = 1;
nodes = (
"670 490 LINE",
"401.919 82.904 LINE",
"193.244 -200 LINE",
"437.546 -200 LINE",
"925 490 LINE"
);
}
);
width = 930;
},
{
anchors = (
{
name = bottom;
position = "{320.312, 0}";
},
{
name = top;
position = "{320.312, 510}";
}
);
layerId = "3FBA4204-9B78-4099-9F7B-502DDE19710D";
paths = (
{
closed = 1;
nodes = (
"255.625 0 LINE",
"368.438 20 LINE",
"153.438 496.875 LINE",
"15.312 496.875 LINE"
);
},
{
closed = 1;
nodes = (
"484.375 496.875 LINE",
"290.6 74.032 LINE",
"144.004 -200 LINE",
"278.546 -200 LINE",
"622.5 496.875 LINE"
);
}
);
width = 637.8125;
}
);
leftKerningGroup = v;
leftMetricsKey = v;
rightKerningGroup = v;
rightMetricsKey = v;
unicode = 0079;
},
{
glyphname = z;
lastChange = "2020-07-29 06:28:48 +0000";
layers = (
{
anchors = (
{
name = bottom;
position = "{247, 0}";
},
{
name = top;
position = "{247, 510}";
}
);
layerId = "BC735296-CD3A-4FA4-9AA9-EE2D747BC69E";
paths = (
{
closed = 1;
nodes = (
"55 75 LINE",
"118 30 LINE",
"440 425 LINE",
"376 463 LINE"
);
},
{
closed = 1;
nodes = (
"55 75 LINE",
"55 0 LINE",
"443 0 LINE",
"443 75 LINE"
);
},
{
closed = 1;
nodes = (
"55 500 LINE",
"55 425 LINE",
"440 425 LINE",
"440 500 LINE"
);
}
);
width = 498;
},
{
anchors = (
{
name = bottom;
position = "{444, 0}";
},
{
name = top;
position = "{444, 510}";
}
);
layerId = "38E161BF-7670-40F4-B2BA-C78FC8454263";
paths = (
{
closed = 1;
nodes = (
"60 150 LINE",
"156 50 LINE",
"830 340 LINE",
"712 433 LINE"
);
},
{
closed = 1;
nodes = (
"60 150 LINE",
"60 0 LINE",
"836 0 LINE",
"836 150 LINE"
);
},
{
closed = 1;
nodes = (
"60 490 LINE",
"60 340 LINE",
"830 340 LINE",
"830 490 LINE"
);
}
);
width = 896;
},
{
anchors = (
{
name = bottom;
position = "{308.562, 0}";
},
{
name = top;
position = "{308.562, 510}";
}
);
layerId = "3FBA4204-9B78-4099-9F7B-502DDE19710D";
paths = (
{
closed = 1;
nodes = (
"56.562 98.438 LINE",
"134.875 36.25 LINE",
"558.875 398.438 LINE",
"473 453.625 LINE"
);
},
{
closed = 1;
nodes = (
"56.562 98.438 LINE",
"56.562 0 LINE",
"565.812 0 LINE",
"565.812 98.438 LINE"
);
},
{
closed = 1;
nodes = (
"56.562 496.875 LINE",
"56.562 398.438 LINE",
"558.875 398.438 LINE",
"558.875 496.875 LINE"
);
}
);
width = 622.375;
}
);
unicode = 007A;
},
{
glyphname = eogonek.ss03;
lastChange = "2020-07-29 06:28:48 +0000";
layers = (
{
anchors = (
{
name = _ogonek;
position = "{393.488, -0.227}";
}
);
components = (
{
name = e;
}
);
layerId = "BC735296-CD3A-4FA4-9AA9-EE2D747BC69E";
paths = (
{
closed = 1;
nodes = (
"413.988 -160.227 LINE",
"348.988 -160.227 OFFCURVE",
"314.488 -130.227 OFFCURVE",
"314.488 -85.227 CURVE SMOOTH",
"314.488 -40.227 OFFCURVE",
"351.488 -10.227 OFFCURVE",
"393.488 16.773 CURVE",
"393.488 38.773 LINE",
"314.488 11.773 OFFCURVE",
"249.488 -21.227 OFFCURVE",
"249.488 -95.227 CURVE SMOOTH",
"249.488 -169.227 OFFCURVE",
"314.988 -215.227 OFFCURVE",
"413.988 -215.227 CURVE"
);
}
);
width = 534.87;
},
{
anchors = (
{
name = _ogonek;
position = "{851.976, -0.227}";
}
);
components = (
{
name = e;
}
);
layerId = "38E161BF-7670-40F4-B2BA-C78FC8454263";
paths = (
{
closed = 1;
nodes = (
"863.98 -142.227 LINE",
"773.98 -142.227 OFFCURVE",
"694.98 -120.227 OFFCURVE",
"694.98 -65.227 CURVE SMOOTH",
"694.98 -21.227 OFFCURVE",
"738.98 -3.227 OFFCURVE",
"822.98 29.773 CURVE",
"822.98 51.773 LINE",
"644.98 11.773 OFFCURVE",
"514.98 -11.227 OFFCURVE",
"514.98 -105.227 CURVE SMOOTH",
"514.98 -189.227 OFFCURVE",
"645.98 -240.227 OFFCURVE",
"863.98 -240.227 CURVE"
);
}
);
width = 994.08;
},
{
anchors = (
{
name = _ogonek;
position = "{536.765, -0.227}";
}
);
components = (
{
alignment = -1;
name = e;
}
);
layerId = "3FBA4204-9B78-4099-9F7B-502DDE19710D";
paths = (
{
closed = 1;
nodes = (
"554.611 -154.602 LINE",
"481.798 -154.602 OFFCURVE",
"433.392 -127.102 OFFCURVE",
"433.392 -78.977 CURVE SMOOTH",
"433.392 -34.289 OFFCURVE",
"472.579 -8.039 OFFCURVE",
"527.704 20.835 CURVE",
"527.704 42.836 LINE",
"417.767 11.773 OFFCURVE",
"332.454 -18.102 OFFCURVE",
"332.454 -98.352 CURVE SMOOTH",
"332.454 -175.477 OFFCURVE",
"418.423 -223.039 OFFCURVE",
"554.611 -223.039 CURVE"
);
}
);
width = 678.24312;
}
);
leftKerningGroup = o;
leftMetricsKey = e;
rightKerningGroup = o;
rightMetricsKey = e;
},
{
glyphname = T_h;
lastChange = "2020-07-29 06:28:48 +0000";
layers = (
{
anchors = (
{
name = bottom;
position = "{745, 0}";
},
{
name = center;
position = "{745, 250}";
},
{
name = top;
position = "{780, 510}";
}
);
components = (
{
name = T;
}
);
layerId = "BC735296-CD3A-4FA4-9AA9-EE2D747BC69E";
paths = (
{
closed = 1;
nodes = (
"533 0 LINE",
"613 0 LINE",
"613 650 LINE",
"533 650 LINE"
);
},
{
closed = 1;
nodes = (
"877 0 LINE",
"957 0 LINE",
"957 332 LINE",
"877 312 LINE"
);
},
{
closed = 1;
nodes = (
"957 472 OFFCURVE",
"861 510 OFFCURVE",
"783 510 CURVE SMOOTH",
"633 510 OFFCURVE",
"612 364 OFFCURVE",
"607 325 CURVE",
"608 267 LINE",
"608 268.815 OFFCURVE",
"627 430 OFFCURVE",
"767 430 CURVE SMOOTH",
"830 430 OFFCURVE",
"877 402 OFFCURVE",
"877 312 CURVE",
"957 332 LINE"
);
}
);
width = 1022;
},
{
anchors = (
{
name = bottom;
position = "{745, 0}";
},
{
name = center;
position = "{745, 250}";
},
{
name = top;
position = "{780, 510}";
}
);
components = (
{
name = T;
}
);
layerId = "38E161BF-7670-40F4-B2BA-C78FC8454263";
paths = (
{
closed = 1;
nodes = (
"1030 0 LINE",
"1270 0 LINE",
"1270 640 LINE",
"1030 640 LINE"
);
},
{
closed = 1;
nodes = (
"1698 0 LINE",
"1938 0 LINE",
"1938 302 LINE",
"1698 202 LINE"
);
},
{
closed = 1;
nodes = (
"1938 472 OFFCURVE",
"1786 525 OFFCURVE",
"1630 525 CURVE SMOOTH",
"1380 525 OFFCURVE",
"1268 374 OFFCURVE",
"1258 335 CURVE",
"1260 287 LINE",
"1260 287 OFFCURVE",
"1358 340 OFFCURVE",
"1488 340 CURVE SMOOTH",
"1654 340 OFFCURVE",
"1698 292 OFFCURVE",
"1698 202 CURVE",
"1938 302 LINE"
);
}
);
width = 1983;
},
{
anchors = (
{
name = bottom;
position = "{745, 0}";
},
{
name = center;
position = "{745, 250}";
},
{
name = top;
position = "{780, 510}";
}
);
components = (
{
alignment = -1;
name = T;
}
);
layerId = "3FBA4204-9B78-4099-9F7B-502DDE19710D";
paths = (
{
closed = 1;
nodes = (
"688.312 0 LINE",
"818.312 0 LINE",
"818.312 646.875 LINE",
"688.312 646.875 LINE"
);
},
{
closed = 1;
nodes = (
"1133.562 0 LINE",
"1263.562 0 LINE",
"1263.562 322.625 LINE",
"1133.562 277.625 LINE"
);
},
{
closed = 1;
nodes = (
"1263.562 472 OFFCURVE",
"1150.062 514.688 OFFCURVE",
"1047.688 514.688 CURVE SMOOTH",
"866.438 514.688 OFFCURVE",
"817 367.125 OFFCURVE",
"810.438 328.125 CURVE",
"811.75 273.25 LINE",
"811.75 274.498 OFFCURVE",
"855.438 401.875 OFFCURVE",
"992.312 401.875 CURVE SMOOTH",
"1087.5 401.875 OFFCURVE",
"1133.562 367.625 OFFCURVE",
"1133.562 277.625 CURVE",
"1263.562 322.625 LINE"
);
}
);
width = 1320.9375;
}
);
leftMetricsKey = T;
rightMetricsKey = h;
},
